<?xml version="1.0" encoding="utf-8"?>
<!-- Generator: Adobe Illustrator 16.0.0, SVG Export Plug-In . SVG Version: 6.00 Build 0)  -->
<!DOCTYPE svg PUBLIC "-//W3C//DTD SVG 1.1//EN" "http://www.w3.org/Graphics/SVG/1.1/DTD/svg11.dtd">
<svg version="1.1" id="图层_1" xmlns="http://www.w3.org/2000/svg" xmlns:xlink="http://www.w3.org/1999/xlink" x="0px" y="0px"
	 width="167.174px" height="49px" viewBox="0 0 167.174 49" enable-background="new 0 0 167.174 49" xml:space="preserve">
<g>
	<defs>
		<rect id="SVGID_1_" x="3.321" y="1.678" width="160.532" height="45.644"/>
	</defs>
	<clipPath id="SVGID_2_">
		<use xlink:href="#SVGID_1_"  overflow="visible"/>
	</clipPath>
	<path clip-path="url(#SVGID_2_)" fill="#040000" d="M49.519,30.66v8.129c0,0.357,0.055,0.637,0.166,0.834
		c0.11,0.195,0.301,0.35,0.568,0.457v0.574h-4.886V40.08c0.275-0.119,0.466-0.275,0.573-0.467c0.107-0.191,0.161-0.467,0.161-0.824
		V18.046c0-0.372-0.053-0.652-0.161-0.844c-0.107-0.19-0.298-0.347-0.573-0.466v-0.575h9.794c1.193,0,2.14,0.108,2.839,0.323
		c0.7,0.215,1.309,0.593,1.829,1.131c0.604,0.622,1.056,1.465,1.354,2.529c0.283,1.03,0.425,2.129,0.425,3.302
		c0,3.997-1.419,6.334-4.255,7.016l3.04,6.764c0.535,1.184,0.927,1.947,1.176,2.289c0.248,0.34,0.552,0.529,0.911,0.564v0.574
		h-5.656V40.08c0.389-0.096,0.584-0.311,0.584-0.646c0-0.215-0.179-0.734-0.538-1.561l-3.171-7.213H49.519z M49.519,26.623h5.276
		c0.78,0,1.331-0.037,1.651-0.107c0.321-0.072,0.615-0.221,0.883-0.449c0.581-0.49,0.872-1.375,0.872-2.656
		c0-1.279-0.292-2.166-0.872-2.656c-0.275-0.238-0.567-0.391-0.877-0.457c-0.31-0.065-0.862-0.101-1.657-0.101h-5.276V26.623z"/>
	<path clip-path="url(#SVGID_2_)" fill="#040000" d="M70.939,20.126c2.042,0,3.745,0.815,5.108,2.442
		c1.629,1.961,2.444,4.693,2.444,8.199c0,3.289-0.815,5.916-2.444,7.877c-1.347,1.627-3.042,2.441-5.085,2.441
		s-3.738-0.814-5.084-2.441c-1.638-1.961-2.457-4.641-2.457-8.039c0-3.432,0.819-6.112,2.457-8.037
		C67.231,20.976,68.918,20.163,70.939,20.126 M70.95,23.931c-1.325,0-2.404,0.663-3.239,1.993c-0.773,1.242-1.16,2.805-1.16,4.682
		c0,1.867,0.386,3.422,1.16,4.666c0.834,1.34,1.918,2.01,3.25,2.01c1.325,0,2.404-0.67,3.239-2.01
		c0.773-1.232,1.16-2.758,1.16-4.576c0-1.973-0.387-3.564-1.16-4.771C73.358,24.619,72.275,23.956,70.95,23.931"/>
	<path clip-path="url(#SVGID_2_)" fill="#040000" d="M92.255,29.852c0.635,0.455,1.102,0.91,1.4,1.365
		c0.559,0.861,0.836,2.021,0.836,3.482c0,1.961-0.474,3.473-1.422,4.537c-0.841,0.945-1.999,1.418-3.475,1.418h-9.142v-0.502
		c0.268-0.107,0.457-0.264,0.567-0.467c0.111-0.203,0.167-0.49,0.167-0.861V22.388c0-0.37-0.054-0.652-0.16-0.843
		c-0.108-0.192-0.298-0.353-0.574-0.485v-0.502h8.992c1.576,0,2.73,0.443,3.465,1.328c0.779,0.933,1.17,2.213,1.17,3.839
		c0,0.959-0.137,1.742-0.408,2.352S92.929,29.277,92.255,29.852 M84.261,28.094h4.668c0.734,0,1.254-0.146,1.561-0.439
		c0.305-0.293,0.459-0.799,0.459-1.516c0-0.707-0.151-1.205-0.453-1.499c-0.303-0.293-0.824-0.439-1.566-0.439h-4.668V28.094z
		 M84.261,37.012h4.783c1.544,0,2.316-0.879,2.316-2.637c0-1.76-0.772-2.639-2.316-2.639h-4.783V37.012z"/>
	<path clip-path="url(#SVGID_2_)" fill="#040000" d="M103.593,20.126c2.044,0,3.746,0.815,5.108,2.442
		c1.63,1.961,2.445,4.693,2.445,8.199c0,3.289-0.815,5.916-2.445,7.877c-1.347,1.627-3.041,2.441-5.085,2.441
		c-2.043,0-3.738-0.814-5.086-2.441c-1.637-1.961-2.455-4.641-2.455-8.039c0-3.432,0.818-6.112,2.455-8.037
		C99.886,20.976,101.573,20.163,103.593,20.126 M103.604,23.931c-1.324,0-2.404,0.663-3.238,1.993
		c-0.773,1.242-1.159,2.805-1.159,4.682c0,1.867,0.386,3.422,1.159,4.666c0.834,1.34,1.918,2.01,3.25,2.01
		c1.325,0,2.404-0.67,3.238-2.01c0.773-1.232,1.16-2.758,1.16-4.576c0-1.973-0.387-3.564-1.16-4.771
		C106.013,24.619,104.929,23.956,103.604,23.931"/>
	<path clip-path="url(#SVGID_2_)" fill="#040000" d="M129.135,18.236l-1.869,5.767l-0.321-0.287
		c0.008-0.119,0.012-0.214,0.012-0.287c0-0.406-0.222-0.842-0.665-1.309c-1.361-1.484-2.959-2.225-4.794-2.225
		c-0.812,0-1.526,0.155-2.146,0.466c-0.451,0.239-0.815,0.598-1.096,1.075c-0.278,0.477-0.418,0.999-0.418,1.56
		c0,0.92,0.355,1.547,1.066,1.883c0.367,0.166,1.154,0.347,2.362,0.537l1.801,0.287c1.071,0.18,1.938,0.424,2.598,0.734
		c0.662,0.313,1.248,0.748,1.761,1.311c0.521,0.584,0.932,1.355,1.233,2.313s0.453,1.979,0.453,3.066c0,1.721-0.355,3.25-1.065,4.59
		c-0.644,1.219-1.641,2.121-2.994,2.707c-1.011,0.441-2.092,0.664-3.246,0.664c-2.072,0-4.118-0.777-6.137-2.334
		c-0.429-0.311-0.685-0.467-0.769-0.467c-0.099,0-0.257,0.133-0.471,0.395l-0.332-0.268l1.697-6.012l0.333,0.252v0.232
		c0,0.539,0.164,1.035,0.493,1.49c0.497,0.693,1.266,1.291,2.305,1.793c1.04,0.504,2.026,0.754,2.96,0.754
		c1.017,0,1.885-0.268,2.603-0.807c0.397-0.297,0.716-0.693,0.952-1.189c0.237-0.496,0.356-1.012,0.356-1.549
		c0-0.813-0.279-1.391-0.837-1.738c-0.391-0.238-1.178-0.459-2.364-0.662l-1.766-0.287c-1.186-0.191-2.021-0.373-2.513-0.547
		c-0.488-0.174-0.979-0.451-1.467-0.836c-0.695-0.537-1.243-1.346-1.641-2.424c-0.36-0.971-0.539-2.083-0.539-3.341
		c0-2.07,0.455-3.782,1.365-5.135c1.192-1.784,2.982-2.676,5.367-2.676c1.002,0,1.935,0.159,2.8,0.478
		c0.863,0.318,1.94,0.904,3.234,1.757c0.442,0.276,0.714,0.414,0.813,0.414c0.16,0,0.349-0.138,0.563-0.414L129.135,18.236z"/>
	<path clip-path="url(#SVGID_2_)" fill="#040000" d="M136.183,32.113v4.898h8.154c0.237,0,0.419-0.082,0.545-0.246
		c0.126-0.166,0.228-0.467,0.304-0.9h0.322v5.938h-0.322c-0.067-0.418-0.168-0.715-0.297-0.889c-0.131-0.174-0.314-0.26-0.552-0.26
		h-11.963v-0.502c0.269-0.107,0.457-0.264,0.567-0.467c0.111-0.203,0.167-0.49,0.167-0.861V22.388c0-0.37-0.054-0.652-0.16-0.843
		c-0.108-0.192-0.299-0.353-0.574-0.485v-0.502h11.607c0.245,0,0.431-0.083,0.557-0.25c0.126-0.168,0.228-0.467,0.304-0.898h0.31
		v5.939h-0.31c-0.076-0.435-0.178-0.736-0.304-0.9s-0.312-0.247-0.557-0.247h-7.799v4.415h4.84c0.237,0,0.419-0.084,0.545-0.252
		c0.125-0.168,0.232-0.467,0.315-0.896h0.311v5.795h-0.311c-0.077-0.424-0.178-0.721-0.304-0.893
		c-0.126-0.17-0.313-0.256-0.557-0.256H136.183z"/>
	<path clip-path="url(#SVGID_2_)" fill="#040000" d="M158.353,35.631h-5.907l-0.665,2.189c-0.16,0.525-0.241,0.938-0.241,1.236
		c0,0.574,0.245,0.939,0.733,1.096v0.502h-4.72v-0.502c0.292-0.072,0.507-0.209,0.648-0.414c0.142-0.203,0.309-0.604,0.499-1.201
		l4.691-14.857c0.176-0.563,0.264-1.052,0.264-1.472c0-0.491-0.214-0.873-0.644-1.149v-0.502h4.991v0.502
		c-0.421,0.264-0.632,0.67-0.632,1.22c0,0.396,0.096,0.879,0.286,1.455l4.865,14.408c0.266,0.783,0.477,1.289,0.63,1.52
		c0.152,0.232,0.385,0.396,0.7,0.49v0.502h-5.248v-0.502c0.497-0.131,0.744-0.496,0.744-1.09c0-0.371-0.095-0.83-0.286-1.377
		L158.353,35.631z M157.429,32.813l-2.104-6.463l-2.003,6.463H157.429z"/>
	<path clip-path="url(#SVGID_2_)" fill="#040000" d="M22.953,35.211c-3.608-0.037-13.445-1.523-15.574-3.906
		c-0.879-0.982,2.606-3.77,4.005-3.805c2.73-0.066,3.287-0.91,3.526-1.66c0.235-0.738,2.139-1.011,2.615,3.486
		c0.021,0.201,0.018,0.074,0.017,0.008c-0.047-2.135-0.11-3.5,0.415-3.656c0.529-0.158,0.417,2.613,1.253,3.338
		c0.058,0.051,0.034-0.004,0.027-0.023c-0.465-1.416-0.704-2.49-0.231-3.602c0.473-1.111,1.024,1.191,1.368,3.16
		c0.004,0.025,0.012,0.104,0.018-0.01c0.071-1.293,0.106-2.092,0.475-2.756c0.482-0.87,1.587-1.179,2.232,1.715
		c0.644,2.893,0.834-0.166,1.054-1.037c0.933-3.694,12.1-10.957,23.866-15.14c0.01-0.003,0.008-0.006-0.002-0.004
		c-6.443,1.242-21.252,6.251-27.322,9.198c-0.012,0.005-0.01-0.002,0-0.012c3.965-3.13,16.552-7.428,17.543-7.79
		c0.06-0.022,0.078-0.029,0.046-0.021c-0.029,0.009-0.06,0.016-0.09,0.025c-5.433,1.481-8.895,0.718-9.694-0.335
		c-1.376-1.815-0.518-7.99,1.541-10.519c0.114-0.141-5.782,4.478-9.415,12.664c-0.8,1.8-1.693,2.752-2.898,3.679
		c-0.801,0.617-7.48,4.151-13.808,12.026c-2.169,2.697,6.983,5.787,12.358,5.682c1.679-0.033,2.832-0.389,3.492,0.482
		c1.814,2.395,4.587,4.236,8.798,4.236c4.101,0-4.378-1.664-5.425-5.221C23.084,35.211,23.023,35.211,22.953,35.211 M11.99,25.203
		c0.596-0.012,1.714-0.481,2.327-1.704c0.285-0.567,0.387-0.934,0.387-0.934s0.001,1.186-0.25,1.791
		c-0.456,1.11-1.09,1.993-2.368,1.565c-0.577-0.195-0.923-0.871-0.923-0.871S11.691,25.207,11.99,25.203"/>
</g>
<g>
	<defs>
		<path id="SVGID_3_" d="M9.243,6.396c0,1.48,0.767,2.679,1.713,2.679c0.945,0,1.712-1.199,1.712-2.679
			c0-1.479-0.767-2.679-1.712-2.679C10.01,3.716,9.243,4.916,9.243,6.396"/>
	</defs>
	<clipPath id="SVGID_4_">
		<use xlink:href="#SVGID_3_"  overflow="visible"/>
	</clipPath>
	<path clip-path="url(#SVGID_4_)" fill="#040000" d="M13.167,7.095c0,1.283-0.665,2.323-1.485,2.323s-1.485-1.04-1.485-2.323
		c0-1.283,0.665-2.323,1.485-2.323S13.167,5.812,13.167,7.095"/>
</g>
<g>
	<defs>
		<rect id="SVGID_5_" x="3.321" y="1.678" width="160.532" height="45.644"/>
	</defs>
	<clipPath id="SVGID_6_">
		<use xlink:href="#SVGID_5_"  overflow="visible"/>
	</clipPath>
	<path clip-path="url(#SVGID_6_)" fill="#040000" d="M28.08,44.945c0,1.283-0.665,2.324-1.485,2.324
		c-0.819,0-1.484-1.041-1.484-2.324S28.08,43.662,28.08,44.945"/>
</g>
<g>
	<defs>
		<path id="SVGID_7_" d="M40.031,7.094c0,1.284,0.665,2.324,1.485,2.324s1.485-1.04,1.485-2.324c0-1.283-0.665-2.323-1.485-2.323
			S40.031,5.812,40.031,7.094"/>
	</defs>
	<clipPath id="SVGID_8_">
		<use xlink:href="#SVGID_7_"  overflow="visible"/>
	</clipPath>
	<polygon clip-path="url(#SVGID_8_)" fill="#040000" points="41.96,9.695 40.245,5.513 42.295,3.455 44.01,7.639 	"/>
</g>
<g>
	<defs>
		<polygon id="SVGID_9_" points="25.994,44.352 27.869,46.16 42.78,8.313 40.907,6.505 		"/>
	</defs>
	<clipPath id="SVGID_10_">
		<use xlink:href="#SVGID_9_"  overflow="visible"/>
	</clipPath>
	<path clip-path="url(#SVGID_10_)" fill="#040000" d="M29.708,41.912l-0.086,0.236c-3.796,0.438-6.645-1.217-6.645-1.217
		l-0.37-0.576l-9.755-15.203l-0.811,3.695L14.49,41.65l8.556,13.518l6.834-1.004l2.835-10.006L29.708,41.912z"/>
	<path clip-path="url(#SVGID_10_)" fill="#040000" d="M14.368,18.687c1.006-0.698,2.487-1.623,2.487-1.623l0.401,0.42l5.368,9.991
		c0,0,0.574,8.367,7.226,11.279c0.487,0.213,0.643,0.658,0.684,0.809c0.019,0.066,0.055,0.064,0.055,0.064l0.527,0.156l0.484-0.732
		l9.197-20.75l0.95-2.792c-2.367,0.99-6.063,3.069-6.063,3.069l-5.24-2.098l-9.138-5.108l1.249-2.851c0,0,1.51-2.456,4.134-5.333
		l-4.18-2.746L11.131,0.144L4.98,4.956l6.518,14.117L14.368,18.687z"/>
	<path clip-path="url(#SVGID_10_)" fill="#040000" d="M44.595,11.259l-0.229-4.185c0,0-0.354-2.515-0.48-2.792
		c-0.127-0.277-2.469-1.386-2.469-1.386l-4.733-0.02c0,0-3.025,0.652-3.076,0.594c-0.05-0.06-2.316-0.931-2.316-0.931l-1.962-0.851
		L29.04,2.353c0.713,0.538,0.941,1.876,0.941,1.876s-0.983,1.935-1.122,4.68c-0.033,0.64-0.392,0.96-0.925,1.076
		c-0.435,0.094-0.985,0.051-1.566-0.066l2.736,2.838l4.379,0.991C33.483,13.747,44.431,10.905,44.595,11.259"/>
</g>
<g>
	<defs>
		<polygon id="SVGID_11_" points="10.417,8.313 25.329,46.16 27.204,44.352 12.292,6.505 		"/>
	</defs>
	<clipPath id="SVGID_12_">
		<use xlink:href="#SVGID_11_"  overflow="visible"/>
	</clipPath>
	<path clip-path="url(#SVGID_12_)" fill="#040000" d="M29.708,41.912l-0.086,0.236c-3.796,0.438-6.645-1.217-6.645-1.217
		l-0.37-0.576l-9.755-15.203l-0.811,3.695L14.49,41.65l8.556,13.518l6.834-1.004l2.835-10.006L29.708,41.912z"/>
	<path clip-path="url(#SVGID_12_)" fill="#040000" d="M14.368,18.687c1.006-0.698,2.487-1.623,2.487-1.623l0.401,0.42l6.887,7.231
		c0,0,5.138,13.671,5.707,14.039c0.57,0.365,0.697,0.861,0.697,0.861l0.57,0.168l0.484-0.732l9.197-20.75l0.95-2.792
		c-2.367,0.99-6.063,3.069-6.063,3.069l-5.24-2.098l-9.138-5.108l1.249-2.851c0,0,1.51-2.456,4.134-5.333l-4.18-2.746L11.131,0.144
		L4.98,4.956l6.518,14.117L14.368,18.687z"/>
	<path clip-path="url(#SVGID_12_)" fill="#C6BA9A" d="M37.559,12.353c0.292-0.759,0.556-1.269,0.733-1.26
		c0.675,0.041,0.936,0.951,0.936,0.951l2.836-0.851c0,0,0.14,0.227,0.305,0.58l1.999-4.699c0,0-0.354-2.515-0.481-2.792
		s-2.468-1.385-2.468-1.385l-4.733-0.02c0,0-3.025,0.652-3.076,0.593c-0.051-0.059-2.315-0.93-2.315-0.93l-1.962-0.852L29.04,2.352
		c0.713,0.539,0.94,1.878,0.94,1.878s-0.982,1.934-1.122,4.68c-0.033,0.64-0.393,0.96-0.926,1.076
		c-0.435,0.093-0.984,0.051-1.565-0.067l2.736,2.838l4.379,0.99L37.559,12.353z"/>
</g>
<g>
	<defs>
		<rect id="SVGID_13_" x="11.68" y="4.772" width="29.826" height="3.445"/>
	</defs>
	<clipPath id="SVGID_14_">
		<use xlink:href="#SVGID_13_"  overflow="visible"/>
	</clipPath>
	<path clip-path="url(#SVGID_14_)" fill="#C6BA9A" d="M29.708,41.912l-0.086,0.236c-3.796,0.438-6.645-1.217-6.645-1.217
		l-0.37-0.576l-9.755-15.203l-0.811,3.695L14.49,41.65l8.556,13.518l6.834-1.004l2.835-10.006L29.708,41.912z"/>
	<path clip-path="url(#SVGID_14_)" fill="#040000" d="M14.368,18.687c1.006-0.698,2.487-1.623,2.487-1.623l0.401,0.42l6.887,7.231
		c0,0,5.138,13.671,5.707,14.039c0.57,0.365,0.697,0.861,0.697,0.861l0.57,0.168l0.484-0.732l9.197-20.75l0.95-2.792
		c-2.367,0.99-6.063,3.069-6.063,3.069l-5.24-2.098l-9.138-5.108l1.249-2.851c0,0,1.51-2.456,4.134-5.333l-4.18-2.746L11.131,0.144
		L4.98,4.956l6.518,14.117L14.368,18.687z"/>
	<path clip-path="url(#SVGID_14_)" fill="#040000" d="M37.559,12.353c0.292-0.759,0.556-1.269,0.733-1.26
		c0.675,0.041,0.936,0.951,0.936,0.951l2.836-0.851c0,0,0.14,0.227,0.305,0.58l1.999-4.699c0,0-0.354-2.515-0.481-2.792
		s-2.468-1.385-2.468-1.385l-4.733-0.02c0,0-3.025,0.652-3.076,0.593c-0.051-0.059-2.315-0.93-2.315-0.93l-1.962-0.852L29.04,2.352
		c0.713,0.539,0.94,1.878,0.94,1.878s-0.982,1.934-1.122,4.68c-0.033,0.64-0.393,0.96-0.926,1.076
		c-0.435,0.093-0.984,0.051-1.565-0.067l2.736,2.838l4.379,0.99L37.559,12.353z"/>
</g>
</svg>
