<?xml version="1.0" encoding="utf-8"?>
<!-- Generator: Adobe Illustrator 21.0.0, SVG Export Plug-In . SVG Version: 6.00 Build 0)  -->
<svg version="1.1" id="图层_1" xmlns="http://www.w3.org/2000/svg" xmlns:xlink="http://www.w3.org/1999/xlink" x="0px" y="0px"
	 viewBox="0 0 100 540" style="enable-background:new 0 0 100 540;" xml:space="preserve">
<style type="text/css">
	.st0{opacity:0.4;fill:#00FF7F;}
	.st1{fill:#00FF7F;}
	.st2{fill:none;}
	.st3{display:none;fill:#00FF7F;}
	.st4{font-family:'BankGothicBT-Medium';}
	.st5{font-size:35.7342px;}
</style>
<g>
	<g>
		<path class="st0" d="M34.7,150.6c0-0.6-0.3-1.1-0.7-1.1H22.4c-0.4,0-0.8,0.5-0.8,1.1l0,0c0,0.6,0.3,1.1,0.8,1.1h11.5
			C34.3,151.7,34.7,151.2,34.7,150.6L34.7,150.6z"/>
		<path class="st0" d="M34.7,179.2c0-0.6-0.3-1.1-0.7-1.1H22.4c-0.4,0-0.8,0.5-0.8,1.1l0,0c0,0.6,0.3,1.1,0.8,1.1h11.5
			C34.3,180.4,34.7,179.9,34.7,179.2L34.7,179.2z"/>
		<path class="st0" d="M34.7,92c0-0.6-0.3-1.1-0.8-1.1H22.4c-0.4,0-0.8,0.5-0.8,1.1l0,0c0,0.6,0.3,1.1,0.8,1.1h11.5
			C34.3,93.2,34.7,92.7,34.7,92L34.7,92z"/>
		<path class="st1" d="M41.7,121.3c0-0.6-0.7-1.1-1.6-1.1h-24c-0.9,0-1.6,0.5-1.6,1.1l0,0c0,0.6,0.7,1.1,1.6,1.1h24
			C41,122.5,41.7,121.9,41.7,121.3L41.7,121.3z"/>
		<path class="st1" d="M41.7,412.9c0-0.6-0.7-1.1-1.6-1.1h-24c-0.9,0-1.6,0.5-1.6,1.1l0,0c0,0.6,0.7,1.1,1.6,1.1h24
			C41,414.1,41.7,413.6,41.7,412.9L41.7,412.9z"/>
		<path class="st0" d="M34.7,62.8c0-0.6-0.3-1.1-0.7-1.1H22.4c-0.4,0-0.8,0.5-0.8,1.1l0,0c0,0.6,0.3,1.1,0.8,1.1h11.5
			C34.3,63.9,34.7,63.4,34.7,62.8L34.7,62.8z"/>
		<path class="st0" d="M34.7,33.5c0-0.6-0.3-1.1-0.7-1.1H22.4c-0.4,0-0.8,0.5-0.8,1.1l0,0c0,0.6,0.3,1.1,0.8,1.1h11.5
			C34.3,34.6,34.7,34.1,34.7,33.5L34.7,33.5z"/>
		<path class="st1" d="M42.4,4.1c0-0.6-0.7-1.1-1.6-1.1H15.5c-0.9,0-1.6,0.5-1.6,1.1l0,0c0,0.6,0.7,1.1,1.6,1.1h25.2
			C41.7,5.3,42.4,4.8,42.4,4.1L42.4,4.1z"/>
		<path class="st0" d="M34.7,500.9c0-0.6-0.3-1.1-0.8-1.1H22.4c-0.4,0-0.8,0.5-0.8,1.1l0,0c0,0.6,0.3,1.1,0.8,1.1h11.5
			C34.3,502,34.7,501.5,34.7,500.9L34.7,500.9z"/>
		<path class="st1" d="M41.7,530.1c0-0.6-0.7-1.1-1.6-1.1h-24c-0.9,0-1.6,0.5-1.6,1.1l0,0c0,0.6,0.7,1.1,1.6,1.1h24
			C41,531.3,41.7,530.8,41.7,530.1L41.7,530.1z"/>
		<path class="st0" d="M34.7,471.6c0-0.6-0.3-1.1-0.8-1.1H22.4c-0.4,0-0.8,0.5-0.8,1.1l0,0c0,0.6,0.3,1.1,0.8,1.1h11.5
			C34.3,472.7,34.7,472.2,34.7,471.6L34.7,471.6z"/>
		<path class="st0" d="M34.7,442.3c0-0.6-0.3-1.1-0.8-1.1H22.4c-0.4,0-0.8,0.5-0.8,1.1l0,0c0,0.6,0.3,1.1,0.8,1.1h11.5
			C34.3,443.4,34.7,442.9,34.7,442.3L34.7,442.3z"/>
		<path class="st1" d="M41.7,267.1c0-0.6-0.7-1.1-1.6-1.1h-24c-0.9,0-1.6,0.5-1.6,1.1l0,0c0,0.6,0.7,1.1,1.6,1.1h24
			C41,268.3,41.7,267.8,41.7,267.1L41.7,267.1z"/>
		<path class="st0" d="M34.7,237.9c0-0.6-0.3-1.1-0.7-1.1H22.4c-0.4,0-0.8,0.5-0.8,1.1l0,0c0,0.6,0.3,1.1,0.8,1.1h11.5
			C34.3,239,34.7,238.5,34.7,237.9L34.7,237.9z"/>
		<path class="st0" d="M34.7,208.6c0-0.6-0.3-1.1-0.7-1.1H22.4c-0.4,0-0.8,0.5-0.8,1.1l0,0c0,0.6,0.3,1.1,0.8,1.1h11.5
			C34.3,209.7,34.7,209.2,34.7,208.6L34.7,208.6z"/>
		<path class="st0" d="M34.7,325.7c0-0.6-0.3-1.1-0.7-1.1H22.4c-0.4,0-0.8,0.5-0.8,1.1l0,0c0,0.6,0.3,1.1,0.8,1.1h11.5
			C34.3,326.8,34.7,326.3,34.7,325.7L34.7,325.7z"/>
		<path class="st0" d="M34.7,296.4c0-0.6-0.3-1.1-0.8-1.1H22.4c-0.4,0-0.8,0.5-0.8,1.1l0,0c0,0.6,0.3,1.1,0.8,1.1h11.5
			C34.3,297.5,34.7,297,34.7,296.4L34.7,296.4z"/>
		<path class="st0" d="M34.7,383.7c0-0.6-0.3-1.1-0.7-1.1H22.4c-0.4,0-0.8,0.5-0.8,1.1l0,0c0,0.6,0.3,1.1,0.8,1.1h11.5
			C34.3,384.8,34.7,384.3,34.7,383.7L34.7,383.7z"/>
		<path class="st0" d="M34.7,354.3c0-0.6-0.3-1.1-0.8-1.1H22.4c-0.4,0-0.8,0.5-0.8,1.1l0,0c0,0.6,0.3,1.1,0.8,1.1h11.5
			C34.3,355.5,34.7,355,34.7,354.3L34.7,354.3z"/>
		<path class="st1" d="M27.4,5.4c0-0.7,0.3-1.3,0.7-1.3l0,0c0.4,0,0.7,0.6,0.7,1.3V530c0,0.7-0.3,1.3-0.7,1.3l0,0
			c-0.4,0-0.7-0.6-0.7-1.3V5.4z"/>
	</g>
	<rect x="44.2" y="250.6" class="st2" width="30.3" height="33.1"/>
	<text transform="matrix(-1 0 0 1 74.5547 280.4746)" class="st3 st4 st5">0</text>
	<rect x="44.2" y="103.7" class="st2" width="63.3" height="49.1"/>
	<text transform="matrix(1 0 0 1 44.2295 133.6274)" class="st3 st4 st5">15</text>
	<rect x="44.2" y="395.7" class="st2" width="69.4" height="49.1"/>
	<text transform="matrix(1 0 0 1 44.2295 425.6025)" class="st3 st4 st5">-15</text>
</g>
</svg>
