<?xml version="1.0" encoding="utf-8"?>
<!-- Generator: Adobe Illustrator 21.0.0, SVG Export Plug-In . SVG Version: 6.00 Build 0)  -->
<svg version="1.1" id="图层_1" xmlns="http://www.w3.org/2000/svg" xmlns:xlink="http://www.w3.org/1999/xlink" x="0px" y="0px"
	 viewBox="0 0 359.3 359.3" style="enable-background:new 0 0 359.3 359.3;" xml:space="preserve">
<style type="text/css">
	.st0{fill:#00FF4E;}
	.st1{fill:#00FF4E;stroke:#FFFFFF;stroke-width:1.1284;stroke-miterlimit:10;}
</style>
<g>
	<g>
		<g>
			<g>
				<g>
					<g>
						<path class="st0" d="M179.4,318.3c-76.6,0-138.9-62.3-138.9-138.9c0-76.6,62.3-138.9,138.9-138.9
							c76.6,0,138.9,62.3,138.9,138.9C318.2,256,255.9,318.3,179.4,318.3z M179.4,43.4c-75,0-136.1,61-136.1,136.1
							c0,75,61,136.1,136.1,136.1c75,0,136.1-61,136.1-136.1C315.5,104.5,254.4,43.4,179.4,43.4z"/>
					</g>
					<g>
						<path class="st1" d="M179.7,318.5c-76.6,0-138.9-62.3-138.9-138.9c0-76.6,62.3-138.9,138.9-138.9
							c76.6,0,138.9,62.3,138.9,138.9C318.5,256.2,256.2,318.5,179.7,318.5z M179.7,43.6c-75,0-136.1,61-136.1,136.1
							c0,75,61,136.1,136.1,136.1c75,0,136.1-61,136.1-136.1C315.7,104.6,254.7,43.6,179.7,43.6z"/>
					</g>
				</g>
			</g>
		</g>
	</g>
</g>
<path class="st0" d="M179.7,27.3c0.7,0,1.2,0.8,1.2,1.7v26.3c0,0.9-0.6,1.7-1.2,1.7l0,0c-0.7,0-1.2-0.8-1.2-1.7V29
	C178.4,28,179,27.3,179.7,27.3L179.7,27.3z"/>
<path class="st0" d="M179.7,302c0.7,0,1.2,0.8,1.2,1.7v26.3c0,0.9-0.6,1.7-1.2,1.7l0,0c-0.7,0-1.2-0.8-1.2-1.7v-26.3
	C178.4,302.8,179,302,179.7,302L179.7,302z"/>
<path class="st0" d="M27.5,179.7c0-0.7,0.8-1.2,1.7-1.2h26.3c0.9,0,1.7,0.6,1.7,1.2l0,0c0,0.7-0.8,1.2-1.7,1.2H29.2
	C28.2,180.9,27.5,180.3,27.5,179.7L27.5,179.7z"/>
<path class="st0" d="M302.6,179.7c0-0.7,0.8-1.2,1.7-1.2h26.3c0.9,0,1.7,0.6,1.7,1.2l0,0c0,0.7-0.8,1.2-1.7,1.2h-26.3
	C303.4,180.9,302.6,180.3,302.6,179.7L302.6,179.7z"/>
<g>
	<path class="st0" d="M0,170.2h4.7l1.2,8.6l0.8,6h0.1c0.4-2,0.7-4,1.1-6l1.9-8.6h3.8l2,8.6c0.4,1.9,0.7,4,1.1,6h0.1
		c0.2-2,0.5-4,0.7-6l1.2-8.6h4.3l-3.3,18.9h-5.7l-1.7-8.3c-0.3-1.5-0.6-3-0.7-4.4h-0.1c-0.2,1.4-0.5,3-0.7,4.4l-1.7,8.3H3.5L0,170.2
		z"/>
</g>
<g>
	<path class="st0" d="M347.3,170.4h11.8v3.7h-7.3v3.4h6.2v3.7h-6.2v3.9h7.6v3.7h-12"/>
</g>
<path class="st0" d="M191,24.3h-5.5l-12-17.6h-0.2v17.6h-5V0h5.5l12,17.6h0.2V0h5V24.3z"/>
<g>
	<path class="st0" d="M168.3,355.8l3-2.6c2.3,1.7,5.4,2.9,8.5,2.9c3.9,0,6.1-1.4,6.1-3.4c0-2.2-2.2-2.9-5.1-3.9l-4.4-1.4
		c-3.1-1-6.5-2.8-6.5-6.3c0-3.8,4.4-6.7,10.5-6.7c3.7,0,7.3,1.2,9.7,3.1l-2.7,2.4c-2-1.3-4.2-2.2-7.1-2.2c-3.3,0-5.4,1.2-5.4,3.1
		c0,2.1,2.6,2.9,5.2,3.6l4.4,1.4c3.8,1.2,6.5,3,6.5,6.5c0,3.9-4.3,7-11.3,7C175.3,359.3,171.2,358,168.3,355.8z"/>
</g>
</svg>
