<?xml version="1.0" encoding="utf-8"?>
<!-- Generator: Adobe Illustrator 16.0.0, SVG Export Plug-In . SVG Version: 6.00 Build 0)  -->
<!DOCTYPE svg PUBLIC "-//W3C//DTD SVG 1.1//EN" "http://www.w3.org/Graphics/SVG/1.1/DTD/svg11.dtd">
<svg version="1.1" id="图层_1" xmlns="http://www.w3.org/2000/svg" xmlns:xlink="http://www.w3.org/1999/xlink" x="0px" y="0px"
	 width="360px" height="360px" viewBox="0 0 360 360" enable-background="new 0 0 360 360" xml:space="preserve">
<g>
	<g display="none">
		<g display="inline">
			<g>
				<circle opacity="0.1" fill="#00FF4E" enable-background="new    " cx="182" cy="177.2" r="132.4"/>
				<g>
					<g>
						<path fill="#00FF4E" d="M182,318c-77.6,0-140.8-63.2-140.8-140.8c0-77.6,63.2-140.8,140.8-140.8
							c77.6,0,140.8,63.2,140.8,140.8C322.8,254.8,259.6,318,182,318z M182,39.2c-76,0-138,62-138,138s62,138,138,138
							s138-62,138-138C319.6,101.2,258,39.2,182,39.2z"/>
					</g>
					<g>
						<path fill="#00FF4E" stroke="#FFFFFF" stroke-width="1.1284" stroke-miterlimit="10" d="M182,318
							c-77.6,0-140.8-63.2-140.8-140.8c0-77.6,63.2-140.8,140.8-140.8c77.6,0,140.8,63.2,140.8,140.8C322.8,254.8,259.6,318,182,318
							z M182,39.2c-76,0-138,62-138,138s62,138,138,138s138-62,138-138C319.6,101.2,258,39.2,182,39.2z"/>
					</g>
					<g>
						<path opacity="0.6" fill="#00FF4E" enable-background="new    " d="M182,49.6V72c28.8,0,55.2,11.6,74,30.8l16-16
							C248.8,64,217.2,49.6,182,49.6z"/>
						<path opacity="0.15" fill="#00FF4E" enable-background="new    " d="M286.8,177.2h22.4l0,0c0-35.2-14.4-67.2-37.2-90l-16,16
							C275.2,122,286.8,148,286.8,177.2L286.8,177.2z"/>
						<path opacity="0.15" fill="#00FF4E" enable-background="new    " d="M218.8,275.2c-11.6,4.399-24,6.8-36.8,6.8
							c-58,0-104.8-47.2-104.8-104.8H54.8C54.8,247.6,112,304.8,182.4,304.8c15.6,0,30.8-2.8,44.8-8L218.8,275.2z"/>
						<path opacity="0.15" fill="#00FF4E" enable-background="new    " d="M108.4,102.4c18.8-18.4,44.8-30,73.6-30l0,0V50l0,0
							c-34.8,0-66,14-89.2,36.4L108.4,102.4z"/>
						<path opacity="0.45" fill="#00FF4E" enable-background="new    " d="M54.4,177.2L54.4,177.2h22.4l0,0
							c0-29.2,12-55.6,31.6-74.8l-15.6-16C69.2,109.2,54.4,141.6,54.4,177.2z"/>
						<path opacity="0.8" fill="#00FF4E" enable-background="new    " d="M286.8,177.2c0,44.8-28.399,83.2-68,98l8,21.2
							c48.4-18,82.8-64.801,82.8-119.2H286.8z"/>
					</g>
				</g>
			</g>
			<circle fill="#00FF4E" cx="182" cy="177.2" r="4.4"/>
		</g>
		<path display="inline" fill="#00FF4E" d="M182,26.8c0.8,0,1.2,0.8,1.2,1.6v26c0,0.8-0.4,1.6-1.2,1.6l0,0c-0.8,0-1.2-0.8-1.2-1.6
			v-26C180.8,27.6,181.6,26.8,182,26.8L182,26.8z"/>
		<path display="inline" fill="#00FF4E" d="M182,301.6c0.8,0,1.2,0.801,1.2,1.601v26c0,0.8-0.4,1.6-1.2,1.6l0,0
			c-0.8,0-1.2-0.8-1.2-1.6v-26C180.8,302.4,181.6,301.6,182,301.6L182,301.6z"/>
		<path display="inline" fill="#00FF4E" d="M29.2,176.8c0-0.8,0.8-1.2,1.6-1.2h26c0.8,0,1.6,0.4,1.6,1.2l0,0c0,0.8-0.8,1.2-1.6,1.2
			h-26C30,178,29.2,177.2,29.2,176.8L29.2,176.8z"/>
		<path display="inline" fill="#00FF4E" d="M306,176.8c0-0.8,0.8-1.2,1.6-1.2h26c0.801,0,1.601,0.4,1.601,1.2l0,0
			c0,0.8-0.8,1.2-1.601,1.2h-26C306.4,178,306,177.2,306,176.8L306,176.8z"/>
		
			<linearGradient id="SVGID_1_" gradientUnits="userSpaceOnUse" x1="63.4414" y1="269.9355" x2="88.5826" y2="269.9355" gradientTransform="matrix(4 0 0 -4 -119.1602 1201.5391)">
			<stop  offset="0" style="stop-color:#00FF4E"/>
			<stop  offset="0.0034" style="stop-color:#03FF50;stop-opacity:0.9951"/>
			<stop  offset="0.0585" style="stop-color:#38FF75;stop-opacity:0.915"/>
			<stop  offset="0.1169" style="stop-color:#67FF95;stop-opacity:0.8301"/>
			<stop  offset="0.178" style="stop-color:#90FFB2;stop-opacity:0.7413"/>
			<stop  offset="0.2419" style="stop-color:#B2FFCA;stop-opacity:0.6485"/>
			<stop  offset="0.3094" style="stop-color:#CEFFDD;stop-opacity:0.5504"/>
			<stop  offset="0.3817" style="stop-color:#E4FFEC;stop-opacity:0.4453"/>
			<stop  offset="0.4613" style="stop-color:#F3FFF7;stop-opacity:0.3297"/>
			<stop  offset="0.5535" style="stop-color:#FCFFFD;stop-opacity:0.1957"/>
			<stop  offset="0.6882" style="stop-color:#FFFFFF;stop-opacity:0"/>
		</linearGradient>
		<polygon display="inline" fill="url(#SVGID_1_)" points="235.2,180 179.2,45.2 134.8,63.6 190.8,198.4 		"/>
	</g>
	<g>
		<circle fill="#E60012" cx="194.4" cy="117.6" r="4.4"/>
		<circle fill="#E60012" cx="180.8" cy="134.4" r="4.4"/>
		<circle fill="#E60012" cx="186" cy="102.4" r="4.4"/>
	</g>
	<path display="none" fill="#00FF4E" d="M193.6,26.8H188L176,9.2l0,0v17.6h-4.8v-24h5.6l12,17.6h0.4V2.8h4.8v24H193.6z"/>
	<g display="none">
		<path display="inline" fill="#00FF4E" d="M170.8,356.4l2.8-2.801c2.4,1.601,5.6,2.801,8.4,2.801c4,0,6-1.2,6-3.2s-2-2.8-5.2-4
			l-4-1.2c-3.2-0.8-6.4-2.8-6.4-6.4c0-3.6,4.4-6.8,10.4-6.8c3.601,0,7.2,1.2,9.601,3.2l-2.801,2.4c-2-1.2-4-2-7.199-2
			c-3.2,0-5.2,1.199-5.2,3.199s2.4,2.801,5.2,3.601l4.399,1.6c3.601,1.2,6.4,2.8,6.4,6.4c0,4-4.4,6.8-11.2,6.8
			C178,360,174,358.8,170.8,356.4z"/>
	</g>
	<g display="none">
		<path display="inline" fill="#00FF4E" d="M2.4,164.8h4.8l1.2,8.4l0.8,6l0,0c0.4-2,0.8-4,1.2-6l2-8.4H16l2,8.4c0.4,2,0.8,4,1.2,6
			l0,0c0.4-2,0.4-4,0.8-6l1.2-8.4h4.4l-3.2,18.8h-6l-1.6-8c-0.4-1.6-0.4-2.8-0.8-4.4l0,0c-0.4,1.6-0.4,2.8-0.8,4.4l-1.6,8H6
			L2.4,164.8z"/>
	</g>
	<g display="none">
		<path display="inline" fill="#00FF4E" d="M339.6,166.8H351.2v3.6H344v3.6h6v3.6h-6v4h7.6v3.601h-12V166.8z"/>
	</g>
</g>
</svg>
