<?xml version="1.0" encoding="iso-8859-1"?>
<!-- Generator: Adobe Illustrator 16.0.0, SVG Export Plug-In . SVG Version: 6.00 Build 0)  -->
<!DOCTYPE svg PUBLIC "-//W3C//DTD SVG 1.1//EN" "http://www.w3.org/Graphics/SVG/1.1/DTD/svg11.dtd">
<svg version="1.1" id="&#x56FE;&#x5C42;_1" xmlns="http://www.w3.org/2000/svg" xmlns:xlink="http://www.w3.org/1999/xlink" x="0px"
	 y="0px" width="1920px" height="1080px" viewBox="0 0 1920 1080" style="enable-background:new 0 0 1920 1080;"
	 xml:space="preserve">
<g style="display:none;">
	<g style="display:inline;">
		<g>
			<g>
				<g>
					<g>
						<path style="fill:#00FF4E;" d="M179.75,318.92c-76.749,0-139.17-62.422-139.17-139.17C40.579,103,103,40.579,179.75,40.579
							c76.749,0,139.17,62.421,139.17,139.17C318.82,256.498,256.398,318.92,179.75,318.92z M179.75,43.484
							c-75.146,0-136.365,61.119-136.365,136.365c0,75.146,61.119,136.365,136.365,136.365c75.146,0,136.365-61.119,136.365-136.365
							C316.114,104.704,254.896,43.484,179.75,43.484z"/>
					</g>
					<g>
						<path style="fill:#00FF4E;stroke:#FFFFFF;stroke-width:1.1284;stroke-miterlimit:10;" d="M180.05,319.121
							c-76.75,0-139.171-62.422-139.171-139.171S103.3,40.78,180.05,40.78c76.749,0,139.17,62.421,139.17,139.17
							C319.12,256.699,256.699,319.121,180.05,319.121z M180.05,43.685c-75.146,0-136.365,61.119-136.365,136.365
							c0,75.146,61.119,136.365,136.365,136.365c75.146,0,136.365-61.118,136.365-136.365
							C316.315,104.804,255.196,43.685,180.05,43.685z"/>
					</g>
				</g>
			</g>
		</g>
	</g>
</g>
<path style="display:none;fill:#00FF4E;" d="M180.05,27.353c0.702,0,1.202,0.802,1.202,1.704v26.351
	c0,0.902-0.601,1.703-1.202,1.703l0,0c-0.702,0-1.203-0.801-1.203-1.703V29.057C178.748,28.055,179.349,27.353,180.05,27.353
	L180.05,27.353z"/>
<path style="display:none;fill:#00FF4E;" d="M180.05,302.588c0.702,0,1.202,0.803,1.202,1.703v26.352
	c0,0.902-0.601,1.703-1.202,1.703l0,0c-0.702,0-1.203-0.801-1.203-1.703v-26.352C178.748,303.391,179.349,302.588,180.05,302.588
	L180.05,302.588z"/>
<path style="display:none;fill:#00FF4E;" d="M27.554,180.05c0-0.702,0.801-1.203,1.703-1.203h26.351
	c0.902,0,1.704,0.601,1.704,1.203l0,0c0,0.702-0.802,1.202-1.704,1.202H29.257C28.255,181.252,27.554,180.651,27.554,180.05
	L27.554,180.05z"/>
<path style="display:none;fill:#00FF4E;" d="M303.189,180.05c0-0.702,0.802-1.203,1.702-1.203h26.353c0.9,0,1.703,0.601,1.703,1.203
	l0,0c0,0.702-0.803,1.202-1.703,1.202h-26.353C303.991,181.252,303.189,180.651,303.189,180.05L303.189,180.05z"/>
<g style="display:none;">
	<path style="display:inline;fill:#00FF4E;" d="M0,170.532h4.709l1.203,8.617l0.801,6.012h0.101c0.4-2.004,0.701-4.008,1.102-6.012
		l1.904-8.617h3.807l2.004,8.617c0.401,1.904,0.701,4.008,1.102,6.012h0.1c0.201-2.004,0.501-4.008,0.702-6.012l1.202-8.617h4.309
		l-3.307,18.937h-5.711l-1.704-8.316c-0.3-1.503-0.601-3.006-0.701-4.409h-0.1c-0.201,1.403-0.501,3.006-0.701,4.409l-1.704,8.316
		H3.507L0,170.532z"/>
</g>
<g style="display:none;">
	<path style="display:inline;fill:#00FF4E;" d="M347.977,170.732H359.8v3.707h-7.313v3.407h6.212v3.707h-6.212v3.908h7.614v3.707
		h-12.022"/>
</g>
<path style="display:none;fill:#00FF4E;" d="M191.372,24.347h-5.511L173.838,6.713h-0.2v17.634h-5.01V0h5.511l12.023,17.634h0.2V0
	h5.01V24.347z"/>
<g style="display:none;">
	<path style="display:inline;fill:#00FF4E;" d="M168.628,356.493l3.006-2.604c2.304,1.703,5.411,2.905,8.517,2.905
		c3.908,0,6.111-1.403,6.111-3.407c0-2.204-2.203-2.905-5.109-3.907l-4.409-1.403c-3.106-1.002-6.513-2.805-6.513-6.312
		c0-3.808,4.409-6.714,10.521-6.714c3.707,0,7.314,1.203,9.719,3.107l-2.705,2.404c-2.004-1.303-4.209-2.205-7.114-2.205
		c-3.307,0-5.411,1.203-5.411,3.106c0,2.104,2.605,2.905,5.21,3.606l4.409,1.403c3.808,1.202,6.513,3.006,6.513,6.513
		c0,3.908-4.308,7.014-11.322,7.014C175.642,360,171.534,358.697,168.628,356.493z"/>
</g>
<rect y="0.322" style="opacity:0.3;fill:#00BF30;enable-background:new    ;" width="1920" height="1079.355"/>
</svg>
