<?xml version="1.0" encoding="utf-8"?>
<!-- Generator: Adobe Illustrator 21.0.0, SVG Export Plug-In . SVG Version: 6.00 Build 0)  -->
<svg version="1.1" id="图层_1" xmlns="http://www.w3.org/2000/svg" xmlns:xlink="http://www.w3.org/1999/xlink" x="0px" y="0px"
	 viewBox="0 0 359.3 359.3" style="enable-background:new 0 0 359.3 359.3;" xml:space="preserve">
<style type="text/css">
	.st0{display:none;}
	.st1{display:inline;}
	.st2{fill:#00FF4E;}
	.st3{fill:#00FF4E;stroke:#FFFFFF;stroke-width:1.1284;stroke-miterlimit:10;}
	.st4{display:none;fill:#00FF4E;}
	.st5{display:inline;fill:#00FF4E;}
	.st6{opacity:0.1;fill:#00FF4E;}
	.st7{opacity:0.6;fill:#00FF4E;}
	.st8{opacity:0.15;fill:#00FF4E;}
	.st9{opacity:0.45;fill:#00FF4E;}
	.st10{opacity:0.8;fill:#00FF4E;}
</style>
<g class="st0">
	<g>
		<g>
			<g class="st1">
				<g>
					<g>
						<path class="st2" d="M179.4,318.3c-76.6,0-138.9-62.3-138.9-138.9c0-76.6,62.3-138.9,138.9-138.9
							c76.6,0,138.9,62.3,138.9,138.9C318.2,256,255.9,318.3,179.4,318.3z M179.4,43.4c-75,0-136.1,61-136.1,136.1
							c0,75,61,136.1,136.1,136.1c75,0,136.1-61,136.1-136.1C315.5,104.5,254.4,43.4,179.4,43.4z"/>
					</g>
					<g>
						<path class="st3" d="M179.7,318.5c-76.6,0-138.9-62.3-138.9-138.9c0-76.6,62.3-138.9,138.9-138.9
							c76.6,0,138.9,62.3,138.9,138.9C318.5,256.2,256.2,318.5,179.7,318.5z M179.7,43.6c-75,0-136.1,61-136.1,136.1
							c0,75,61,136.1,136.1,136.1c75,0,136.1-61,136.1-136.1C315.7,104.6,254.7,43.6,179.7,43.6z"/>
					</g>
				</g>
			</g>
		</g>
	</g>
</g>
<path class="st4" d="M179.7,27.3c0.7,0,1.2,0.8,1.2,1.7v26.3c0,0.9-0.6,1.7-1.2,1.7l0,0c-0.7,0-1.2-0.8-1.2-1.7V29
	C178.4,28,179,27.3,179.7,27.3L179.7,27.3z"/>
<path class="st4" d="M179.7,302c0.7,0,1.2,0.8,1.2,1.7v26.3c0,0.9-0.6,1.7-1.2,1.7l0,0c-0.7,0-1.2-0.8-1.2-1.7v-26.3
	C178.4,302.8,179,302,179.7,302L179.7,302z"/>
<path class="st4" d="M27.5,179.7c0-0.7,0.8-1.2,1.7-1.2h26.3c0.9,0,1.7,0.6,1.7,1.2l0,0c0,0.7-0.8,1.2-1.7,1.2H29.2
	C28.2,180.9,27.5,180.3,27.5,179.7L27.5,179.7z"/>
<path class="st4" d="M302.6,179.7c0-0.7,0.8-1.2,1.7-1.2h26.3c0.9,0,1.7,0.6,1.7,1.2l0,0c0,0.7-0.8,1.2-1.7,1.2h-26.3
	C303.4,180.9,302.6,180.3,302.6,179.7L302.6,179.7z"/>
<g class="st0">
	<path class="st5" d="M0,170.2h4.7l1.2,8.6l0.8,6h0.1c0.4-2,0.7-4,1.1-6l1.9-8.6h3.8l2,8.6c0.4,1.9,0.7,4,1.1,6h0.1
		c0.2-2,0.5-4,0.7-6l1.2-8.6h4.3l-3.3,18.9h-5.7l-1.7-8.3c-0.3-1.5-0.6-3-0.7-4.4h-0.1c-0.2,1.4-0.5,3-0.7,4.4l-1.7,8.3H3.5L0,170.2
		z"/>
</g>
<g class="st0">
	<path class="st5" d="M347.3,170.4h11.8v3.7h-7.3v3.4h6.2v3.7h-6.2v3.9h7.6v3.7h-12"/>
</g>
<path class="st4" d="M191,24.3h-5.5l-12-17.6h-0.2v17.6h-5V0h5.5l12,17.6h0.2V0h5V24.3z"/>
<g class="st0">
	<path class="st5" d="M168.3,355.8l3-2.6c2.3,1.7,5.4,2.9,8.5,2.9c3.9,0,6.1-1.4,6.1-3.4c0-2.2-2.2-2.9-5.1-3.9l-4.4-1.4
		c-3.1-1-6.5-2.8-6.5-6.3c0-3.8,4.4-6.7,10.5-6.7c3.7,0,7.3,1.2,9.7,3.1l-2.7,2.4c-2-1.3-4.2-2.2-7.1-2.2c-3.3,0-5.4,1.2-5.4,3.1
		c0,2.1,2.6,2.9,5.2,3.6l4.4,1.4c3.8,1.2,6.5,3,6.5,6.5c0,3.9-4.3,7-11.3,7C175.3,359.3,171.2,358,168.3,355.8z"/>
</g>
<g>
	<g>
		<g>
			<g>
				<circle class="st6" cx="179.7" cy="179.7" r="133.2"/>
				<g>
					<g>
						<path class="st7" d="M179.4,51.5v22.7c29.1,0,55.5,11.8,74.6,30.9l16-16C246.8,65.8,214.7,51.5,179.4,51.5z"/>
						<path class="st8" d="M284.9,179.7h22.7l0,0c0-35.3-14.4-67.4-37.6-90.6l-16,16C273.1,124.2,284.9,150.6,284.9,179.7
							L284.9,179.7z"/>
						<path class="st8" d="M216.4,278.4c-11.5,4.3-24,6.8-37,6.8c-58.2,0-105.5-47.3-105.5-105.5H51.2
							c0,70.7,57.5,128.2,128.2,128.2c15.8,0,31-2.9,45-8.2L216.4,278.4z"/>
						<path class="st8" d="M105.6,104.4c19.1-18.7,45.1-30.3,73.8-30.3l0,0V51.5l0,0c-34.9,0-66.6,14-89.7,36.7L105.6,104.4z"/>
						<path class="st9" d="M51.2,179.7L51.2,179.7h22.7l0,0c0-29.5,12.2-56.1,31.7-75.3L89.7,88.2C65.9,111.5,51.2,143.9,51.2,179.7
							z"/>
						<path class="st10" d="M284.9,179.7c0,45.1-28.5,83.6-68.5,98.7l8,21.3c48.5-18.3,83.2-65.2,83.2-120H284.9z"/>
					</g>
				</g>
			</g>
			<circle class="st2" cx="179.4" cy="179.7" r="4.4"/>
		</g>
	</g>
</g>
</svg>
