<?xml version="1.0" encoding="iso-8859-1"?>
<!-- Generator: Adobe Illustrator 16.0.0, SVG Export Plug-In . SVG Version: 6.00 Build 0)  -->
<!DOCTYPE svg PUBLIC "-//W3C//DTD SVG 1.1//EN" "http://www.w3.org/Graphics/SVG/1.1/DTD/svg11.dtd">
<svg version="1.1" id="&#x56FE;&#x5C42;_1" xmlns="http://www.w3.org/2000/svg" xmlns:xlink="http://www.w3.org/1999/xlink" x="0px"
	 y="0px" width="360px" height="360px" viewBox="0 0 360 360" style="enable-background:new 0 0 360 360;" xml:space="preserve">
<g style="display:none;">
	<g style="display:inline;">
		<g>
			<g>
				<g>
					<g>
						<path style="fill:#00FF4E;" d="M179.75,318.92c-76.749,0-139.17-62.422-139.17-139.17C40.579,103,103,40.579,179.75,40.579
							c76.749,0,139.17,62.421,139.17,139.17C318.82,256.498,256.398,318.92,179.75,318.92z M179.75,43.484
							c-75.146,0-136.365,61.119-136.365,136.365c0,75.146,61.119,136.365,136.365,136.365c75.146,0,136.365-61.119,136.365-136.365
							C316.114,104.704,254.896,43.484,179.75,43.484z"/>
					</g>
					<g>
						<path style="fill:#00FF4E;stroke:#FFFFFF;stroke-width:1.1284;stroke-miterlimit:10;" d="M180.05,319.121
							c-76.75,0-139.171-62.422-139.171-139.171c0-76.749,62.421-139.17,139.171-139.17c76.749,0,139.17,62.421,139.17,139.17
							C319.12,256.699,256.699,319.121,180.05,319.121z M180.05,43.685c-75.146,0-136.365,61.119-136.365,136.365
							c0,75.146,61.119,136.365,136.365,136.365c75.146,0,136.365-61.118,136.365-136.365
							C316.315,104.804,255.196,43.685,180.05,43.685z"/>
					</g>
				</g>
			</g>
		</g>
	</g>
</g>
<path style="display:none;fill:#00FF4E;" d="M180.05,27.353c0.702,0,1.202,0.802,1.202,1.704v26.351
	c0,0.902-0.601,1.703-1.202,1.703l0,0c-0.702,0-1.203-0.801-1.203-1.703V29.057C178.748,28.055,179.349,27.353,180.05,27.353
	L180.05,27.353z"/>
<path style="display:none;fill:#00FF4E;" d="M180.05,302.588c0.702,0,1.202,0.803,1.202,1.703v26.352
	c0,0.902-0.601,1.703-1.202,1.703l0,0c-0.702,0-1.203-0.801-1.203-1.703v-26.352C178.748,303.391,179.349,302.588,180.05,302.588
	L180.05,302.588z"/>
<path style="display:none;fill:#00FF4E;" d="M27.554,180.05c0-0.702,0.801-1.203,1.703-1.203h26.351
	c0.902,0,1.704,0.601,1.704,1.203l0,0c0,0.702-0.802,1.202-1.704,1.202H29.257C28.255,181.252,27.554,180.651,27.554,180.05
	L27.554,180.05z"/>
<path style="display:none;fill:#00FF4E;" d="M303.189,180.05c0-0.702,0.802-1.203,1.703-1.203h26.352
	c0.901,0,1.703,0.601,1.703,1.203l0,0c0,0.702-0.802,1.202-1.703,1.202h-26.352C303.991,181.252,303.189,180.651,303.189,180.05
	L303.189,180.05z"/>
<g style="display:none;">
	<path style="display:inline;fill:#00FF4E;" d="M0,170.532h4.709l1.203,8.617l0.801,6.012h0.101c0.4-2.004,0.701-4.008,1.102-6.012
		l1.904-8.617h3.807l2.004,8.617c0.401,1.904,0.701,4.008,1.102,6.012h0.1c0.201-2.004,0.501-4.008,0.702-6.012l1.202-8.617h4.309
		l-3.307,18.937h-5.711l-1.704-8.316c-0.3-1.503-0.601-3.006-0.701-4.409h-0.1c-0.201,1.403-0.501,3.006-0.701,4.409l-1.704,8.316
		H3.507L0,170.532z"/>
</g>
<g style="display:none;">
	<path style="display:inline;fill:#00FF4E;" d="M347.977,170.732H359.8v3.707h-7.314v3.407h6.212v3.707h-6.212v3.908h7.615v3.707
		h-12.023"/>
</g>
<path style="display:none;fill:#00FF4E;" d="M191.372,24.347h-5.511L173.838,6.713h-0.2v17.634h-5.01V0h5.511l12.023,17.634h0.2V0
	h5.01V24.347z"/>
<g style="display:none;">
	<path style="display:inline;fill:#00FF4E;" d="M168.628,356.493l3.006-2.604c2.304,1.703,5.411,2.905,8.517,2.905
		c3.908,0,6.111-1.403,6.111-3.407c0-2.204-2.203-2.905-5.109-3.907l-4.409-1.403c-3.106-1.002-6.513-2.805-6.513-6.312
		c0-3.808,4.409-6.714,10.521-6.714c3.707,0,7.314,1.203,9.719,3.107l-2.705,2.404c-2.004-1.303-4.209-2.205-7.114-2.205
		c-3.307,0-5.411,1.203-5.411,3.106c0,2.104,2.605,2.905,5.21,3.606l4.409,1.403c3.808,1.202,6.513,3.006,6.513,6.513
		c0,3.908-4.308,7.014-11.322,7.014C175.642,360,171.534,358.697,168.628,356.493z"/>
</g>
<g>
	<path style="opacity:0.6;fill:#00FF85;enable-background:new    ;" d="M119.728,87.347c6.525-4.641,13.584-8.521,20.981-11.503
		l5.85,14.484c-6.244,2.531-12.234,5.794-17.775,9.731c-2.166,1.547-4.303,3.206-6.3,4.922l-10.181-11.841
		C114.666,91.144,117.169,89.175,119.728,87.347z"/>
	<path style="opacity:0.6;fill:#00FF85;enable-background:new    ;" d="M109.181,95.953l10.66,11.419
		c-6.919,6.469-12.685,13.978-17.156,22.331l-13.781-7.341C94.163,112.491,100.997,103.603,109.181,95.953z"/>
	<path style="opacity:0.6;fill:#00FF85;enable-background:new    ;" d="M144.591,74.381c10.519-3.741,21.543-5.738,32.766-5.85
		l0.197,15.609c-9.506,0.112-18.816,1.772-27.731,4.95L144.591,74.381z"/>
	<path style="fill:#00FF85;" d="M87.019,126.103l14.063,6.778c-4.106,8.522-6.75,17.634-7.903,27.056l-15.525-1.884
		C79.031,146.916,82.181,136.172,87.019,126.103z"/>
	<path style="opacity:0.6;fill:#00FF85;enable-background:new    ;" d="M181.575,68.56c11.193,0.309,22.162,2.447,32.653,6.356
		L208.8,89.569c-8.888-3.291-18.196-5.091-27.675-5.372L181.575,68.56z"/>
	<path style="fill:#00FF85;" d="M77.259,162.188l15.582,1.266c-0.76,9.478,0.028,18.928,2.362,28.068l-15.131,3.825
		C77.288,184.519,76.359,173.353,77.259,162.188z"/>
	<path style="opacity:0.6;fill:#00FF85;enable-background:new    ;" d="M218.109,76.435c10.35,4.331,19.828,10.293,28.182,17.719
		l-10.379,11.672c-7.059-6.272-15.103-11.334-23.85-14.991L218.109,76.435z"/>
	<path style="fill:#00FF85;" d="M81.169,199.396l14.962-4.472c2.7,9.028,6.862,17.55,12.375,25.313l0.112,0.141l-12.712,9.085
		l-0.141-0.169C89.269,220.125,84.347,210.084,81.169,199.396z"/>
	<path style="opacity:0.6;fill:#00FF85;enable-background:new    ;" d="M249.356,96.994c4.5,4.359,8.662,9.169,12.318,14.316
		c2.813,3.938,5.344,8.1,7.538,12.375l-13.895,7.172c-1.855-3.628-4.021-7.144-6.412-10.491c-3.094-4.359-6.609-8.438-10.435-12.122
		L249.356,96.994z"/>
	<path style="fill:#00FF85;" d="M110.728,223.247c5.822,7.509,12.797,13.922,20.7,19.125l-8.578,13.05
		c-9.337-6.131-17.55-13.725-24.441-22.584L110.728,223.247z"/>
	<path style="opacity:0.6;fill:#00FF85;enable-background:new    ;" d="M256.894,134.006l14.175-6.582
		c4.726,10.153,7.707,20.953,8.888,32.091l-15.553,1.631C263.419,151.725,260.888,142.584,256.894,134.006z"/>
	<path style="fill:#00FF85;" d="M134.409,244.229c8.1,4.865,16.932,8.324,26.213,10.321l-3.291,15.272
		c-10.969-2.363-21.375-6.441-30.965-12.179L134.409,244.229z"/>
	<path style="opacity:0.6;fill:#00FF85;enable-background:new    ;" d="M264.713,164.69l15.581-1.012
		c0.731,11.166-0.394,22.303-3.291,33.103l-15.075-4.05C264.375,183.563,265.331,174.141,264.713,164.69z"/>
</g>
<g>
	<path style="fill:#00FF85;" d="M171.956,235.341c0.703-0.507,1.604-0.76,2.531-0.647c15.159,1.885,30.375-1.996,42.862-10.855
		c12.15-8.635,20.7-21.375,24.075-35.888c0.45-1.94,2.391-3.15,4.331-2.7c1.941,0.45,3.15,2.391,2.7,4.331
		c-3.769,16.229-13.331,30.487-26.943,40.163c-13.95,9.928-30.966,14.23-47.925,12.149c-1.997-0.253-3.403-2.053-3.15-4.021
		C170.606,236.803,171.169,235.903,171.956,235.341z"/>
</g>
<g>
	<path style="fill:#00FF85;" d="M154.547,111.563c0.197-0.141,0.422-0.281,0.675-0.394c14.091-6.019,30.065-7.06,44.916-2.953
		c15.075,4.162,28.378,13.472,37.462,26.24c5.541,7.791,9.31,16.453,11.25,25.734c0.422,1.969-0.844,3.881-2.813,4.275
		c-1.969,0.394-3.881-0.844-4.274-2.813c-1.716-8.297-5.091-16.06-10.041-23.006c-16.509-23.203-47.475-31.95-73.631-20.813
		c-1.828,0.788-3.966-0.084-4.753-1.913C152.663,114.347,153.197,112.519,154.547,111.563z"/>
</g>
<g>
	<path style="fill:#00FF85;" d="M131.878,127.678c1.35-0.957,3.234-0.9,4.528,0.281c1.462,1.35,1.603,3.628,0.253,5.119
		c-19.097,21.065-20.981,53.185-4.472,76.388c4.753,6.665,10.659,12.206,17.55,16.509c1.688,1.041,2.222,3.291,1.182,4.979
		c-1.041,1.688-3.291,2.222-4.979,1.153c-7.706-4.781-14.315-10.997-19.631-18.45c-9.084-12.769-13.528-28.378-12.516-43.987
		c1.012-15.385,7.228-30.122,17.521-41.457C131.484,128.016,131.681,127.847,131.878,127.678z"/>
</g>
<g style="opacity:0.1;">
	<path style="fill:#00FF85;" d="M276.75,218.269c-2.475-0.872-3.74-3.6-2.869-6.047c0.872-2.446,3.572-3.74,6.047-2.868
		c2.476,0.871,3.741,3.571,2.869,6.047C281.925,217.875,279.225,219.141,276.75,218.269z"/>
	<path style="fill:#00FF85;" d="M256.528,250.416c-2.025-1.66-2.307-4.641-0.647-6.666c1.66-2.025,4.641-2.307,6.666-0.646
		c2.025,1.659,2.307,4.641,0.646,6.665C261.534,251.794,258.525,252.075,256.528,250.416z"/>
	<g>
		<path style="fill:#00FF85;" d="M268.031,235.229c-2.278-1.294-3.065-4.163-1.771-6.441c1.293-2.277,4.19-3.065,6.469-1.771
			c2.277,1.294,3.065,4.19,1.771,6.44C273.206,235.734,270.31,236.521,268.031,235.229z"/>
		<path style="opacity:0.4;fill:#00FF85;enable-background:new    ;" d="M242.55,263.381c-1.688-1.996-1.462-4.978,0.534-6.665
			c1.997-1.688,4.979-1.463,6.666,0.534s1.463,4.979-0.534,6.666S244.237,265.35,242.55,263.381z"/>
		<path style="opacity:0.4;fill:#00FF85;enable-background:new    ;" d="M226.519,273.703c-1.321-2.25-0.563-5.146,1.688-6.469
			s5.147-0.563,6.469,1.688c1.322,2.25,0.563,5.146-1.688,6.469S227.841,275.953,226.519,273.703z"/>
		<path style="opacity:0.4;fill:#00FF85;enable-background:new    ;" d="M208.969,281.1c-0.9-2.446,0.338-5.175,2.784-6.074
			c2.447-0.9,5.175,0.337,6.104,2.784c0.899,2.446-0.338,5.175-2.784,6.075C212.597,284.784,209.869,283.547,208.969,281.1z"/>
		<path style="opacity:0.4;fill:#00FF85;enable-background:new    ;" d="M190.378,285.318c-0.478-2.559,1.237-5.034,3.797-5.512
			c2.56-0.479,5.034,1.237,5.513,3.797c0.479,2.559-1.237,5.034-3.797,5.512C193.303,289.594,190.856,287.878,190.378,285.318z"/>
		<path style="opacity:0.4;fill:#00FF85;enable-background:new    ;" d="M171.337,286.247c-0.028-2.616,2.082-4.753,4.697-4.753
			c2.616-0.028,4.753,2.081,4.753,4.696c0.028,2.616-2.081,4.753-4.696,4.781C173.503,290.972,171.366,288.862,171.337,286.247z"/>
		<path style="opacity:0.4;fill:#00FF85;enable-background:new    ;" d="M152.438,283.856c0.422-2.588,2.869-4.304,5.456-3.882
			c2.588,0.422,4.303,2.869,3.881,5.457c-0.45,2.587-2.869,4.303-5.456,3.881S151.987,286.443,152.438,283.856z"/>
	</g>
</g>
<g style="opacity:0.3;">
	<path style="fill:#00FF4E;" d="M124.706,157.913h8.044c5.063,0,9.225,1.8,9.225,7.453c0,5.456-4.219,7.875-9.056,7.875h-2.7v7.622
		h-5.513V157.913z M132.609,168.881c2.672,0,3.966-1.266,3.966-3.516c0-2.306-1.491-3.122-4.135-3.122h-2.25v6.638H132.609z"/>
	<path style="fill:#00FF4E;" d="M144.815,169.275c0-7.509,4.247-11.784,10.519-11.784s10.519,4.275,10.519,11.784
		s-4.247,12.038-10.519,12.038C149.091,181.284,144.815,176.784,144.815,169.275z M160.228,169.275c0-4.444-1.884-7.059-4.894-7.059
		s-4.866,2.615-4.866,7.059c0,4.472,1.856,7.285,4.866,7.285C158.372,176.531,160.228,173.747,160.228,169.275z"/>
	<path style="fill:#00FF4E;" d="M167.878,157.913h5.653l1.462,10.462l0.928,7.284h0.112c0.422-2.447,0.9-4.894,1.35-7.284
		l2.334-10.462h4.612l2.419,10.462c0.45,2.334,0.872,4.81,1.322,7.284h0.141c0.281-2.475,0.59-4.894,0.871-7.284l1.491-10.462h5.231
		l-3.966,22.95h-6.947l-2.053-9.984c-0.366-1.744-0.675-3.6-0.9-5.344H181.8c-0.281,1.716-0.563,3.572-0.899,5.344l-1.997,9.984
		h-6.807L167.878,157.913z"/>
	<path style="fill:#00FF4E;" d="M198.928,157.913h14.541v4.556h-9.028v4.247h7.679v4.612h-7.679v4.866h9.366v4.613h-14.879V157.913z
		"/>
	<path style="fill:#00FF4E;" d="M230.737,180.862l-4.219-8.072h-2.644v8.072h-5.513v-22.95h8.409c4.895,0,8.973,1.659,8.973,7.228
		c0,3.375-1.575,5.513-3.938,6.638l5.118,9.084H230.737z M223.875,168.431h2.475c2.616,0,4.022-1.153,4.022-3.291
		s-1.378-2.869-4.022-2.869h-2.475V168.431z"/>
</g>
</svg>
