<?xml version="1.0" encoding="utf-8"?>
<!-- Generator: Adobe Illustrator 21.0.0, SVG Export Plug-In . SVG Version: 6.00 Build 0)  -->
<svg version="1.1" id="图层_1" xmlns="http://www.w3.org/2000/svg" xmlns:xlink="http://www.w3.org/1999/xlink" x="0px" y="0px"
	 viewBox="0 0 1280 1024" style="enable-background:new 0 0 1280 1024;" xml:space="preserve">
<style type="text/css">
	.st0{opacity:0.6;fill:#00FF85;}
	.st1{fill:#00FF85;}
	.st2{opacity:0.1;}
	.st3{opacity:0.4;fill:#00FF85;}
	.st4{opacity:0.3;}
	.st5{fill:#00FF4E;}
</style>
<g>
	<path class="st0" d="M425.7,171.9c23.2-16.5,48.3-30.3,74.6-40.9l20.8,51.5c-22.2,9-43.5,20.6-63.2,34.6
		c-7.7,5.5-15.3,11.4-22.4,17.5l-36.2-42.1C407.7,185.4,416.6,178.4,425.7,171.9z"/>
	<path class="st0" d="M388.2,202.5l37.9,40.6c-24.6,23-45.1,49.7-61,79.4l-49-26.1C334.8,261.3,359.1,229.7,388.2,202.5z"/>
	<path class="st0" d="M514.1,125.8c37.4-13.3,76.6-20.4,116.5-20.8l0.7,55.5c-33.8,0.4-66.9,6.3-98.6,17.6L514.1,125.8z"/>
	<path class="st1" d="M309.4,309.7l50,24.1c-14.6,30.3-24,62.7-28.1,96.2l-55.2-6.7C281,383.7,292.2,345.5,309.4,309.7z"/>
	<path class="st0" d="M645.6,105.1c39.8,1.1,78.8,8.7,116.1,22.6l-19.3,52.1c-31.6-11.7-64.7-18.1-98.4-19.1L645.6,105.1z"/>
	<path class="st1" d="M274.7,438l55.4,4.5c-2.7,33.7,0.1,67.3,8.4,99.8l-53.8,13.6C274.8,517.4,271.5,477.7,274.7,438z"/>
	<path class="st0" d="M775.5,133.1c36.8,15.4,70.5,36.6,100.2,63l-36.9,41.5c-25.1-22.3-53.7-40.3-84.8-53.3L775.5,133.1z"/>
	<path class="st1" d="M288.6,570.3l53.2-15.9c9.6,32.1,24.4,62.4,44,90l0.4,0.5L341,677.2l-0.5-0.6
		C317.4,644,299.9,608.3,288.6,570.3z"/>
	<path class="st0" d="M886.6,206.2c16,15.5,30.8,32.6,43.8,50.9c10,14,19,28.8,26.8,44l-49.4,25.5c-6.6-12.9-14.3-25.4-22.8-37.3
		c-11-15.5-23.5-30-37.1-43.1L886.6,206.2z"/>
	<path class="st1" d="M393.7,655.1c20.7,26.7,45.5,49.5,73.6,68l-30.5,46.4c-33.2-21.8-62.4-48.8-86.9-80.3L393.7,655.1z"/>
	<path class="st0" d="M913.4,337.8l50.4-23.4c16.8,36.1,27.4,74.5,31.6,114.1l-55.3,5.8C936.6,400.8,927.6,368.3,913.4,337.8z"/>
	<path class="st1" d="M477.9,729.7c28.8,17.3,60.2,29.6,93.2,36.7l-11.7,54.3c-39-8.4-76-22.9-110.1-43.3L477.9,729.7z"/>
	<path class="st0" d="M941.2,446.9l55.4-3.6c2.6,39.7-1.4,79.3-11.7,117.7l-53.6-14.4C940,514,943.4,480.5,941.2,446.9z"/>
</g>
<g>
	<path class="st1" d="M611.4,698.1c2.5-1.8,5.7-2.7,9-2.3c53.9,6.7,108-7.1,152.4-38.6c43.2-30.7,73.6-76,85.6-127.6
		c1.6-6.9,8.5-11.2,15.4-9.6c6.9,1.6,11.2,8.5,9.6,15.4c-13.4,57.7-47.4,108.4-95.8,142.8c-49.6,35.3-110.1,50.6-170.4,43.2
		c-7.1-0.9-12.1-7.3-11.2-14.3C606.6,703.3,608.6,700.1,611.4,698.1z"/>
</g>
<g>
	<path class="st1" d="M549.5,258c0.7-0.5,1.5-1,2.4-1.4c50.1-21.4,106.9-25.1,159.7-10.5c53.6,14.8,100.9,47.9,133.2,93.3
		c19.7,27.7,33.1,58.5,40,91.5c1.5,7-3,13.8-10,15.2c-7,1.4-13.8-3-15.2-10c-6.1-29.5-18.1-57.1-35.7-81.8
		c-58.7-82.5-168.8-113.6-261.8-74c-6.5,2.8-14.1-0.3-16.9-6.8C542.8,267.9,544.7,261.4,549.5,258z"/>
</g>
<g>
	<path class="st1" d="M468.9,315.3c4.8-3.4,11.5-3.2,16.1,1c5.2,4.8,5.7,12.9,0.9,18.2C418,409.4,411.3,523.6,470,606.1
		c16.9,23.7,37.9,43.4,62.4,58.7c6,3.7,7.9,11.7,4.2,17.7c-3.7,6-11.7,7.9-17.7,4.1c-27.4-17-50.9-39.1-69.8-65.6
		c-32.3-45.4-48.1-100.9-44.5-156.4c3.6-54.7,25.7-107.1,62.3-147.4C467.5,316.5,468.2,315.9,468.9,315.3z"/>
</g>
<g class="st2">
	<path class="st1" d="M984,637.4c-8.8-3.1-13.3-12.8-10.2-21.5c3.1-8.7,12.7-13.3,21.5-10.2c8.8,3.1,13.3,12.7,10.2,21.5
		C1002.4,636,992.8,640.5,984,637.4z"/>
	<path class="st1" d="M912.1,751.7c-7.2-5.9-8.2-16.5-2.3-23.7c5.9-7.2,16.5-8.2,23.7-2.3c7.2,5.9,8.2,16.5,2.3,23.7
		C929.9,756.6,919.2,757.6,912.1,751.7z"/>
	<g>
		<path class="st1" d="M953,697.7c-8.1-4.6-10.9-14.8-6.3-22.9c4.6-8.1,14.9-10.9,23-6.3c8.1,4.6,10.9,14.9,6.3,22.9
			C971.4,699.5,961.1,702.3,953,697.7z"/>
		<path class="st3" d="M862.4,797.8c-6-7.1-5.2-17.7,1.9-23.7c7.1-6,17.7-5.2,23.7,1.9c6,7.1,5.2,17.7-1.9,23.7
			C879,805.7,868.4,804.8,862.4,797.8z"/>
		<path class="st3" d="M805.4,834.5c-4.7-8-2-18.3,6-23c8-4.7,18.3-2,23,6c4.7,8,2,18.3-6,23C820.4,845.2,810.1,842.5,805.4,834.5z"
			/>
		<path class="st3" d="M743,860.8c-3.2-8.7,1.2-18.4,9.9-21.6c8.7-3.2,18.4,1.2,21.7,9.9c3.2,8.7-1.2,18.4-9.9,21.6
			C755.9,873.9,746.2,869.5,743,860.8z"/>
		<path class="st3" d="M676.9,875.8c-1.7-9.1,4.4-17.9,13.5-19.6c9.1-1.7,17.9,4.4,19.6,13.5c1.7,9.1-4.4,17.9-13.5,19.6
			C687.3,891,678.6,884.9,676.9,875.8z"/>
		<path class="st3" d="M609.2,879.1c-0.1-9.3,7.4-16.9,16.7-16.9c9.3-0.1,16.9,7.4,16.9,16.7c0.1,9.3-7.4,16.9-16.7,17
			C616.9,895.9,609.3,888.4,609.2,879.1z"/>
		<path class="st3" d="M542,870.6c1.5-9.2,10.2-15.3,19.4-13.8c9.2,1.5,15.3,10.2,13.8,19.4c-1.6,9.2-10.2,15.3-19.4,13.8
			C546.6,888.5,540.4,879.8,542,870.6z"/>
	</g>
</g>
<g class="st4">
	<path class="st5" d="M443.4,422.8H472c18,0,32.8,6.4,32.8,26.5c0,19.4-15,28-32.2,28H463v27.1h-19.6V422.8z M471.5,461.8
		c9.5,0,14.1-4.5,14.1-12.5c0-8.2-5.3-11.1-14.7-11.1h-8v23.6H471.5z"/>
	<path class="st5" d="M514.9,463.2c0-26.7,15.1-41.9,37.4-41.9c22.3,0,37.4,15.2,37.4,41.9c0,26.7-15.1,42.8-37.4,42.8
		C530.1,505.9,514.9,489.9,514.9,463.2z M569.7,463.2c0-15.8-6.7-25.1-17.4-25.1c-10.7,0-17.3,9.3-17.3,25.1
		c0,15.9,6.6,25.9,17.3,25.9C563.1,489,569.7,479.1,569.7,463.2z"/>
	<path class="st5" d="M596.9,422.8H617l5.2,37.2l3.3,25.9h0.4c1.5-8.7,3.2-17.4,4.8-25.9l8.3-37.2h16.4L664,460
		c1.6,8.3,3.1,17.1,4.7,25.9h0.5c1-8.8,2.1-17.4,3.1-25.9l5.3-37.2h18.6l-14.1,81.6h-24.7l-7.3-35.5c-1.3-6.2-2.4-12.8-3.2-19h-0.5
		c-1,6.1-2,12.7-3.2,19l-7.1,35.5h-24.2L596.9,422.8z"/>
	<path class="st5" d="M707.3,422.8H759V439h-32.1v15.1h27.3v16.4h-27.3v17.3h33.3v16.4h-52.9V422.8z"/>
	<path class="st5" d="M820.4,504.4l-15-28.7H796v28.7h-19.6v-81.6h29.9c17.4,0,31.9,5.9,31.9,25.7c0,12-5.6,19.6-14,23.6l18.2,32.3
		H820.4z M796,460.2h8.8c9.3,0,14.3-4.1,14.3-11.7s-4.9-10.2-14.3-10.2H796V460.2z"/>
</g>
</svg>
