<?xml version="1.0" encoding="utf-8"?>
<!-- Generator: Adobe Illustrator 16.0.0, SVG Export Plug-In . SVG Version: 6.00 Build 0)  -->
<!DOCTYPE svg PUBLIC "-//W3C//DTD SVG 1.1//EN" "http://www.w3.org/Graphics/SVG/1.1/DTD/svg11.dtd">
<svg version="1.1" id="图层_1" xmlns="http://www.w3.org/2000/svg" xmlns:xlink="http://www.w3.org/1999/xlink" x="0px" y="0px"
	 width="171px" height="48.405px" viewBox="0 0 171 48.405" enable-background="new 0 0 171 48.405" xml:space="preserve">
<g>
	<defs>
		<rect id="SVGID_1_" x="18.936" y="13.7" width="138.013" height="25.019"/>
	</defs>
	<clipPath id="SVGID_2_">
		<use xlink:href="#SVGID_1_"  overflow="visible"/>
	</clipPath>
	<path clip-path="url(#SVGID_2_)" fill="#FFFFFF" d="M50.775,17.214l-0.038,0.062c-0.498,0.798-0.977,1.576-1.443,2.332
		c0.865-0.176,1.712-0.336,2.525-0.481c0.174-0.286,0.348-0.565,0.53-0.856l0.457-0.746c0.307-0.498,0.343-1.037,0.102-1.461
		c-0.273-0.493-0.807-0.736-1.58-0.736H41.25c-0.304,0.549-0.535,1.222-0.634,1.886H50.775z"/>
	<path clip-path="url(#SVGID_2_)" fill="#FFFFFF" d="M40.473,33.879c0.013,0,0.029,0.01,0.044,0.01
		c1.031,0.311,1.54,0.472,1.603,0.918c1.413-2.286,3.896-6.308,8.2-13.261c-0.981,0.321-1.932,0.652-2.839,0.984
		C44.266,27.734,41.925,31.521,40.473,33.879"/>
	<path clip-path="url(#SVGID_2_)" fill="#FFFFFF" d="M39.364,35.677c-0.195,0.316-0.348,0.571-0.458,0.747
		c-0.171-0.28-0.347-0.555-0.521-0.845c-0.915-0.104-1.769-0.292-2.561-0.545c0.577,0.934,1.106,1.788,1.556,2.52l0.078,0.13
		c0.161,0.253,0.646,1.036,1.485,1.036c0.829,0,1.252-0.746,1.413-1.031c0.042-0.078,0.335-0.555,1.266-2.067
		c-0.289,0.093-0.678,0.093-1.115,0.093C40.117,35.714,39.738,35.699,39.364,35.677"/>
	<path clip-path="url(#SVGID_2_)" fill="#FFFFFF" d="M30.288,22.484c-1.528-2.472-2.699-4.374-3.25-5.27h8.671
		c0.61-0.861,1.304-1.481,2.086-1.886H26.375c-0.275,0-1.108,0-1.497,0.658c-0.371,0.632-0.021,1.254,0.167,1.591
		c0.087,0.156,1.551,2.528,3.496,5.679c0.114-0.046,0.229-0.092,0.335-0.145C29.408,22.884,29.939,22.655,30.288,22.484"/>
	<path clip-path="url(#SVGID_2_)" fill="#FFFFFF" d="M35.657,32.065c-3.117-0.021-11.613-0.839-13.452-2.151
		c-0.759-0.538,2.252-2.078,3.459-2.098c2.359-0.031,2.839-0.498,3.044-0.913c0.208-0.415,1.894-0.559,2.279,2.037
		c-0.04-1.239-0.112-2.037,0.355-2.125c0.465-0.088,0.354,1.498,1.123,1.861c-0.414-0.798-0.632-1.399-0.219-2.021
		c0.413-0.616,0.896,0.689,1.192,1.783c0.07-0.736,0.089-1.191,0.416-1.564c0.416-0.478,1.369-0.648,1.928,0.943
		c0.552,1.596,0.72-0.088,0.912-0.57c0.805-2.032,10.463-6.043,20.634-8.344c-5.558,0.684-18.419,3.456-23.653,5.078
		c3.597-1.829,15.684-4.395,15.221-4.317c-4.737,0.835-7.755,0.416-8.449-0.169C39.257,18.5,40,15.099,41.777,13.7
		c0.098-0.072-4.993,2.468-8.13,6.976c-0.691,0.994-1.462,1.518-2.504,2.026c-0.691,0.342-6.46,2.286-11.922,6.628
		c-1.873,1.482,6.029,3.182,10.67,3.125c1.452-0.016,2.448-0.213,3.017,0.264c1.569,1.317,3.96,2.331,7.6,2.331
		c3.54,0-3.782-0.911-4.688-2.87C35.768,32.065,35.714,32.065,35.657,32.065 M26.187,26.557c0.516-0.005,1.483-0.264,2.01-0.938
		c0.247-0.311,0.335-0.518,0.335-0.518s0,0.653-0.216,0.985c-0.394,0.611-0.942,1.098-2.047,0.865
		c-0.496-0.108-0.797-0.482-0.797-0.482S25.929,26.557,26.187,26.557"/>
	<path clip-path="url(#SVGID_2_)" fill="#FFFFFF" d="M58.656,29.589v4.456c0,0.197,0.047,0.352,0.142,0.456
		c0.097,0.109,0.258,0.197,0.486,0.255v0.315h-4.2v-0.315c0.239-0.068,0.402-0.151,0.496-0.255c0.091-0.109,0.135-0.259,0.135-0.456
		V22.676c0-0.203-0.044-0.358-0.135-0.467c-0.094-0.103-0.256-0.187-0.496-0.249v-0.322h8.423c1.023,0,1.836,0.063,2.439,0.177
		c0.603,0.119,1.125,0.332,1.574,0.622c0.517,0.343,0.906,0.808,1.165,1.388c0.241,0.561,0.363,1.167,0.363,1.809
		c0,2.192-1.221,3.472-3.659,3.845l2.613,3.71c0.461,0.647,0.797,1.067,1.013,1.254c0.209,0.187,0.475,0.285,0.784,0.312v0.315
		h-4.865v-0.315c0.335-0.052,0.504-0.171,0.504-0.358c0-0.114-0.156-0.404-0.463-0.855l-2.727-3.953H58.656z M58.656,27.376h4.535
		c0.671,0,1.144-0.015,1.421-0.057c0.274-0.042,0.527-0.125,0.759-0.25c0.498-0.269,0.75-0.75,0.75-1.45
		c0-0.705-0.253-1.191-0.75-1.461c-0.237-0.13-0.489-0.213-0.754-0.249c-0.267-0.036-0.743-0.052-1.426-0.052h-4.535V27.376z"/>
	<path clip-path="url(#SVGID_2_)" fill="#FFFFFF" d="M77.069,23.815c1.756,0,3.222,0.446,4.393,1.338
		c1.401,1.078,2.101,2.575,2.101,4.493c0,1.808-0.7,3.249-2.101,4.316c-1.158,0.896-2.616,1.341-4.372,1.341
		c-1.756,0-3.216-0.445-4.373-1.341c-1.41-1.068-2.111-2.539-2.111-4.405c0-1.875,0.701-3.347,2.111-4.404
		C73.882,24.283,75.334,23.837,77.069,23.815 M77.08,25.905c-1.139,0-2.068,0.363-2.785,1.092c-0.664,0.68-0.997,1.534-0.997,2.561
		c0,1.026,0.333,1.876,0.997,2.56c0.717,0.736,1.649,1.104,2.795,1.104c1.138,0,2.068-0.368,2.781-1.104
		c0.668-0.673,1-1.513,1-2.507c0-1.079-0.332-1.954-1-2.613C79.151,26.278,78.217,25.915,77.08,25.905"/>
	<path clip-path="url(#SVGID_2_)" fill="#FFFFFF" d="M95.398,29.148c0.545,0.248,0.945,0.498,1.2,0.75
		c0.483,0.467,0.722,1.105,0.722,1.907c0,1.068-0.408,1.902-1.223,2.488c-0.723,0.514-1.721,0.777-2.988,0.777h-7.86v-0.278
		c0.229-0.063,0.393-0.146,0.488-0.255c0.097-0.108,0.143-0.269,0.143-0.471V25.06c0-0.208-0.046-0.363-0.138-0.466
		c-0.093-0.104-0.257-0.196-0.494-0.264v-0.275h7.731c1.354,0,2.348,0.239,2.979,0.725c0.671,0.508,1.005,1.213,1.005,2.104
		c0,0.529-0.117,0.954-0.35,1.29C96.382,28.505,95.974,28.832,95.398,29.148 M88.524,28.179h4.014c0.629,0,1.076-0.077,1.341-0.238
		c0.262-0.161,0.392-0.435,0.392-0.829c0-0.389-0.127-0.664-0.387-0.824c-0.263-0.16-0.71-0.237-1.346-0.237h-4.014V28.179z
		 M88.524,33.071h4.11c1.33,0,1.995-0.482,1.995-1.441c0-0.963-0.666-1.451-1.995-1.451h-4.11V33.071z"/>
	<path clip-path="url(#SVGID_2_)" fill="#FFFFFF" d="M105.144,23.815c1.756,0,3.221,0.446,4.393,1.338
		c1.4,1.078,2.102,2.575,2.102,4.493c0,1.808-0.702,3.249-2.102,4.316c-1.159,0.896-2.615,1.341-4.375,1.341
		c-1.756,0-3.213-0.445-4.369-1.341c-1.411-1.068-2.112-2.539-2.112-4.405c0-1.875,0.702-3.347,2.112-4.404
		C101.957,24.283,103.405,23.837,105.144,23.815 M105.154,25.905c-1.138,0-2.067,0.363-2.784,1.092
		c-0.665,0.68-0.998,1.534-0.998,2.561c0,1.026,0.333,1.876,0.998,2.56c0.717,0.736,1.649,1.104,2.792,1.104
		c1.14,0,2.07-0.368,2.788-1.104c0.664-0.673,0.994-1.513,0.994-2.507c0-1.079-0.33-1.954-0.994-2.613
		C107.224,26.278,106.292,25.915,105.154,25.905"/>
	<path clip-path="url(#SVGID_2_)" fill="#FFFFFF" d="M127.103,22.78l-1.608,3.161l-0.277-0.155c0.008-0.069,0.013-0.12,0.013-0.156
		c0-0.228-0.192-0.467-0.574-0.721c-1.169-0.813-2.543-1.218-4.123-1.218c-0.696,0-1.309,0.083-1.844,0.25
		c-0.386,0.135-0.701,0.332-0.94,0.591c-0.239,0.264-0.361,0.549-0.361,0.86c0,0.498,0.307,0.845,0.919,1.026
		c0.313,0.092,0.99,0.191,2.031,0.3l1.549,0.156c0.917,0.093,1.665,0.228,2.231,0.404c0.569,0.166,1.075,0.404,1.515,0.715
		c0.446,0.32,0.8,0.746,1.06,1.269c0.26,0.523,0.39,1.083,0.39,1.674c0,0.948-0.306,1.788-0.917,2.518
		c-0.551,0.669-1.411,1.166-2.571,1.488c-0.871,0.242-1.8,0.362-2.793,0.362c-1.782,0-3.541-0.424-5.275-1.28
		c-0.369-0.166-0.587-0.254-0.66-0.254c-0.085,0-0.221,0.067-0.405,0.218l-0.286-0.15l1.457-3.295l0.289,0.14v0.129
		c0,0.296,0.14,0.565,0.423,0.818c0.429,0.373,1.089,0.706,1.982,0.98s1.743,0.409,2.543,0.409c0.876,0,1.621-0.145,2.239-0.44
		c0.343-0.161,0.615-0.378,0.817-0.648c0.206-0.275,0.307-0.559,0.307-0.849c0-0.446-0.24-0.768-0.72-0.954
		c-0.334-0.135-1.013-0.254-2.031-0.362l-1.52-0.16c-1.019-0.104-1.737-0.203-2.158-0.296c-0.421-0.099-0.842-0.249-1.262-0.456
		c-0.598-0.301-1.071-0.746-1.41-1.332c-0.31-0.534-0.463-1.146-0.463-1.835c0-1.134,0.393-2.072,1.175-2.813
		c1.023-0.98,2.561-1.467,4.613-1.467c0.859,0,1.665,0.088,2.405,0.264c0.744,0.171,1.67,0.493,2.782,0.964
		c0.382,0.146,0.616,0.224,0.699,0.224c0.14,0,0.302-0.078,0.483-0.224L127.103,22.78z"/>
	<path clip-path="url(#SVGID_2_)" fill="#FFFFFF" d="M133.161,30.386v2.685h7.011c0.206,0,0.362-0.046,0.471-0.135
		c0.108-0.088,0.193-0.254,0.258-0.493h0.275v3.255h-0.275c-0.06-0.228-0.145-0.39-0.256-0.488c-0.112-0.093-0.268-0.14-0.474-0.14
		h-10.284v-0.278c0.229-0.063,0.392-0.146,0.489-0.255c0.093-0.108,0.143-0.269,0.143-0.471V25.06c0-0.208-0.047-0.363-0.138-0.466
		c-0.094-0.104-0.257-0.196-0.494-0.264v-0.275h9.979c0.21,0,0.369-0.046,0.479-0.14c0.109-0.094,0.194-0.254,0.26-0.493h0.266
		v3.255h-0.266c-0.065-0.239-0.151-0.404-0.26-0.492c-0.11-0.088-0.269-0.134-0.479-0.134h-6.707v2.418h4.162
		c0.204,0,0.36-0.046,0.47-0.135c0.107-0.093,0.198-0.258,0.27-0.497h0.265v3.177h-0.265c-0.067-0.229-0.153-0.389-0.262-0.487
		c-0.107-0.093-0.266-0.14-0.478-0.14H133.161z"/>
	<path clip-path="url(#SVGID_2_)" fill="#FFFFFF" d="M152.222,32.314h-5.078l-0.572,1.202c-0.14,0.285-0.208,0.514-0.208,0.674
		c0,0.321,0.211,0.519,0.632,0.602v0.278h-4.057v-0.278c0.249-0.037,0.433-0.114,0.556-0.229c0.122-0.104,0.265-0.331,0.428-0.653
		l4.034-8.146c0.151-0.311,0.226-0.58,0.226-0.809c0-0.269-0.185-0.476-0.55-0.626v-0.275h4.288v0.275
		c-0.361,0.14-0.543,0.368-0.543,0.668c0,0.218,0.08,0.481,0.25,0.798l4.179,7.897c0.231,0.426,0.41,0.705,0.542,0.83
		c0.13,0.134,0.33,0.218,0.6,0.27v0.278h-4.512v-0.278c0.426-0.073,0.641-0.27,0.641-0.597c0-0.202-0.083-0.451-0.246-0.757
		L152.222,32.314z M151.426,30.77l-1.808-3.544l-1.722,3.544H151.426z"/>
</g>
<g>
	<path fill="#FFFFFF" d="M1878.896,11.099c0,1.617-2.162,2.928-4.828,2.928h-42.558c-2.668,0-4.83-1.311-4.83-2.928l0,0
		c0-1.623,2.162-2.939,4.83-2.939h42.558C1876.734,8.16,1878.896,9.477,1878.896,11.099L1878.896,11.099z"/>
	<path fill="#FFFFFF" d="M1878.896,26.117c0,1.617-2.162,2.933-4.828,2.933h-42.558c-2.668,0-4.83-1.316-4.83-2.933l0,0
		c0-1.622,2.162-2.934,4.83-2.934h42.558C1876.734,23.183,1878.896,24.495,1878.896,26.117L1878.896,26.117z"/>
	<path fill="#FFFFFF" d="M1878.896,40.201c0,1.617-2.162,2.934-4.828,2.934h-42.558c-2.668,0-4.83-1.317-4.83-2.934l0,0
		c0-1.616,2.162-2.933,4.83-2.933h42.558C1876.734,37.269,1878.896,38.585,1878.896,40.201L1878.896,40.201z"/>
</g>
</svg>
