<?xml version="1.0" encoding="utf-8"?>
<!-- Generator: Adobe Illustrator 16.0.0, SVG Export Plug-In . SVG Version: 6.00 Build 0)  -->
<!DOCTYPE svg PUBLIC "-//W3C//DTD SVG 1.1//EN" "http://www.w3.org/Graphics/SVG/1.1/DTD/svg11.dtd">
<svg version="1.1" id="图层_1" xmlns="http://www.w3.org/2000/svg" xmlns:xlink="http://www.w3.org/1999/xlink" x="0px" y="0px"
	 width="308px" height="308px" viewBox="0 0 308 308" enable-background="new 0 0 308 308" xml:space="preserve">
<g>
	<defs>
		<rect id="SVGID_1_" x="-12.451" y="-787.17" width="137.958" height="25.002"/>
	</defs>
	<clipPath id="SVGID_2_">
		<use xlink:href="#SVGID_1_"  overflow="visible"/>
	</clipPath>
	<path clip-path="url(#SVGID_2_)" fill="#FFFFFF" d="M19.375-783.659l-0.038,0.062c-0.498,0.797-0.976,1.575-1.443,2.331
		c0.865-0.176,1.711-0.336,2.524-0.481c0.174-0.285,0.348-0.565,0.53-0.855l0.457-0.745c0.307-0.498,0.343-1.037,0.102-1.46
		c-0.273-0.492-0.806-0.736-1.579-0.736H9.854c-0.304,0.549-0.535,1.222-0.634,1.885H19.375z"/>
	<path clip-path="url(#SVGID_2_)" fill="#FFFFFF" d="M9.077-767.004c0.013,0,0.029,0.01,0.044,0.01
		c1.031,0.311,1.539,0.471,1.602,0.917c1.412-2.285,3.895-6.303,8.197-13.252c-0.981,0.321-1.931,0.652-2.838,0.984
		C12.869-773.146,10.529-769.361,9.077-767.004"/>
	<path clip-path="url(#SVGID_2_)" fill="#FFFFFF" d="M7.968-765.208c-0.195,0.316-0.348,0.57-0.458,0.747
		c-0.171-0.279-0.347-0.554-0.521-0.844c-0.914-0.104-1.768-0.291-2.56-0.545c0.577,0.933,1.106,1.787,1.556,2.518l0.078,0.129
		c0.161,0.253,0.646,1.035,1.485,1.035c0.829,0,1.251-0.745,1.412-1.03c0.042-0.077,0.335-0.554,1.265-2.066
		c-0.288,0.093-0.677,0.093-1.114,0.093C8.722-765.171,8.342-765.187,7.968-765.208"/>
	<path clip-path="url(#SVGID_2_)" fill="#FFFFFF" d="M-1.104-778.393c-1.527-2.47-2.697-4.371-3.249-5.267h8.667
		c0.61-0.86,1.303-1.48,2.085-1.885H-5.015c-0.275,0-1.108,0-1.496,0.658c-0.371,0.631-0.021,1.253,0.167,1.589
		c0.087,0.156,1.55,2.527,3.495,5.675c0.114-0.046,0.229-0.092,0.335-0.145C-1.984-777.993-1.452-778.221-1.104-778.393"/>
	<path clip-path="url(#SVGID_2_)" fill="#FFFFFF" d="M4.263-768.817c-3.115-0.021-11.609-0.838-13.447-2.149
		c-0.758-0.538,2.251-2.076,3.458-2.096c2.358-0.031,2.838-0.498,3.043-0.912c0.208-0.415,1.893-0.559,2.278,2.036
		c-0.04-1.238-0.112-2.036,0.355-2.124c0.464-0.088,0.353,1.497,1.122,1.86c-0.414-0.797-0.632-1.398-0.219-2.021
		c0.413-0.616,0.896,0.689,1.191,1.782c0.07-0.735,0.089-1.19,0.416-1.563c0.415-0.477,1.368-0.647,1.927,0.943
		c0.552,1.595,0.72-0.088,0.911-0.57c0.805-2.03,10.459-6.039,20.626-8.338c-5.556,0.683-18.412,3.454-23.644,5.075
		c3.596-1.828,15.678-4.392,15.215-4.314c-4.736,0.834-7.752,0.415-8.446-0.169c-1.189-0.995-0.446-4.393,1.33-5.791
		c0.098-0.072-4.991,2.466-8.127,6.971c-0.691,0.994-1.462,1.517-2.503,2.025c-0.691,0.341-6.458,2.284-11.918,6.624
		c-1.872,1.481,6.027,3.179,10.667,3.123c1.452-0.016,2.447-0.212,3.015,0.264c1.568,1.316,3.959,2.33,7.597,2.33
		c3.539,0-3.781-0.911-4.687-2.868C4.374-768.817,4.32-768.817,4.263-768.817 M-5.204-774.322c0.516-0.005,1.482-0.264,2.009-0.937
		c0.247-0.311,0.335-0.518,0.335-0.518s0,0.653-0.216,0.984c-0.394,0.61-0.942,1.097-2.046,0.864
		c-0.496-0.108-0.797-0.482-0.797-0.482S-5.461-774.322-5.204-774.322"/>
	<path clip-path="url(#SVGID_2_)" fill="#FFFFFF" d="M27.253-771.292v4.453c0,0.197,0.047,0.352,0.142,0.456
		c0.097,0.109,0.257,0.197,0.486,0.254v0.315h-4.198v-0.315c0.239-0.068,0.401-0.15,0.495-0.254
		c0.091-0.109,0.135-0.259,0.135-0.456V-778.2c0-0.203-0.044-0.358-0.135-0.467c-0.094-0.103-0.256-0.187-0.495-0.249v-0.322h8.42
		c1.023,0,1.835,0.063,2.438,0.177c0.603,0.119,1.124,0.332,1.573,0.622c0.517,0.342,0.906,0.808,1.164,1.387
		c0.241,0.56,0.362,1.166,0.362,1.808c0,2.191-1.22,3.469-3.658,3.842l2.612,3.708c0.461,0.647,0.797,1.066,1.013,1.253
		c0.209,0.187,0.475,0.285,0.784,0.311v0.315h-4.863v-0.315c0.334-0.052,0.503-0.171,0.503-0.358c0-0.114-0.156-0.404-0.462-0.854
		l-2.726-3.951H27.253z M27.253-773.504h4.533c0.671,0,1.143-0.015,1.421-0.057c0.274-0.042,0.527-0.124,0.758-0.25
		c0.498-0.269,0.75-0.75,0.75-1.449c0-0.705-0.253-1.19-0.75-1.46c-0.236-0.13-0.489-0.213-0.753-0.249
		c-0.267-0.036-0.743-0.052-1.426-0.052h-4.533V-773.504z"/>
	<path clip-path="url(#SVGID_2_)" fill="#FFFFFF" d="M45.659-777.062c1.755,0,3.22,0.446,4.391,1.337c1.4,1.077,2.1,2.574,2.1,4.49
		c0,1.807-0.7,3.247-2.1,4.313c-1.158,0.896-2.615,1.341-4.37,1.341c-1.755,0-3.215-0.445-4.371-1.341
		c-1.41-1.067-2.111-2.537-2.111-4.402c0-1.874,0.701-3.345,2.111-4.401C42.474-776.595,43.925-777.041,45.659-777.062
		 M45.67-774.974c-1.138,0-2.067,0.363-2.784,1.092c-0.664,0.679-0.997,1.533-0.997,2.559s0.333,1.875,0.997,2.558
		c0.717,0.736,1.648,1.104,2.794,1.104c1.138,0,2.067-0.368,2.78-1.104c0.668-0.673,1-1.512,1-2.506c0-1.078-0.332-1.953-1-2.611
		C47.74-774.601,46.807-774.964,45.67-774.974"/>
	<path clip-path="url(#SVGID_2_)" fill="#FFFFFF" d="M63.98-771.732c0.545,0.248,0.945,0.498,1.199,0.75
		c0.483,0.467,0.722,1.104,0.722,1.906c0,1.068-0.408,1.901-1.222,2.486c-0.723,0.513-1.72,0.776-2.987,0.776h-7.856v-0.278
		c0.229-0.063,0.393-0.146,0.488-0.255c0.097-0.108,0.143-0.269,0.143-0.471v-9c0-0.207-0.046-0.362-0.138-0.466
		c-0.093-0.104-0.257-0.196-0.493-0.264v-0.274h7.728c1.353,0,2.347,0.238,2.978,0.725c0.67,0.508,1.005,1.212,1.005,2.103
		c0,0.528-0.117,0.953-0.35,1.289C64.965-772.375,64.557-772.049,63.98-771.732 M57.109-772.701h4.012
		c0.628,0,1.075-0.077,1.34-0.238c0.262-0.161,0.392-0.435,0.392-0.829c0-0.389-0.127-0.663-0.386-0.824
		c-0.263-0.16-0.71-0.237-1.346-0.237h-4.012V-772.701z M57.109-767.812h4.108c1.329,0,1.994-0.482,1.994-1.44
		c0-0.963-0.665-1.45-1.994-1.45h-4.108V-767.812z"/>
	<path clip-path="url(#SVGID_2_)" fill="#FFFFFF" d="M73.723-777.062c1.755,0,3.22,0.446,4.391,1.337
		c1.399,1.077,2.101,2.574,2.101,4.49c0,1.807-0.702,3.247-2.101,4.313c-1.159,0.896-2.614,1.341-4.373,1.341
		c-1.756,0-3.212-0.445-4.367-1.341c-1.41-1.067-2.111-2.537-2.111-4.402c0-1.874,0.701-3.345,2.111-4.401
		C70.537-776.595,71.985-777.041,73.723-777.062 M73.733-774.974c-1.138,0-2.067,0.363-2.783,1.092
		c-0.665,0.679-0.997,1.533-0.997,2.559s0.332,1.875,0.997,2.558c0.716,0.736,1.648,1.104,2.791,1.104
		c1.14,0,2.069-0.368,2.787-1.104c0.664-0.673,0.994-1.512,0.994-2.506c0-1.078-0.33-1.953-0.994-2.611
		C75.802-774.601,74.871-774.964,73.733-774.974"/>
	<path clip-path="url(#SVGID_2_)" fill="#FFFFFF" d="M95.673-778.097l-1.607,3.159l-0.277-0.155c0.008-0.068,0.013-0.12,0.013-0.156
		c0-0.228-0.192-0.467-0.574-0.72c-1.168-0.813-2.542-1.217-4.122-1.217c-0.695,0-1.308,0.083-1.843,0.25
		c-0.386,0.135-0.701,0.332-0.939,0.59c-0.239,0.264-0.361,0.548-0.361,0.859c0,0.498,0.307,0.844,0.919,1.026
		c0.313,0.092,0.989,0.191,2.03,0.3l1.548,0.156c0.917,0.093,1.664,0.228,2.23,0.404c0.569,0.166,1.075,0.404,1.514,0.715
		c0.446,0.32,0.8,0.746,1.059,1.269c0.26,0.523,0.39,1.082,0.39,1.673c0,0.947-0.306,1.787-0.917,2.516
		c-0.551,0.668-1.41,1.166-2.57,1.487c-0.871,0.242-1.8,0.362-2.792,0.362c-1.781,0-3.539-0.424-5.273-1.279
		c-0.369-0.166-0.587-0.254-0.66-0.254c-0.085,0-0.221,0.067-0.405,0.217l-0.286-0.15l1.456-3.293l0.289,0.14v0.129
		c0,0.295,0.14,0.564,0.423,0.818c0.429,0.373,1.088,0.705,1.981,0.979c0.893,0.275,1.742,0.409,2.542,0.409
		c0.875,0,1.62-0.145,2.238-0.44c0.343-0.161,0.615-0.378,0.817-0.648c0.206-0.274,0.307-0.559,0.307-0.849
		c0-0.446-0.239-0.767-0.719-0.953c-0.334-0.135-1.013-0.254-2.03-0.362l-1.52-0.16c-1.018-0.104-1.737-0.203-2.158-0.295
		c-0.42-0.099-0.841-0.249-1.262-0.456c-0.598-0.301-1.07-0.746-1.409-1.331c-0.31-0.534-0.463-1.145-0.463-1.833
		c0-1.133,0.393-2.071,1.174-2.812c1.023-0.979,2.56-1.466,4.611-1.466c0.859,0,1.665,0.088,2.404,0.264
		c0.744,0.171,1.67,0.492,2.781,0.964c0.382,0.146,0.616,0.223,0.699,0.223c0.14,0,0.301-0.078,0.483-0.223L95.673-778.097z"/>
	<path clip-path="url(#SVGID_2_)" fill="#FFFFFF" d="M101.729-770.496v2.684h7.008c0.206,0,0.361-0.046,0.471-0.135
		c0.108-0.088,0.193-0.254,0.258-0.493h0.275v3.253h-0.275c-0.06-0.228-0.145-0.389-0.256-0.488c-0.112-0.093-0.268-0.14-0.473-0.14
		h-10.28v-0.278c0.229-0.063,0.392-0.146,0.489-0.255c0.093-0.108,0.143-0.269,0.143-0.471v-9c0-0.207-0.047-0.362-0.138-0.466
		c-0.094-0.104-0.257-0.196-0.494-0.264v-0.274h9.976c0.21,0,0.369-0.046,0.479-0.14c0.109-0.094,0.194-0.254,0.26-0.493h0.266
		v3.252h-0.266c-0.065-0.239-0.151-0.403-0.26-0.491c-0.11-0.088-0.268-0.134-0.479-0.134h-6.704v2.417h4.16
		c0.204,0,0.36-0.046,0.47-0.135c0.106-0.093,0.197-0.258,0.27-0.497h0.265v3.174h-0.265c-0.067-0.228-0.153-0.388-0.262-0.487
		c-0.107-0.093-0.266-0.14-0.478-0.14H101.729z"/>
	<path clip-path="url(#SVGID_2_)" fill="#FFFFFF" d="M120.782-768.568h-5.076l-0.572,1.201c-0.14,0.285-0.208,0.513-0.208,0.673
		c0,0.321,0.21,0.519,0.632,0.602v0.278h-4.056v-0.278c0.249-0.037,0.433-0.114,0.556-0.229c0.122-0.104,0.265-0.331,0.428-0.653
		l4.032-8.141c0.151-0.31,0.226-0.58,0.226-0.808c0-0.269-0.185-0.476-0.55-0.626v-0.274h4.286v0.274
		c-0.361,0.14-0.542,0.368-0.542,0.668c0,0.218,0.08,0.481,0.25,0.797l4.178,7.892c0.231,0.425,0.41,0.705,0.542,0.83
		c0.13,0.134,0.33,0.218,0.6,0.27v0.278h-4.51v-0.278c0.426-0.073,0.641-0.27,0.641-0.596c0-0.202-0.083-0.451-0.246-0.756
		L120.782-768.568z M119.987-770.112l-1.807-3.542l-1.721,3.542H119.987z"/>
</g>
<rect x="288.892" y="-292.589" fill="none" width="55.915" height="64.175"/>
<g>
	<path fill="#FFFFFF" d="M1846.783-789.77c0,1.616-2.161,2.926-4.826,2.926h-42.541c-2.667,0-4.828-1.31-4.828-2.926l0,0
		c0-1.622,2.161-2.937,4.828-2.937h42.541C1844.622-792.707,1846.783-791.392,1846.783-789.77L1846.783-789.77z"/>
	<path fill="#FFFFFF" d="M1846.783-774.762c0,1.616-2.161,2.931-4.826,2.931h-42.541c-2.667,0-4.828-1.315-4.828-2.931l0,0
		c0-1.621,2.161-2.932,4.828-2.932h42.541C1844.622-777.694,1846.783-776.383,1846.783-774.762L1846.783-774.762z"/>
	<path fill="#FFFFFF" d="M1846.783-760.687c0,1.616-2.161,2.932-4.826,2.932h-42.541c-2.667,0-4.828-1.316-4.828-2.932l0,0
		c0-1.615,2.161-2.931,4.828-2.931h42.541C1844.622-763.618,1846.783-762.302,1846.783-760.687L1846.783-760.687z"/>
</g>
<g>
	<path fill="none" stroke="#00FF4E" stroke-width="2.458" stroke-miterlimit="10" d="M278.14,107.9
		c0,10.979-8.924,19.877-19.934,19.877H46.122c-11.009,0-19.934-8.898-19.934-19.877v-3.064c0-10.979,8.925-19.875,19.934-19.875
		h212.084c11.01,0,19.934,8.896,19.934,19.875V107.9z"/>
	<path fill="none" stroke="#00FF4E" stroke-width="2.458" stroke-miterlimit="10" d="M278.14,191.217
		c0,10.979-8.924,19.881-19.934,19.881H46.122c-11.009,0-19.934-8.902-19.934-19.881v-3.064c0-10.98,8.925-19.881,19.934-19.881
		h212.084c11.01,0,19.934,8.9,19.934,19.881V191.217z"/>
</g>
<g>
	<g>
		<path fill="none" stroke="#00FF4E" stroke-width="2.8091" stroke-miterlimit="10" d="M127.243,148.025
			c0-0.775-0.333-1.398-0.743-1.398H31.146c-0.407,0-0.742,0.623-0.742,1.398l0,0c0,0.777,0.335,1.404,0.742,1.404H126.5
			C126.909,149.43,127.243,148.803,127.243,148.025L127.243,148.025z"/>
		<path fill="none" stroke="#00FF4E" stroke-width="2.8091" stroke-miterlimit="10" d="M273.922,148.025
			c0-0.775-0.333-1.398-0.745-1.398h-95.35c-0.41,0-0.743,0.623-0.743,1.398l0,0c0,0.777,0.333,1.404,0.743,1.404h95.35
			C273.59,149.43,273.922,148.803,273.922,148.025L273.922,148.025z"/>
	</g>
	<path fill="none" stroke="#00FF4E" stroke-width="2.8091" stroke-miterlimit="10" d="M157.79,148.379
		c0,3.098-2.519,5.607-5.627,5.607l0,0c-3.107,0-5.625-2.51-5.625-5.607v-0.699c0-3.102,2.519-5.609,5.625-5.609l0,0
		c3.108,0,5.627,2.508,5.627,5.609V148.379z"/>
</g>
</svg>
