<?xml version="1.0" encoding="utf-8"?>
<!-- Generator: Adobe Illustrator 16.0.0, SVG Export Plug-In . SVG Version: 6.00 Build 0)  -->
<!DOCTYPE svg PUBLIC "-//W3C//DTD SVG 1.1//EN" "http://www.w3.org/Graphics/SVG/1.1/DTD/svg11.dtd">
<svg version="1.1" id="图层_1" xmlns="http://www.w3.org/2000/svg" xmlns:xlink="http://www.w3.org/1999/xlink" x="0px" y="0px"
	 width="60px" height="60px" viewBox="0 0 60 60" enable-background="new 0 0 60 60" xml:space="preserve">
<g>
	<path fill="#C9CACA" d="M56.107,15.451c0,1.617-2.162,2.929-4.828,2.929H8.723c-2.668,0-4.83-1.312-4.83-2.929l0,0
		c0-1.622,2.162-2.938,4.83-2.938h42.557C53.945,12.513,56.107,13.829,56.107,15.451L56.107,15.451z"/>
	<path fill="#C9CACA" d="M56.107,30.47c0,1.616-2.162,2.933-4.828,2.933H8.723c-2.668,0-4.83-1.316-4.83-2.933l0,0
		c0-1.622,2.162-2.935,4.83-2.935h42.557C53.945,27.535,56.107,28.848,56.107,30.47L56.107,30.47z"/>
	<path fill="#C9CACA" d="M56.107,44.554c0,1.616-2.162,2.934-4.828,2.934H8.723c-2.668,0-4.83-1.317-4.83-2.934l0,0
		c0-1.616,2.162-2.933,4.83-2.933h42.557C53.945,41.621,56.107,42.938,56.107,44.554L56.107,44.554z"/>
</g>
</svg>
