<?xml version="1.0" encoding="utf-8"?>
<!-- Generator: Adobe Illustrator 16.0.0, SVG Export Plug-In . SVG Version: 6.00 Build 0)  -->
<!DOCTYPE svg PUBLIC "-//W3C//DTD SVG 1.1//EN" "http://www.w3.org/Graphics/SVG/1.1/DTD/svg11.dtd">
<svg version="1.1" id="图层_1" xmlns="http://www.w3.org/2000/svg" xmlns:xlink="http://www.w3.org/1999/xlink" x="0px" y="0px"
	 width="270px" height="49px" viewBox="0 0 270 49" enable-background="new 0 0 270 49" xml:space="preserve">
<g>
	<defs>
		<rect id="SVGID_1_" x="0.412" y="0.258" width="269.176" height="48.922"/>
	</defs>
	<clipPath id="SVGID_2_">
		<use xlink:href="#SVGID_1_"  overflow="visible"/>
	</clipPath>
	<path clip-path="url(#SVGID_2_)" d="M77.876,31.321v8.712c0,0.385,0.093,0.683,0.279,0.895c0.185,0.211,0.503,0.375,0.952,0.49
		v0.615h-8.193v-0.615c0.462-0.128,0.782-0.295,0.962-0.5c0.179-0.205,0.269-0.5,0.269-0.885V17.801c0-0.398-0.09-0.699-0.269-0.904
		c-0.18-0.205-0.5-0.372-0.962-0.5v-0.616h16.424c2,0,3.587,0.116,4.76,0.346c1.174,0.231,2.195,0.635,3.068,1.212
		c1.012,0.667,1.769,1.571,2.269,2.712c0.474,1.103,0.712,2.282,0.712,3.539c0,4.282-2.379,6.789-7.135,7.519l5.096,7.251
		c0.897,1.269,1.555,2.086,1.972,2.452c0.416,0.365,0.925,0.567,1.528,0.605v0.615h-9.484v-0.615
		c0.652-0.103,0.979-0.333,0.979-0.692c0-0.23-0.301-0.788-0.902-1.673l-5.317-7.731H77.876z M77.876,26.994h8.847
		c1.308,0,2.231-0.039,2.769-0.116c0.539-0.076,1.032-0.236,1.481-0.48c0.974-0.525,1.462-1.474,1.462-2.846
		c0-1.371-0.488-2.32-1.462-2.846c-0.461-0.256-0.952-0.42-1.471-0.491c-0.52-0.07-1.446-0.106-2.779-0.106h-8.847V26.994z"/>
	<path clip-path="url(#SVGID_2_)" d="M113.792,20.032c3.425,0,6.28,0.872,8.565,2.616c2.732,2.103,4.099,5.032,4.099,8.789
		c0,3.526-1.367,6.34-4.099,8.443c-2.259,1.743-5.101,2.615-8.527,2.615c-3.426,0-6.268-0.872-8.526-2.615
		c-2.746-2.104-4.119-4.975-4.119-8.616c0-3.68,1.373-6.552,4.119-8.616C107.576,20.942,110.404,20.07,113.792,20.032
		 M113.812,24.109c-2.221,0-4.031,0.711-5.431,2.135c-1.297,1.333-1.944,3.007-1.944,5.02c0,2,0.647,3.667,1.944,5
		c1.4,1.437,3.216,2.154,5.45,2.154c2.221,0,4.031-0.718,5.431-2.154c1.296-1.32,1.945-2.955,1.945-4.904
		c0-2.115-0.649-3.82-1.945-5.115C117.85,24.846,116.033,24.135,113.812,24.109"/>
	<path clip-path="url(#SVGID_2_)" d="M149.535,30.455c1.064,0.488,1.848,0.975,2.348,1.462c0.936,0.924,1.402,2.167,1.402,3.732
		c0,2.102-0.795,3.724-2.385,4.864c-1.41,1.014-3.352,1.52-5.827,1.52h-15.328v-0.538c0.449-0.115,0.766-0.282,0.951-0.5
		c0.187-0.218,0.279-0.525,0.279-0.924V22.455c0-0.397-0.09-0.699-0.269-0.904c-0.181-0.205-0.5-0.378-0.962-0.519v-0.539h15.078
		c2.642,0,4.577,0.475,5.81,1.424c1.307,1,1.961,2.372,1.961,4.115c0,1.026-0.229,1.865-0.684,2.52
		C151.455,29.205,150.664,29.84,149.535,30.455 M136.131,28.57h7.827c1.23,0,2.103-0.156,2.616-0.471
		c0.512-0.314,0.77-0.855,0.77-1.625c0-0.757-0.254-1.291-0.76-1.605c-0.508-0.314-1.383-0.471-2.626-0.471h-7.827V28.57z
		 M136.131,38.129h8.02c2.59,0,3.885-0.942,3.885-2.827s-1.295-2.827-3.885-2.827h-8.02V38.129z"/>
	<path clip-path="url(#SVGID_2_)" d="M168.547,20.032c3.426,0,6.281,0.872,8.564,2.616c2.732,2.103,4.1,5.032,4.1,8.789
		c0,3.526-1.367,6.34-4.1,8.443c-2.258,1.743-5.1,2.615-8.525,2.615s-6.27-0.872-8.527-2.615c-2.746-2.104-4.119-4.975-4.119-8.616
		c0-3.68,1.373-6.552,4.119-8.616C162.33,20.942,165.16,20.07,168.547,20.032 M168.566,24.109c-2.221,0-4.031,0.711-5.432,2.135
		c-1.297,1.333-1.943,3.007-1.943,5.02c0,2,0.646,3.667,1.943,5c1.4,1.437,3.217,2.154,5.451,2.154c2.221,0,4.031-0.718,5.43-2.154
		c1.297-1.32,1.945-2.955,1.945-4.904c0-2.115-0.648-3.82-1.945-5.115C172.604,24.846,170.787,24.135,168.566,24.109"/>
	<path clip-path="url(#SVGID_2_)" d="M211.375,18.005l-3.135,6.181l-0.539-0.308c0.014-0.128,0.02-0.23,0.02-0.308
		c0-0.435-0.371-0.903-1.115-1.403c-2.281-1.59-4.961-2.385-8.039-2.385c-1.359,0-2.559,0.166-3.596,0.499
		c-0.758,0.257-1.369,0.641-1.838,1.153c-0.467,0.512-0.701,1.07-0.701,1.671c0,0.986,0.596,1.659,1.789,2.018
		c0.615,0.179,1.936,0.371,3.961,0.576l3.02,0.307c1.795,0.192,3.248,0.455,4.355,0.788c1.109,0.334,2.094,0.801,2.953,1.403
		c0.871,0.628,1.561,1.453,2.066,2.479c0.508,1.025,0.76,2.121,0.76,3.287c0,1.845-0.596,3.484-1.787,4.919
		c-1.078,1.307-2.75,2.274-5.02,2.902c-1.693,0.474-3.508,0.711-5.443,0.711c-3.475,0-6.904-0.833-10.289-2.5
		c-0.719-0.334-1.148-0.5-1.289-0.5c-0.166,0-0.43,0.141-0.789,0.423l-0.557-0.288l2.846-6.443l0.559,0.27v0.25
		c0,0.577,0.275,1.109,0.826,1.596c0.834,0.744,2.123,1.385,3.865,1.924c1.744,0.538,3.398,0.808,4.963,0.808
		c1.705,0,3.16-0.288,4.365-0.864c0.666-0.319,1.199-0.745,1.596-1.276c0.398-0.53,0.598-1.084,0.598-1.66
		c0-0.87-0.469-1.49-1.404-1.862c-0.654-0.256-1.975-0.492-3.963-0.71l-2.961-0.307c-1.988-0.205-3.391-0.401-4.213-0.587
		c-0.82-0.187-1.641-0.484-2.461-0.896c-1.166-0.577-2.084-1.443-2.75-2.599c-0.604-1.039-0.904-2.232-0.904-3.581
		c0-2.219,0.764-4.054,2.289-5.504c2-1.912,5-2.868,9-2.868c1.68,0,3.244,0.17,4.693,0.512c1.449,0.341,3.256,0.969,5.424,1.883
		c0.742,0.296,1.197,0.444,1.365,0.444c0.27,0,0.584-0.148,0.941-0.444L211.375,18.005z"/>
	<path clip-path="url(#SVGID_2_)" d="M223.191,32.879v5.25h13.674c0.398,0,0.703-0.088,0.914-0.265s0.381-0.498,0.51-0.965h0.539
		v6.365h-0.539c-0.115-0.448-0.283-0.767-0.5-0.952c-0.219-0.187-0.525-0.279-0.924-0.279h-20.059v-0.538
		c0.449-0.115,0.766-0.282,0.951-0.5s0.279-0.525,0.279-0.924V22.455c0-0.397-0.09-0.699-0.27-0.904s-0.5-0.378-0.961-0.519v-0.539
		h19.463c0.41,0,0.721-0.089,0.934-0.269c0.211-0.179,0.381-0.5,0.508-0.962h0.52v6.366h-0.52c-0.127-0.467-0.297-0.789-0.508-0.965
		c-0.213-0.177-0.523-0.265-0.934-0.265h-13.078v4.731h8.115c0.398,0,0.703-0.09,0.914-0.27s0.389-0.5,0.529-0.962h0.52v6.212h-0.52
		c-0.129-0.454-0.299-0.772-0.51-0.956c-0.211-0.183-0.523-0.274-0.934-0.274H223.191z"/>
	<path clip-path="url(#SVGID_2_)" d="M260.367,36.649h-9.906l-1.115,2.346c-0.27,0.564-0.404,1.006-0.404,1.326
		c0,0.616,0.41,1.007,1.23,1.174v0.538h-7.914v-0.538c0.488-0.077,0.85-0.225,1.088-0.442c0.236-0.218,0.516-0.647,0.836-1.289
		l7.865-15.924c0.295-0.603,0.443-1.128,0.443-1.577c0-0.526-0.359-0.936-1.078-1.231v-0.539h8.367v0.539
		c-0.705,0.282-1.059,0.718-1.059,1.307c0,0.424,0.16,0.943,0.48,1.559l8.156,15.443c0.447,0.839,0.801,1.383,1.057,1.63
		c0.256,0.248,0.646,0.423,1.174,0.524v0.538h-8.799v-0.538c0.832-0.141,1.248-0.53,1.248-1.169c0-0.396-0.16-0.888-0.48-1.475
		L260.367,36.649z M258.816,33.629l-3.527-6.928l-3.357,6.928H258.816z"/>
	<path clip-path="url(#SVGID_2_)" d="M33.331,36.199c-6.051-0.039-22.545-1.633-26.114-4.187c-1.474-1.053,4.369-4.042,6.716-4.079
		c4.578-0.071,5.511-0.975,5.913-1.779c0.395-0.792,3.586-1.084,4.385,3.738c0.035,0.215,0.03,0.079,0.028,0.008
		c-0.078-2.289-0.184-3.751,0.696-3.919c0.887-0.171,0.699,2.801,2.101,3.577c0.096,0.054,0.057-0.004,0.046-0.025
		c-0.781-1.519-1.18-2.67-0.388-3.859c0.794-1.191,1.717,1.277,2.293,3.387c0.007,0.027,0.02,0.11,0.03-0.011
		c0.12-1.385,0.178-2.242,0.796-2.953c0.808-0.933,2.662-1.264,3.743,1.837c1.079,3.102,1.399-0.178,1.768-1.11
		c1.565-3.96,20.288-11.745,40.017-16.228c0.017-0.004,0.014-0.007-0.004-0.005c-10.803,1.331-35.635,6.701-45.813,9.859
		c-0.019,0.005-0.017-0.003,0.002-0.013c6.649-3.355,27.754-7.961,29.415-8.349c0.101-0.024,0.131-0.032,0.079-0.022
		c-0.05,0.009-0.101,0.017-0.151,0.026c-9.11,1.588-14.915,0.769-16.255-0.359c-2.308-1.946-0.869-8.564,2.584-11.274
		c0.192-0.151-9.695,4.799-15.787,13.573c-1.341,1.93-2.84,2.95-4.859,3.944c-1.343,0.661-12.543,4.449-23.153,12.889
		c-3.636,2.893,11.709,6.203,20.723,6.09c2.815-0.034,4.748-0.416,5.854,0.518c3.042,2.566,7.692,4.54,14.753,4.54
		c6.876,0-7.341-1.782-9.098-5.596C33.551,36.199,33.448,36.2,33.331,36.199 M14.948,25.472c1-0.012,2.875-0.514,3.903-1.825
		c0.478-0.607,0.649-1.001,0.649-1.001s0.001,1.271-0.419,1.92c-0.765,1.188-1.828,2.136-3.971,1.677
		c-0.968-0.208-1.548-0.933-1.548-0.933S14.447,25.477,14.948,25.472"/>
</g>
<g>
	<defs>
		<path id="SVGID_3_" d="M10.343,5.314c0,1.586,1.285,2.871,2.872,2.871c1.585,0,2.871-1.285,2.871-2.871S14.8,2.442,13.215,2.442
			C11.628,2.442,10.343,3.728,10.343,5.314"/>
	</defs>
	<clipPath id="SVGID_4_">
		<use xlink:href="#SVGID_3_"  overflow="visible"/>
	</clipPath>
	<path clip-path="url(#SVGID_4_)" d="M16.921,6.063c0,1.375-1.115,2.49-2.49,2.49s-2.49-1.115-2.49-2.49s1.115-2.49,2.49-2.49
		S16.921,4.688,16.921,6.063"/>
</g>
<g>
	<defs>
		<rect id="SVGID_5_" x="0.412" y="0.258" width="269.176" height="48.922"/>
	</defs>
	<clipPath id="SVGID_6_">
		<use xlink:href="#SVGID_5_"  overflow="visible"/>
	</clipPath>
	<path clip-path="url(#SVGID_6_)" d="M41.928,46.633c0,1.375-1.115,2.49-2.49,2.49s-2.49-1.115-2.49-2.49
		S41.928,45.258,41.928,46.633"/>
</g>
<g>
	<defs>
		<path id="SVGID_7_" d="M61.967,6.063c0,1.376,1.115,2.491,2.49,2.491s2.49-1.115,2.49-2.491c0-1.375-1.115-2.49-2.49-2.49
			S61.967,4.688,61.967,6.063"/>
	</defs>
	<clipPath id="SVGID_8_">
		<use xlink:href="#SVGID_7_"  overflow="visible"/>
	</clipPath>
	
		<rect x="62.819" y="3.465" transform="matrix(0.5398 0.8418 -0.8418 0.5398 34.767 -52.5863)" clip-path="url(#SVGID_8_)" width="5.326" height="4.084"/>
</g>
<g>
	<defs>
		
			<rect id="SVGID_9_" x="50.657" y="2.857" transform="matrix(-0.8513 -0.5247 0.5247 -0.8513 83.1957 76.9479)" width="3.692" height="47.651"/>
	</defs>
	<clipPath id="SVGID_10_">
		<use xlink:href="#SVGID_9_"  overflow="visible"/>
	</clipPath>
	<path clip-path="url(#SVGID_10_)" d="M44.658,43.382l-0.145,0.254c-6.366,0.467-11.141-1.306-11.141-1.306l-0.62-0.617
		L16.395,25.417l-1.359,3.961l4.103,13.724l14.346,14.487l11.46-1.075l4.754-10.725L44.658,43.382z"/>
	<path clip-path="url(#SVGID_10_)" d="M18.936,18.488c1.687-0.748,4.17-1.74,4.17-1.74l0.672,0.451l9,10.708
		c0,0,0.962,8.97,12.117,12.09c0.817,0.229,1.078,0.705,1.147,0.867c0.031,0.071,0.092,0.069,0.092,0.069l0.884,0.167l0.813-0.785
		l15.421-22.241l1.592-2.992c-3.969,1.061-10.165,3.289-10.165,3.289l-8.786-2.249l-15.322-5.475l2.094-3.056
		c0,0,2.532-2.632,6.932-5.716l-7.01-2.943L13.509-1.386L3.195,3.771l10.929,15.131L18.936,18.488z"/>
	<path clip-path="url(#SVGID_10_)" d="M69.621,10.526l-0.384-4.485c0,0-0.594-2.695-0.806-2.992s-4.139-1.486-4.139-1.486
		l-7.936-0.021c0,0-5.072,0.7-5.157,0.637c-0.085-0.064-3.884-0.998-3.884-0.998L44.025,0.27L43.538,0.98
		c1.195,0.577,1.577,2.012,1.577,2.012s-1.648,2.073-1.881,5.015c-0.055,0.686-0.658,1.03-1.552,1.153
		c-0.729,0.101-1.651,0.055-2.625-0.071l4.587,3.042l7.343,1.062C50.987,13.193,69.345,10.147,69.621,10.526"/>
</g>
<g>
	<defs>
		
			<rect id="SVGID_11_" x="2.558" y="24.837" transform="matrix(-0.5247 -0.8513 0.8513 -0.5247 17.5148 63.1442)" width="47.652" height="3.692"/>
	</defs>
	<clipPath id="SVGID_12_">
		<use xlink:href="#SVGID_11_"  overflow="visible"/>
	</clipPath>
	<path clip-path="url(#SVGID_12_)" d="M44.658,43.382l-0.145,0.254c-6.366,0.467-11.141-1.306-11.141-1.306l-0.62-0.617
		L16.395,25.417l-1.359,3.961l4.103,13.724l14.346,14.487l11.46-1.075l4.754-10.725L44.658,43.382z"/>
	<path clip-path="url(#SVGID_12_)" d="M18.936,18.488c1.687-0.748,4.17-1.74,4.17-1.74l0.672,0.451l11.547,7.751
		c0,0,8.615,14.654,9.57,15.046c0.956,0.393,1.168,0.923,1.168,0.923l0.955,0.181l0.813-0.785l15.421-22.241l1.592-2.992
		c-3.969,1.061-10.165,3.289-10.165,3.289l-8.786-2.249l-15.322-5.475l2.094-3.056c0,0,2.532-2.632,6.932-5.716l-7.01-2.943
		L13.509-1.386L3.195,3.771l10.929,15.131L18.936,18.488z"/>
	<path clip-path="url(#SVGID_12_)" fill="#C9BC9C" d="M57.82,11.699c0.491-0.813,0.933-1.36,1.23-1.35
		c1.132,0.043,1.57,1.019,1.57,1.019l4.754-0.912c0,0,0.235,0.243,0.511,0.622l3.352-5.036c0,0-0.595-2.696-0.807-2.993
		s-4.138-1.485-4.138-1.485l-7.937-0.021c0,0-5.072,0.7-5.157,0.636c-0.085-0.063-3.883-0.997-3.883-0.997l-3.29-0.913l-0.488,0.711
		c1.196,0.577,1.577,2.013,1.577,2.013s-1.648,2.072-1.881,5.015c-0.055,0.686-0.658,1.03-1.552,1.153
		c-0.729,0.1-1.651,0.055-2.625-0.071l4.587,3.042l7.343,1.061L57.82,11.699z"/>
</g>
<g>
	<defs>
		<rect id="SVGID_13_" x="14.429" y="3.574" width="50.012" height="3.693"/>
	</defs>
	<clipPath id="SVGID_14_">
		<use xlink:href="#SVGID_13_"  overflow="visible"/>
	</clipPath>
	<path clip-path="url(#SVGID_14_)" fill="#C9BC9C" d="M44.658,43.382l-0.145,0.254c-6.366,0.467-11.141-1.306-11.141-1.306
		l-0.62-0.617L16.395,25.417l-1.359,3.961l4.103,13.724l14.346,14.487l11.46-1.075l4.754-10.725L44.658,43.382z"/>
	<path clip-path="url(#SVGID_14_)" d="M18.936,18.488c1.687-0.748,4.17-1.74,4.17-1.74l0.672,0.451l11.547,7.751
		c0,0,8.615,14.654,9.57,15.046c0.956,0.393,1.168,0.923,1.168,0.923l0.955,0.181l0.813-0.785l15.421-22.241l1.592-2.992
		c-3.969,1.061-10.165,3.289-10.165,3.289l-8.786-2.249l-15.322-5.475l2.094-3.056c0,0,2.532-2.632,6.932-5.716l-7.01-2.943
		L13.509-1.386L3.195,3.771l10.929,15.131L18.936,18.488z"/>
	<path clip-path="url(#SVGID_14_)" d="M57.82,11.699c0.491-0.813,0.933-1.36,1.23-1.35c1.132,0.043,1.57,1.019,1.57,1.019
		l4.754-0.912c0,0,0.235,0.243,0.511,0.622l3.352-5.036c0,0-0.595-2.696-0.807-2.993s-4.138-1.485-4.138-1.485l-7.937-0.021
		c0,0-5.072,0.7-5.157,0.636c-0.085-0.063-3.883-0.997-3.883-0.997l-3.29-0.913l-0.488,0.711c1.196,0.577,1.577,2.013,1.577,2.013
		s-1.648,2.072-1.881,5.015c-0.055,0.686-0.658,1.03-1.552,1.153c-0.729,0.1-1.651,0.055-2.625-0.071l4.587,3.042l7.343,1.061
		L57.82,11.699z"/>
</g>
</svg>
