<?xml version="1.0" encoding="utf-8"?>
<!-- Generator: Adobe Illustrator 16.0.0, SVG Export Plug-In . SVG Version: 6.00 Build 0)  -->
<!DOCTYPE svg PUBLIC "-//W3C//DTD SVG 1.1//EN" "http://www.w3.org/Graphics/SVG/1.1/DTD/svg11.dtd">
<svg version="1.1" id="图层_1" xmlns="http://www.w3.org/2000/svg" xmlns:xlink="http://www.w3.org/1999/xlink" x="0px" y="0px"
	 width="720px" height="720px" viewBox="-180 -180 720 720" style="enable-background:new -180 -180 720 720;" xml:space="preserve"
	>
<g id="图层_2">
</g>
<g id="图层_1_1_">
	<g>
		<g style="opacity:0.3;">
			<g>
				<path style="fill:#00FF85;" d="M179.7,291.5c-1,0-2,0-2.9,0l0-0.5c1.6,0,3.2,0,4.8,0v0.5C180.9,291.5,180.3,291.5,179.7,291.5z
					 M186.3,291.3l0-0.5c1.6-0.1,3.2-0.2,4.8-0.4l0,0.5C189.5,291.2,187.9,291.3,186.3,291.3z M171.9,291.3
					c-1.6-0.1-3.2-0.3-4.8-0.4l0-0.5c1.6,0.2,3.2,0.3,4.7,0.4L171.9,291.3z M195.8,290.4l-0.1-0.5c1.6-0.2,3.1-0.5,4.7-0.7l0.1,0.5
					C199,290,197.4,290.2,195.8,290.4z M162.4,290.2c-1.6-0.2-3.2-0.5-4.7-0.8l0.1-0.5c1.5,0.3,3.1,0.6,4.7,0.8L162.4,290.2z
					 M205.2,288.7l-0.1-0.5c1.5-0.3,3.1-0.7,4.6-1.1l0.1,0.5C208.4,288,206.8,288.4,205.2,288.7z M153,288.3
					c-1.5-0.4-3.1-0.8-4.6-1.2l0.1-0.5c1.5,0.4,3.1,0.8,4.6,1.2L153,288.3z M214.5,286.2l-0.1-0.5c1.5-0.5,3-1,4.5-1.5l0.2,0.5
					C217.5,285.2,216,285.8,214.5,286.2z M143.8,285.7c-1.5-0.5-3-1-4.5-1.6l0.2-0.4c1.5,0.6,3,1.1,4.5,1.6L143.8,285.7z M223.5,283
					l-0.2-0.4c1.5-0.6,2.9-1.2,4.4-1.9l0.2,0.4C226.5,281.7,225,282.4,223.5,283z M134.9,282.3c-1.5-0.6-2.9-1.3-4.4-2l0.2-0.4
					c1.4,0.7,2.9,1.4,4.4,2L134.9,282.3z M232.2,279l-0.2-0.4c1.4-0.7,2.8-1.5,4.2-2.3l0.2,0.4C235,277.5,233.6,278.2,232.2,279z
					 M126.3,278.2c-1.4-0.7-2.8-1.5-4.2-2.3l0.2-0.4c1.4,0.8,2.8,1.6,4.2,2.3L126.3,278.2z M240.5,274.3l-0.2-0.4
					c1.4-0.8,2.7-1.7,4-2.6l0.3,0.4C243.2,272.5,241.9,273.4,240.5,274.3z M118,273.3c-1.3-0.8-2.7-1.8-4-2.7l0.3-0.4
					c1.3,0.9,2.6,1.8,3.9,2.7L118,273.3z M248.5,268.8l-0.3-0.4c1.3-0.9,2.5-1.9,3.8-2.9l0.3,0.4C251,266.9,249.7,267.9,248.5,268.8
					z M110.2,267.8c-1.3-1-2.5-2-3.7-3l0.3-0.4c1.2,1,2.5,2,3.7,3L110.2,267.8z M255.9,262.8l-0.3-0.4c1.2-1,2.4-2.1,3.5-3.2
					l0.3,0.3C258.2,260.7,257.1,261.7,255.9,262.8z M102.9,261.7c-1.2-1.1-2.3-2.2-3.5-3.3l0.3-0.3c1.1,1.1,2.3,2.2,3.5,3.3
					L102.9,261.7z M262.8,256.2l-0.3-0.3c1.1-1.1,2.2-2.3,3.2-3.5l0.4,0.3C265,253.8,263.9,255,262.8,256.2z M96.1,254.9
					c-1.1-1.2-2.2-2.4-3.2-3.6l0.4-0.3c1,1.2,2.1,2.4,3.2,3.6L96.1,254.9z M269.1,249l-0.4-0.3c1-1.2,2-2.5,2.9-3.8l0.4,0.3
					C271.1,246.5,270.1,247.7,269.1,249z M89.8,247.6c-1-1.3-1.9-2.5-2.9-3.8l0.4-0.3c0.9,1.3,1.9,2.6,2.9,3.8L89.8,247.6z
					 M274.8,241.3l-0.4-0.3c0.9-1.3,1.8-2.7,2.6-4l0.4,0.2C276.6,238.7,275.7,240,274.8,241.3z M84.2,239.9
					c-0.9-1.3-1.7-2.7-2.6-4.1l0.4-0.2c0.8,1.4,1.7,2.7,2.5,4L84.2,239.9z M279.9,233.2l-0.4-0.2c0.8-1.4,1.5-2.8,2.2-4.2l0.4,0.2
					C281.4,230.4,280.6,231.8,279.9,233.2z M79.3,231.7c-0.7-1.4-1.5-2.8-2.2-4.3l0.4-0.2c0.7,1.4,1.4,2.9,2.2,4.2L79.3,231.7z
					 M284.2,224.7l-0.4-0.2c0.7-1.4,1.3-2.9,1.9-4.4l0.4,0.2C285.5,221.7,284.9,223.2,284.2,224.7z M75.1,223.1
					c-0.6-1.5-1.3-3-1.8-4.4l0.4-0.2c0.6,1.5,1.2,3,1.8,4.4L75.1,223.1z M287.8,215.8l-0.5-0.2c0.5-1.5,1-3,1.5-4.5l0.5,0.1
					C288.9,212.8,288.4,214.3,287.8,215.8z M71.6,214.2c-0.5-1.5-1-3-1.5-4.6l0.5-0.1c0.5,1.5,0.9,3,1.5,4.5L71.6,214.2z
					 M290.7,206.7l-0.5-0.1c0.4-1.5,0.8-3.1,1.1-4.6l0.5,0.1C291.5,203.6,291.1,205.1,290.7,206.7z M68.9,205
					c-0.4-1.5-0.7-3.1-1.1-4.7l0.5-0.1c0.3,1.5,0.7,3.1,1.1,4.6L68.9,205z M292.8,197.3l-0.5-0.1c0.3-1.5,0.5-3.1,0.7-4.7l0.5,0.1
					C293.3,194.2,293,195.8,292.8,197.3z M67,195.6c-0.3-1.6-0.5-3.2-0.7-4.7l0.5,0c0.2,1.6,0.4,3.2,0.7,4.7L67,195.6z M294.1,187.8
					l-0.5,0c0.1-1.6,0.3-3.2,0.4-4.8l0.5,0C294.3,184.6,294.2,186.3,294.1,187.8z M65.8,186.1c-0.1-1.6-0.2-3.2-0.3-4.8l0.5,0
					c0,1.6,0.1,3.2,0.3,4.8L65.8,186.1z M294.6,178.3h-0.5c0-0.3,0-0.7,0-1c0-1.3,0-2.5,0-3.8l0.5,0c0,1.3,0,2.5,0,3.8
					C294.6,177.6,294.6,177.9,294.6,178.3z M65.9,176.5h-0.5c0-1.6,0-3.2,0.1-4.8l0.5,0C66,173.3,65.9,175,65.9,176.5z M293.8,168.7
					c-0.1-1.6-0.3-3.2-0.4-4.8l0.5,0c0.2,1.6,0.3,3.2,0.4,4.8L293.8,168.7z M66.3,167l-0.5,0c0.1-1.6,0.3-3.2,0.5-4.8l0.5,0.1
					C66.7,163.8,66.5,165.4,66.3,167z M292.7,159.3c-0.2-1.6-0.5-3.1-0.8-4.7l0.5-0.1c0.3,1.5,0.6,3.1,0.8,4.7L292.7,159.3z
					 M67.6,157.6l-0.5-0.1c0.3-1.6,0.6-3.1,0.9-4.7l0.5,0.1C68.1,154.4,67.8,156,67.6,157.6z M290.8,149.9c-0.4-1.5-0.8-3.1-1.2-4.6
					l0.5-0.1c0.4,1.5,0.8,3.1,1.2,4.6L290.8,149.9z M69.6,148.2l-0.5-0.1c0.4-1.5,0.8-3.1,1.3-4.6l0.5,0.1
					C70.4,145.2,70,146.7,69.6,148.2z M288.2,140.8c-0.5-1.5-1-3-1.6-4.5l0.5-0.2c0.6,1.5,1.1,3,1.6,4.5L288.2,140.8z M72.3,139.1
					l-0.5-0.1c0.5-1.5,1.1-3,1.7-4.5l0.4,0.2C73.4,136.1,72.9,137.6,72.3,139.1z M284.8,131.8c-0.6-1.5-1.3-2.9-2-4.4l0.4-0.2
					c0.7,1.4,1.4,2.9,2,4.4L284.8,131.8z M75.9,130.3l-0.4-0.2c0.7-1.5,1.3-2.9,2.1-4.3l0.4,0.2C77.2,127.4,76.5,128.8,75.9,130.3z
					 M280.7,123.3c-0.7-1.4-1.5-2.8-2.3-4.2l0.4-0.2c0.8,1.4,1.6,2.8,2.3,4.2L280.7,123.3z M80.1,121.7l-0.4-0.2
					c0.8-1.4,1.6-2.8,2.4-4.1l0.4,0.2C81.7,119,80.9,120.4,80.1,121.7z M275.8,115c-0.8-1.3-1.8-2.7-2.7-3.9l0.4-0.3
					c0.9,1.3,1.8,2.6,2.7,4L275.8,115z M85.1,113.6l-0.4-0.3c0.9-1.3,1.8-2.6,2.8-3.9l0.4,0.3C86.9,111,86,112.3,85.1,113.6z
					 M270.3,107.3c-1-1.3-2-2.5-3-3.7l0.4-0.3c1,1.2,2,2.5,3,3.7L270.3,107.3z M90.7,105.9l-0.4-0.3c1-1.2,2-2.5,3.1-3.7l0.4,0.3
					C92.7,103.4,91.7,104.7,90.7,105.9z M264.2,100c-1.1-1.2-2.2-2.3-3.3-3.5c-0.4-0.4-0.8-0.8-1.2-1.2l0.3-0.3
					c0.4,0.4,0.8,0.8,1.3,1.2c1.1,1.1,2.2,2.3,3.3,3.5L264.2,100z M97,98.7l-0.3-0.3c0.8-0.9,1.7-1.8,2.6-2.7
					c0.2-0.2,0.5-0.5,0.8-0.7l0.3,0.3c-0.3,0.2-0.5,0.5-0.8,0.7C98.7,96.9,97.8,97.8,97,98.7z M103.8,92.1l-0.3-0.4
					c1.2-1.1,2.4-2.1,3.6-3.1l0.3,0.4C106.2,90,105,91,103.8,92.1z M256.2,92c-1.2-1.1-2.4-2.1-3.6-3.1l0.3-0.4
					c1.2,1,2.4,2.1,3.6,3.1L256.2,92z M111.1,86l-0.3-0.4c1.3-1,2.6-1.9,3.9-2.8l0.3,0.4C113.7,84.1,112.4,85,111.1,86z M248.8,85.9
					c-1.3-1-2.6-1.9-3.9-2.8l0.3-0.4c1.3,0.9,2.6,1.8,3.9,2.8L248.8,85.9z M119,80.5l-0.3-0.4c1.4-0.8,2.7-1.7,4.1-2.5l0.2,0.4
					C121.7,78.9,120.3,79.7,119,80.5z M241,80.5c-1.3-0.8-2.7-1.7-4.1-2.5l0.2-0.4c1.4,0.8,2.8,1.6,4.1,2.5L241,80.5z M127.2,75.8
					l-0.2-0.4c1.4-0.7,2.9-1.5,4.3-2.1l0.2,0.4C130.1,74.3,128.7,75,127.2,75.8z M232.7,75.8c-1.4-0.7-2.9-1.5-4.3-2.1l0.2-0.4
					c1.4,0.7,2.9,1.4,4.3,2.1L232.7,75.8z M135.9,71.7l-0.2-0.4c1.5-0.6,3-1.2,4.4-1.8l0.2,0.5C138.8,70.5,137.3,71.1,135.9,71.7z
					 M224.1,71.7c-1.5-0.6-2.9-1.2-4.4-1.7l0.2-0.5c1.5,0.6,3,1.1,4.4,1.8L224.1,71.7z M144.8,68.4l-0.1-0.5
					c1.5-0.5,3.1-0.9,4.6-1.4l0.1,0.5C147.9,67.4,146.3,67.9,144.8,68.4z M215.2,68.4c-1.5-0.5-3-0.9-4.6-1.4l0.1-0.5
					c1.5,0.4,3.1,0.9,4.6,1.4L215.2,68.4z M154,65.9l-0.1-0.5c1.5-0.4,3.1-0.7,4.7-1l0.1,0.5C157.1,65.2,155.6,65.5,154,65.9z
					 M206,65.9c-1.5-0.4-3.1-0.7-4.7-1l0.1-0.5c1.5,0.3,3.1,0.6,4.7,1L206,65.9z M163.4,64.1l-0.1-0.5c1.6-0.2,3.2-0.4,4.8-0.6
					l0,0.5C166.5,63.7,164.9,63.8,163.4,64.1z M196.6,64.1c-1.6-0.2-3.2-0.4-4.7-0.6l0-0.5c1.6,0.2,3.2,0.4,4.8,0.6L196.6,64.1z
					 M172.9,63.1l0-0.5c1.6-0.1,3.2-0.2,4.8-0.2v0.5C176,62.9,174.4,63,172.9,63.1z M187.1,63.1c-1.6-0.1-3.2-0.2-4.8-0.2v-0.5
					c1.6,0,3.2,0.1,4.8,0.2L187.1,63.1z"/>
			</g>
			<g>
				<path style="fill:#00FF85;" d="M179.7,277.9c-26.9-0.1-52.3-10.6-71.3-29.8c-39.2-39.5-39.1-103.5,0.4-142.7
					c19.1-19,44.5-29.4,71.4-29.4c26.9,0.1,52.3,10.6,71.3,29.8c39.3,39.5,39.1,103.5-0.4,142.7C232,267.5,206.7,278,179.7,277.9z
					 M180.3,76.5c-26.8-0.1-52.1,10.3-71.1,29.2c-39.3,39.1-39.4,102.8-0.4,142.1c18.9,19,44.1,29.5,71,29.6
					c26.8,0.1,52.1-10.3,71.1-29.2c39.3-39.1,39.4-102.8,0.4-142.1C232.3,87.1,207.1,76.6,180.3,76.5z"/>
			</g>
			<g>
				<g>
					<path style="fill:#00FF85;" d="M101,97.5c-1.5,1.5-3,3-4.4,4.6l7.1,5.9c1.2-1.4,2.5-2.7,3.8-4c1.3-1.3,2.7-2.6,4-3.8l-5.9-7.1
						C104.1,94.6,102.5,96,101,97.5z"/>
				</g>
				<g style="opacity:0.95;">
					<path style="fill:#00FF85;" d="M88.4,112.5c-1.2,1.7-2.4,3.5-3.5,5.3l8,4.6c1-1.5,2-3.1,3.1-4.6c1.1-1.5,2.2-3,3.3-4.4l-7-6
						C90.9,109,89.6,110.7,88.4,112.5z"/>
				</g>
				<g style="opacity:0.9;">
					<path style="fill:#00FF85;" d="M78.6,129.3c-0.9,1.9-1.8,3.9-2.5,5.8l8.7,3.1c0.7-1.7,1.4-3.4,2.2-5.1c0.8-1.7,1.6-3.3,2.5-4.9
						l-7.9-4.7C80.4,125.5,79.5,127.4,78.6,129.3z"/>
				</g>
				<g style="opacity:0.85;">
					<path style="fill:#00FF85;" d="M71.9,147.7c-0.6,2.1-1.1,4.1-1.5,6.2l9.1,1.6c0.4-1.8,0.8-3.6,1.3-5.4c0.5-1.8,1-3.6,1.6-5.3
						l-8.6-3.2C73,143.6,72.4,145.6,71.9,147.7z"/>
				</g>
				<g style="opacity:0.8;">
					<path style="fill:#00FF85;" d="M68.4,166.9c-0.2,2.1-0.3,4.2-0.4,6.4l9.2,0c0.1-1.8,0.2-3.6,0.4-5.5c0.2-1.8,0.4-3.7,0.6-5.5
						l-9.1-1.7C68.8,162.6,68.6,164.8,68.4,166.9z"/>
				</g>
				<g style="opacity:0.75;">
					<path style="fill:#00FF85;" d="M68.4,186.4c0.2,2.1,0.4,4.2,0.7,6.3l9.1-1.6c-0.2-1.8-0.4-3.6-0.6-5.5
						c-0.1-1.8-0.3-3.7-0.3-5.5l-9.2-0.1C68.1,182.2,68.2,184.3,68.4,186.4z"/>
				</g>
				<g style="opacity:0.7;">
					<path style="fill:#00FF85;" d="M71.7,205.7c0.6,2.1,1.1,4.1,1.8,6.1l8.7-3.2c-0.6-1.7-1.1-3.5-1.5-5.3
						c-0.5-1.8-0.9-3.6-1.3-5.4l-9.1,1.5C70.6,201.5,71.2,203.6,71.7,205.7z"/>
				</g>
				<g style="opacity:0.65;">
					<path style="fill:#00FF85;" d="M78.3,224c0.9,1.9,1.8,3.8,2.8,5.7l8-4.6c-0.8-1.6-1.7-3.3-2.4-4.9c-0.8-1.7-1.5-3.4-2.2-5.1
						l-8.7,3.1C76.6,220.1,77.4,222.1,78.3,224z"/>
				</g>
				<g style="opacity:0.6;">
					<path style="fill:#00FF85;" d="M88.1,241c1.2,1.7,2.5,3.5,3.8,5.1l7-5.9c-1.1-1.5-2.2-2.9-3.3-4.4c-1.1-1.5-2.1-3-3-4.6l-8,4.5
						C85.7,237.5,86.8,239.2,88.1,241z"/>
				</g>
				<g style="opacity:0.55;">
					<path style="fill:#00FF85;" d="M100.5,256c1.5,1.5,3,3,4.6,4.4l5.9-7.1c-1.4-1.2-2.7-2.5-4-3.8c-1.3-1.3-2.6-2.7-3.8-4
						l-7.1,5.9C97.6,252.9,99,254.5,100.5,256z"/>
				</g>
				<g style="opacity:0.5;">
					<path style="fill:#00FF85;" d="M115.5,268.6c1.7,1.2,3.5,2.4,5.3,3.5l4.6-8c-1.5-1-3.1-2-4.6-3.1c-1.5-1.1-3-2.2-4.4-3.3l-6,7
						C112,266.1,113.7,267.3,115.5,268.6z"/>
				</g>
				<g style="opacity:0.45;">
					<path style="fill:#00FF85;" d="M132.4,278.4c1.9,0.9,3.9,1.8,5.8,2.5l3.1-8.7c-1.7-0.7-3.4-1.4-5.1-2.2
						c-1.7-0.8-3.3-1.6-4.9-2.5l-4.7,7.9C128.6,276.5,130.4,277.5,132.4,278.4z"/>
				</g>
				<g style="opacity:0.4;">
					<path style="fill:#00FF85;" d="M150.7,285.1c2.1,0.6,4.1,1.1,6.2,1.5l1.6-9.1c-1.8-0.4-3.6-0.8-5.4-1.3c-1.8-0.5-3.6-1-5.3-1.6
						l-3.2,8.6C146.6,283.9,148.6,284.6,150.7,285.1z"/>
				</g>
				<g style="opacity:0.35;">
					<path style="fill:#00FF85;" d="M169.9,288.5c2.1,0.2,4.3,0.3,6.4,0.4l0-9.2c-1.8-0.1-3.7-0.2-5.5-0.4c-1.8-0.2-3.7-0.4-5.5-0.6
						l-1.7,9.1C165.7,288.1,167.8,288.4,169.9,288.5z"/>
				</g>
				<g style="opacity:0.3;">
					<path style="fill:#00FF85;" d="M189.5,288.6c2.1-0.2,4.2-0.4,6.3-0.7l-1.6-9.1c-1.8,0.2-3.7,0.5-5.5,0.6
						c-1.8,0.1-3.7,0.3-5.5,0.3l-0.1,9.2C185.2,288.9,187.3,288.8,189.5,288.6z"/>
				</g>
				<g style="opacity:0.25;">
					<path style="fill:#00FF85;" d="M208.7,285.3c2.1-0.6,4.1-1.1,6.1-1.8l-3.2-8.7c-1.7,0.6-3.5,1.1-5.3,1.5
						c-1.8,0.5-3.6,0.9-5.4,1.3l1.5,9.1C204.6,286.3,206.6,285.8,208.7,285.3z"/>
				</g>
				<g style="opacity:0.25;">
					<path style="fill:#00FF85;" d="M227.1,278.6c1.9-0.9,3.8-1.8,5.7-2.8l-4.6-8c-1.6,0.8-3.3,1.7-5,2.4c-1.7,0.8-3.4,1.5-5,2.2
						l3.1,8.7C223.2,280.4,225.1,279.5,227.1,278.6z"/>
				</g>
				<g style="opacity:0.2;">
					<path style="fill:#00FF85;" d="M244,268.9c1.7-1.2,3.5-2.5,5.1-3.8l-5.9-7c-1.5,1.1-2.9,2.2-4.5,3.3c-1.5,1.1-3,2.1-4.6,3
						l4.5,8C240.5,271.3,242.3,270.1,244,268.9z"/>
				</g>
				<g style="opacity:0.15;">
					<path style="fill:#00FF85;" d="M259,256.4c1.5-1.5,3-3,4.4-4.6l-7.1-5.9c-1.2,1.4-2.5,2.7-3.8,4c-1.3,1.3-2.7,2.6-4,3.8
						l5.9,7.1C256,259.4,257.5,257.9,259,256.4z"/>
				</g>
				<g>
					<path style="fill:#00FF85;" d="M271.6,241.5c1.2-1.7,2.4-3.5,3.5-5.3l-8-4.6c-1,1.5-2,3.1-3.1,4.6c-1.1,1.5-2.2,3-3.3,4.4l7,6
						C269.1,244.9,270.4,243.2,271.6,241.5z"/>
				</g>
				<g style="opacity:0.9;">
					<path style="fill:#00FF85;" d="M281.4,224.6c0.9-1.9,1.8-3.9,2.6-5.8l-8.7-3.1c-0.7,1.7-1.4,3.4-2.2,5
						c-0.8,1.7-1.6,3.3-2.5,4.9l7.9,4.7C279.6,228.4,280.5,226.5,281.4,224.6z"/>
				</g>
				<g style="opacity:0.8;">
					<path style="fill:#00FF85;" d="M288.1,206.2c0.6-2.1,1.1-4.1,1.5-6.2l-9.1-1.6c-0.4,1.8-0.8,3.6-1.3,5.4
						c-0.5,1.8-1,3.6-1.6,5.3l8.6,3.2C287,210.3,287.6,208.3,288.1,206.2z"/>
				</g>
				<g style="opacity:0.7;">
					<path style="fill:#00FF85;" d="M291.6,187c0.2-2.1,0.3-4.3,0.4-6.4l-9.2,0c-0.1,1.8-0.2,3.6-0.4,5.5c-0.2,1.8-0.4,3.7-0.6,5.5
						l9.1,1.7C291.2,191.3,291.4,189.2,291.6,187z"/>
				</g>
				<g style="opacity:0.6;">
					<path style="fill:#00FF85;" d="M291.6,167.5c-0.2-2.1-0.4-4.2-0.7-6.3l-9.1,1.6c0.2,1.8,0.5,3.6,0.6,5.5
						c0.1,1.8,0.3,3.7,0.3,5.5l9.2,0.1C291.9,171.7,291.8,169.6,291.6,167.5z"/>
				</g>
				<g style="opacity:0.5;">
					<path style="fill:#00FF85;" d="M288.3,148.2c-0.6-2.1-1.1-4.1-1.8-6.1l-8.7,3.2c0.6,1.7,1.1,3.5,1.5,5.3
						c0.5,1.8,0.9,3.6,1.3,5.4l9.1-1.5C289.3,152.4,288.9,150.3,288.3,148.2z"/>
				</g>
				<g style="opacity:0.4;">
					<path style="fill:#00FF85;" d="M281.7,129.9c-0.9-1.9-1.8-3.8-2.8-5.7l-8,4.6c0.8,1.6,1.7,3.3,2.4,5c0.8,1.7,1.5,3.4,2.2,5.1
						l8.7-3.1C283.4,133.8,282.6,131.8,281.7,129.9z"/>
				</g>
				<g style="opacity:0.3;">
					<path style="fill:#00FF85;" d="M271.9,112.9c-1.2-1.7-2.5-3.5-3.8-5.1l-7,5.9c1.1,1.4,2.2,2.9,3.3,4.4c1.1,1.5,2.1,3,3,4.6
						l8-4.5C274.3,116.5,273.2,114.7,271.9,112.9z"/>
				</g>
				<g style="opacity:0.2;">
					<path style="fill:#00FF85;" d="M259.5,98c-1.5-1.5-3-3-4.6-4.4l-5.9,7.1c1.4,1.2,2.7,2.5,4,3.8c1.3,1.3,2.6,2.7,3.8,4l7.1-5.9
						C262.4,101,261,99.4,259.5,98z"/>
				</g>
				<g style="opacity:0.1;">
					<path style="fill:#00FF85;" d="M244.5,85.4c-1.7-1.2-3.5-2.4-5.3-3.5l-4.6,8c1.5,1,3.1,2,4.6,3.1c1.5,1.1,3,2.2,4.4,3.3l6-7
						C247.9,87.8,246.3,86.6,244.5,85.4z"/>
				</g>
				<g>
					<path style="fill:#00FF85;" d="M227.6,75.5c-1.9-0.9-3.9-1.8-5.8-2.6l-3.1,8.7c1.7,0.7,3.4,1.4,5,2.2c1.7,0.8,3.3,1.6,4.9,2.5
						l4.7-7.9C231.5,77.4,229.6,76.4,227.6,75.5z"/>
				</g>
				<g style="opacity:0.75;">
					<path style="fill:#00FF85;" d="M209.3,68.8c-2.1-0.6-4.1-1.1-6.2-1.5l-1.6,9.1c1.8,0.4,3.6,0.8,5.4,1.3c1.8,0.5,3.6,1,5.3,1.6
						l3.2-8.6C213.4,70,211.4,69.4,209.3,68.8z"/>
				</g>
				<g style="opacity:0.5;">
					<path style="fill:#00FF85;" d="M190.1,65.4c-2.1-0.2-4.2-0.3-6.4-0.4l0,9.2c1.8,0.1,3.6,0.2,5.5,0.4c1.8,0.2,3.7,0.4,5.5,0.6
						l1.7-9.1C194.3,65.8,192.2,65.6,190.1,65.4z"/>
				</g>
				<g style="opacity:0.25;">
					<path style="fill:#00FF85;" d="M170.5,65.3c-2.1,0.2-4.2,0.4-6.3,0.7l1.6,9.1c1.8-0.2,3.6-0.5,5.5-0.6c1.8-0.1,3.7-0.3,5.5-0.3
						l0.1-9.2C174.8,65,172.7,65.1,170.5,65.3z"/>
				</g>
				<g>
					<path style="fill:#00FF85;" d="M151.3,68.7c-2.1,0.6-4.1,1.1-6.1,1.8l3.2,8.7c1.7-0.6,3.5-1.1,5.3-1.5c1.8-0.5,3.6-0.9,5.4-1.3
						l-1.5-9.1C155.4,67.6,153.4,68.1,151.3,68.7z"/>
				</g>
				<g style="opacity:0.25;">
					<path style="fill:#00FF85;" d="M132.9,75.3c-1.9,0.9-3.8,1.8-5.7,2.8l4.6,8c1.6-0.8,3.3-1.7,4.9-2.4c1.7-0.8,3.4-1.5,5.1-2.2
						l-3.1-8.7C136.8,73.5,134.9,74.4,132.9,75.3z"/>
				</g>
				<g style="opacity:0.5;">
					<path style="fill:#00FF85;" d="M116,85c-1.7,1.2-3.5,2.5-5.1,3.8l5.9,7c1.5-1.1,2.9-2.2,4.4-3.3s3-2.1,4.6-3l-4.5-8
						C119.5,82.6,117.7,83.8,116,85z"/>
				</g>
			</g>
			<g>
				<g>
					<path style="fill:#00FF85;" d="M194.8,302.1l-0.1-0.9c28-3.3,53.5-15.6,73.5-35.5c20.1-20,32.5-45.3,35.9-73.3l0.9,0.1
						c-3.5,28.2-16,53.8-36.2,73.9C248.6,286.4,223,298.8,194.8,302.1z M55.9,161.6l-0.9-0.1c3.5-28.2,16-53.8,36.2-73.9
						c20.2-20.1,45.8-32.5,74.1-35.8l0.1,0.9c-28,3.3-53.5,15.6-73.5,35.5C71.8,108.2,59.3,133.6,55.9,161.6z"/>
				</g>
			</g>
			<g>
				<g>
					<polygon style="fill:#00FF85;" points="116.5,113.5 115.7,114.3 111.7,110.2 112.5,109.5 					"/>
				</g>
				<g>
					<polygon style="fill:#00FF85;" points="102.2,132.1 101.7,133 96.8,130.2 97.3,129.2 					"/>
				</g>
				<g>
					<polygon style="fill:#00FF85;" points="93.2,153.8 93,154.8 87.5,153.3 87.8,152.3 					"/>
				</g>
				<g>
					<rect x="84.5" y="177" style="fill:#00FF85;" width="5.7" height="1.1"/>
				</g>
				<g>
					<polygon style="fill:#00FF85;" points="93.3,200.2 93.6,201.3 88.1,202.7 87.8,201.7 					"/>
				</g>
				<g>
					
						<rect x="99.5" y="220.9" transform="matrix(0.4978 0.8673 -0.8673 0.4978 244.3295 25.5987)" style="fill:#00FF85;" width="1.1" height="5.7"/>
				</g>
				<g>
					<polygon style="fill:#00FF85;" points="116.5,240.5 117.3,241.2 113.3,245.3 112.5,244.5 					"/>
				</g>
				<g>
					
						<rect x="133.6" y="254.6" transform="matrix(0.8637 0.504 -0.504 0.8637 148.0588 -32.5185)" style="fill:#00FF85;" width="1.1" height="5.7"/>
				</g>
				<g>
					<polygon style="fill:#00FF85;" points="156.8,263.7 157.8,264 156.4,269.5 155.3,269.2 					"/>
				</g>
				<g>
					<rect x="180" y="266.8" style="fill:#00FF85;" width="1.1" height="5.7"/>
				</g>
				<g>
					<polygon style="fill:#00FF85;" points="203.3,263.7 204.3,263.4 205.8,268.9 204.7,269.2 					"/>
				</g>
				<g>
					<polygon style="fill:#00FF85;" points="224.9,254.7 225.9,254.2 228.7,259.1 227.7,259.6 					"/>
				</g>
				<g>
					
						<rect x="245.4" y="239.2" transform="matrix(0.708 -0.7062 0.7062 0.708 -99.1555 244.3591)" style="fill:#00FF85;" width="1.1" height="5.7"/>
				</g>
				<g>
					
						<rect x="260" y="220" transform="matrix(0.5024 -0.8646 0.8646 0.5024 -63.0145 336.1307)" style="fill:#00FF85;" width="1.1" height="5.7"/>
				</g>
				<g>
					<polygon style="fill:#00FF85;" points="266.7,200.2 267,199.1 272.5,200.6 272.2,201.7 					"/>
				</g>
				<g>
					<rect x="269.8" y="175.8" style="fill:#00FF85;" width="5.7" height="1.1"/>
				</g>
				<g>
					<polygon style="fill:#00FF85;" points="266.7,153.7 266.4,152.6 271.9,151.2 272.2,152.2 					"/>
				</g>
				<g>
					
						<rect x="259.4" y="127.3" transform="matrix(-0.4973 -0.8676 0.8676 -0.4973 276.3192 420.3522)" style="fill:#00FF85;" width="1.1" height="5.7"/>
				</g>
				<g>
					
						<rect x="244.6" y="108.2" transform="matrix(-0.7049 -0.7094 0.7094 -0.7049 339.1216 363.1895)" style="fill:#00FF85;" width="1.1" height="5.7"/>
				</g>
				<g>
					<polygon style="fill:#00FF85;" points="224.9,99.2 223.9,98.6 226.8,93.7 227.7,94.3 					"/>
				</g>
				<g>
					<polygon style="fill:#00FF85;" points="203.2,90.2 202.2,89.9 203.6,84.4 204.7,84.7 					"/>
				</g>
				<g>
					<rect x="178.9" y="81.5" style="fill:#00FF85;" width="1.1" height="5.7"/>
				</g>
				<g>
					<polygon style="fill:#00FF85;" points="156.7,90.2 155.7,90.5 154.2,85 155.3,84.7 					"/>
				</g>
				<g>
					<polygon style="fill:#00FF85;" points="135.1,99.2 134.1,99.8 131.3,94.8 132.3,94.3 					"/>
				</g>
			</g>
			<g style="opacity:0.5;">
				<g>
					<ellipse style="fill:#00FF85;" cx="110.5" cy="108.2" rx="1" ry="1"/>
				</g>
				<g>
					<path style="fill:#00FF85;" d="M105.4,113.8c0.4,0.3,0.5,1,0.1,1.4c-0.3,0.4-1,0.5-1.4,0.1c-0.4-0.4-0.5-1-0.1-1.4
						C104.4,113.5,105,113.4,105.4,113.8z"/>
				</g>
				<g>
					<path style="fill:#00FF85;" d="M100.2,120.5c0.4,0.3,0.6,0.9,0.2,1.4c-0.3,0.4-0.9,0.6-1.4,0.2c-0.4-0.3-0.6-0.9-0.2-1.4
						C99.1,120.3,99.7,120.2,100.2,120.5z"/>
				</g>
				<g>
					<path style="fill:#00FF85;" d="M95.6,127.7c0.5,0.3,0.6,0.9,0.4,1.4c-0.3,0.5-0.9,0.6-1.3,0.4c-0.5-0.3-0.6-0.9-0.4-1.4
						C94.5,127.6,95.1,127.4,95.6,127.7z"/>
				</g>
				<g>
					<ellipse style="fill:#00FF85;" cx="91.2" cy="136.2" rx="1" ry="1"/>
				</g>
				<g>
					<path style="fill:#00FF85;" d="M88.3,143.1c0.5,0.2,0.8,0.7,0.6,1.3c-0.2,0.5-0.7,0.8-1.3,0.6c-0.5-0.2-0.8-0.8-0.6-1.3
						C87.2,143.2,87.8,142.9,88.3,143.1z"/>
				</g>
				<g>
					<path style="fill:#00FF85;" d="M85.7,151.2c0.5,0.1,0.8,0.7,0.7,1.2c-0.1,0.5-0.7,0.8-1.2,0.7c-0.5-0.1-0.8-0.7-0.7-1.2
						C84.6,151.4,85.2,151.1,85.7,151.2z"/>
				</g>
				<g>
					<path style="fill:#00FF85;" d="M83.8,159.6c0.5,0.1,0.9,0.6,0.8,1.1c-0.1,0.5-0.6,0.9-1.1,0.8c-0.5-0.1-0.9-0.6-0.8-1.1
						C82.8,159.8,83.3,159.5,83.8,159.6z"/>
				</g>
				<g>
					<path style="fill:#00FF85;" d="M82.7,168c0.5,0,0.9,0.5,0.9,1.1c0,0.5-0.5,0.9-1.1,0.9c-0.5,0-0.9-0.5-0.9-1.1
						C81.6,168.4,82.1,168,82.7,168z"/>
				</g>
				<g>
					<ellipse style="fill:#00FF85;" cx="82.2" cy="177.5" rx="1" ry="1"/>
				</g>
				<g>
					<path style="fill:#00FF85;" d="M82.6,185.1c0.5,0,1,0.4,1.1,0.9c0,0.5-0.4,1-0.9,1.1c-0.5,0-1-0.4-1.1-0.9
						C81.6,185.6,82,185.1,82.6,185.1z"/>
				</g>
				<g>
					<path style="fill:#00FF85;" d="M83.7,193.5c0.5-0.1,1,0.3,1.1,0.8s-0.3,1-0.8,1.1c-0.5,0.1-1-0.3-1.1-0.8
						C82.8,194.1,83.1,193.6,83.7,193.5z"/>
				</g>
				<g>
					<path style="fill:#00FF85;" d="M85.5,201.9c0.5-0.1,1.1,0.2,1.2,0.7c0.1,0.5-0.2,1.1-0.7,1.2c-0.5,0.1-1.1-0.2-1.2-0.7
						C84.6,202.5,84.9,202,85.5,201.9z"/>
				</g>
				<g>
					<path style="fill:#00FF85;" d="M88,210c0.5-0.2,1.1,0.1,1.3,0.6c0.2,0.5-0.1,1.1-0.6,1.3c-0.5,0.2-1.1-0.1-1.3-0.6
						C87.2,210.7,87.5,210.2,88,210z"/>
				</g>
				<g>
					<path style="fill:#00FF85;" d="M91.2,217.9c0.5-0.2,1.1,0,1.3,0.5c0.2,0.5,0,1.1-0.5,1.3c-0.5,0.2-1.1,0-1.3-0.5
						C90.5,218.7,90.7,218.1,91.2,217.9z"/>
				</g>
				<g>
					<path style="fill:#00FF85;" d="M95.1,225.5c0.5-0.3,1.1-0.1,1.4,0.4c0.3,0.5,0.1,1.1-0.4,1.3s-1.1,0.1-1.3-0.4
						C94.5,226.3,94.7,225.7,95.1,225.5z"/>
				</g>
				<g>
					<path style="fill:#00FF85;" d="M99.7,232.7c0.4-0.3,1.1-0.2,1.4,0.2c0.3,0.5,0.2,1.1-0.2,1.4c-0.5,0.3-1.1,0.2-1.4-0.2
						C99.1,233.6,99.2,233,99.7,232.7z"/>
				</g>
				<g>
					<path style="fill:#00FF85;" d="M104.8,239.5c0.4-0.3,1-0.3,1.4,0.1c0.3,0.4,0.3,1-0.1,1.4c-0.4,0.3-1,0.3-1.4-0.1
						C104.4,240.4,104.4,239.8,104.8,239.5z"/>
				</g>
				<g>
					<ellipse style="fill:#00FF85;" cx="111.3" cy="246.4" rx="1" ry="1"/>
				</g>
				<g>
					<path style="fill:#00FF85;" d="M116.8,251.6c0.3-0.4,1-0.5,1.4-0.1c0.4,0.4,0.5,1,0.1,1.4c-0.3,0.4-1,0.5-1.4,0.1
						C116.5,252.6,116.5,252,116.8,251.6z"/>
				</g>
				<g>
					<path style="fill:#00FF85;" d="M123.6,256.8c0.3-0.4,0.9-0.6,1.4-0.2c0.4,0.3,0.6,0.9,0.2,1.4c-0.3,0.4-0.9,0.6-1.4,0.2
						C123.4,257.8,123.3,257.2,123.6,256.8z"/>
				</g>
				<g>
					<path style="fill:#00FF85;" d="M130.8,261.4c0.3-0.5,0.9-0.6,1.4-0.4c0.5,0.3,0.6,0.9,0.4,1.3c-0.3,0.5-0.9,0.6-1.4,0.4
						C130.6,262.5,130.5,261.9,130.8,261.4z"/>
				</g>
				<g>
					<path style="fill:#00FF85;" d="M138.3,265.4c0.2-0.5,0.8-0.7,1.3-0.5c0.5,0.2,0.7,0.8,0.5,1.3c-0.2,0.5-0.8,0.7-1.3,0.5
						C138.3,266.5,138.1,265.9,138.3,265.4z"/>
				</g>
				<g>
					<path style="fill:#00FF85;" d="M146.2,268.7c0.2-0.5,0.7-0.8,1.3-0.6c0.5,0.2,0.8,0.7,0.6,1.3c-0.2,0.5-0.8,0.8-1.3,0.6
						C146.2,269.7,146,269.2,146.2,268.7z"/>
				</g>
				<g>
					<path style="fill:#00FF85;" d="M154.3,271.3c0.1-0.5,0.7-0.8,1.2-0.7c0.5,0.1,0.8,0.7,0.7,1.2c-0.1,0.5-0.7,0.8-1.2,0.7
						C154.5,272.3,154.2,271.8,154.3,271.3z"/>
				</g>
				<g>
					<path style="fill:#00FF85;" d="M162.6,273.1c0.1-0.5,0.6-0.9,1.1-0.8c0.5,0.1,0.9,0.6,0.8,1.1c-0.1,0.5-0.6,0.9-1.1,0.8
						C162.9,274.2,162.5,273.7,162.6,273.1z"/>
				</g>
				<g>
					<path style="fill:#00FF85;" d="M171,274.3c0-0.5,0.5-0.9,1.1-0.9c0.5,0,0.9,0.5,0.9,1.1c0,0.5-0.5,0.9-1.1,0.9
						C171.4,275.3,171,274.8,171,274.3z"/>
				</g>
				<g>
					<ellipse style="fill:#00FF85;" cx="180.6" cy="274.7" rx="1" ry="1"/>
				</g>
				<g>
					<path style="fill:#00FF85;" d="M188.1,274.4c0-0.5,0.4-1,0.9-1.1c0.5,0,1,0.4,1.1,0.9c0,0.5-0.4,1-0.9,1.1
						C188.6,275.3,188.1,274.9,188.1,274.4z"/>
				</g>
				<g>
					<path style="fill:#00FF85;" d="M196.6,273.3c-0.1-0.5,0.3-1,0.8-1.1c0.5-0.1,1,0.3,1.1,0.8s-0.3,1-0.8,1.1
						C197.1,274.2,196.6,273.8,196.6,273.3z"/>
				</g>
				<g>
					<path style="fill:#00FF85;" d="M204.9,271.5c-0.1-0.5,0.2-1.1,0.7-1.2c0.5-0.1,1.1,0.2,1.2,0.7c0.1,0.5-0.2,1.1-0.7,1.2
						C205.6,272.3,205,272,204.9,271.5z"/>
				</g>
				<g>
					<path style="fill:#00FF85;" d="M213,269c-0.2-0.5,0.1-1.1,0.6-1.3c0.5-0.2,1.1,0.1,1.3,0.6c0.2,0.5-0.1,1.1-0.6,1.3
						C213.8,269.7,213.2,269.5,213,269z"/>
				</g>
				<g>
					<path style="fill:#00FF85;" d="M220.9,265.7c-0.2-0.5,0-1.1,0.5-1.3c0.5-0.2,1.1,0,1.3,0.5c0.2,0.5,0,1.1-0.5,1.3
						C221.7,266.4,221.1,266.2,220.9,265.7z"/>
				</g>
				<g>
					<path style="fill:#00FF85;" d="M228.5,261.8c-0.3-0.5-0.1-1.1,0.4-1.3c0.5-0.3,1.1-0.1,1.4,0.4c0.3,0.5,0.1,1.1-0.4,1.3
						C229.4,262.5,228.8,262.3,228.5,261.8z"/>
				</g>
				<g>
					<path style="fill:#00FF85;" d="M235.7,257.3c-0.3-0.4-0.2-1.1,0.2-1.4c0.4-0.3,1.1-0.2,1.4,0.2c0.3,0.4,0.2,1.1-0.2,1.4
						C236.6,257.8,236,257.7,235.7,257.3z"/>
				</g>
				<g>
					<path style="fill:#00FF85;" d="M242.5,252.1c-0.3-0.4-0.3-1,0.1-1.4c0.4-0.3,1-0.3,1.4,0.1c0.3,0.4,0.3,1-0.1,1.4
						C243.5,252.6,242.8,252.5,242.5,252.1z"/>
				</g>
				<g>
					<path style="fill:#00FF85;" d="M248.8,245c0.4-0.4,1-0.4,1.4,0c0.4,0.4,0.4,1,0,1.4c-0.4,0.4-1,0.4-1.4,0
						C248.4,246,248.4,245.3,248.8,245z"/>
				</g>
				<g>
					<path style="fill:#00FF85;" d="M254.6,240.1c-0.4-0.3-0.5-1-0.1-1.4c0.4-0.4,1-0.5,1.4-0.1c0.4,0.3,0.5,1,0.1,1.4
						C255.6,240.4,255,240.5,254.6,240.1z"/>
				</g>
				<g>
					<path style="fill:#00FF85;" d="M259.8,233.4c-0.4-0.3-0.6-0.9-0.2-1.4c0.3-0.4,0.9-0.6,1.4-0.2c0.4,0.3,0.6,0.9,0.2,1.4
						C260.9,233.6,260.3,233.7,259.8,233.4z"/>
				</g>
				<g>
					<path style="fill:#00FF85;" d="M264.5,226.2c-0.5-0.3-0.6-0.9-0.4-1.4c0.3-0.5,0.9-0.6,1.4-0.4c0.5,0.3,0.6,0.9,0.4,1.4
						C265.5,226.3,264.9,226.5,264.5,226.2z"/>
				</g>
				<g>
					<path style="fill:#00FF85;" d="M268.4,218.6c-0.5-0.2-0.7-0.8-0.5-1.3c0.2-0.5,0.8-0.7,1.3-0.5c0.5,0.2,0.7,0.8,0.5,1.3
						C269.5,218.7,268.9,218.9,268.4,218.6z"/>
				</g>
				<g>
					<path style="fill:#00FF85;" d="M271.7,210.8c-0.5-0.2-0.8-0.7-0.6-1.3c0.2-0.5,0.7-0.8,1.3-0.6c0.5,0.2,0.8,0.7,0.6,1.3
						C272.8,210.7,272.2,211,271.7,210.8z"/>
				</g>
				<g>
					<path style="fill:#00FF85;" d="M274.3,202.7c-0.5-0.1-0.8-0.7-0.7-1.2c0.1-0.5,0.7-0.8,1.2-0.7c0.5,0.1,0.8,0.7,0.7,1.2
						C275.4,202.5,274.8,202.8,274.3,202.7z"/>
				</g>
				<g>
					<path style="fill:#00FF85;" d="M276.2,194.4c-0.5-0.1-0.9-0.6-0.8-1.1c0.1-0.5,0.6-0.9,1.1-0.8c0.5,0.1,0.9,0.6,0.8,1.1
						S276.7,194.5,276.2,194.4z"/>
				</g>
				<g>
					<path style="fill:#00FF85;" d="M277.3,185.9c-0.5,0-0.9-0.5-0.9-1.1c0-0.5,0.5-0.9,1.1-0.9c0.5,0,0.9,0.5,0.9,1.1
						C278.4,185.6,277.9,185.9,277.3,185.9z"/>
				</g>
				<g>
					<ellipse style="fill:#00FF85;" cx="277.8" cy="176.4" rx="1" ry="1"/>
				</g>
				<g>
					<path style="fill:#00FF85;" d="M277.4,168.9c-0.5,0-1-0.4-1.1-0.9c0-0.5,0.4-1,0.9-1.1c0.5,0,1,0.4,1.1,0.9
						C278.4,168.4,278,168.8,277.4,168.9z"/>
				</g>
				<g>
					<path style="fill:#00FF85;" d="M276.3,160.4c-0.5,0.1-1-0.3-1.1-0.8c-0.1-0.5,0.3-1,0.8-1.1s1,0.3,1.1,0.8
						C277.2,159.8,276.9,160.3,276.3,160.4z"/>
				</g>
				<g>
					<path style="fill:#00FF85;" d="M274.5,152.1c-0.5,0.1-1.1-0.2-1.2-0.7c-0.1-0.5,0.2-1.1,0.7-1.2c0.5-0.1,1.1,0.2,1.2,0.7
						C275.4,151.4,275.1,151.9,274.5,152.1z"/>
				</g>
				<g>
					<path style="fill:#00FF85;" d="M272,143.9c-0.5,0.2-1.1-0.1-1.3-0.6s0.1-1.1,0.6-1.3c0.5-0.2,1.1,0.1,1.3,0.6
						S272.5,143.7,272,143.9z"/>
				</g>
				<g>
					<path style="fill:#00FF85;" d="M268.8,136c-0.5,0.2-1.1,0-1.3-0.5c-0.2-0.5,0-1.1,0.5-1.3c0.5-0.2,1.1,0,1.3,0.5
						C269.5,135.2,269.3,135.8,268.8,136z"/>
				</g>
				<g>
					<path style="fill:#00FF85;" d="M264.9,128.5c-0.5,0.3-1.1,0.1-1.3-0.4c-0.3-0.5-0.1-1.1,0.4-1.4c0.5-0.3,1.1-0.1,1.4,0.4
						C265.5,127.6,265.4,128.2,264.9,128.5z"/>
				</g>
				<g>
					<path style="fill:#00FF85;" d="M260.3,121.2c-0.4,0.3-1.1,0.2-1.4-0.2c-0.3-0.4-0.2-1.1,0.2-1.4c0.4-0.3,1.1-0.2,1.4,0.2
						S260.8,120.9,260.3,121.2z"/>
				</g>
				<g>
					<path style="fill:#00FF85;" d="M255.2,114.5c-0.4,0.3-1,0.3-1.4-0.1c-0.3-0.4-0.3-1,0.1-1.4c0.4-0.3,1-0.3,1.4,0.1
						C255.6,113.5,255.6,114.1,255.2,114.5z"/>
				</g>
				<g>
					<path style="fill:#00FF85;" d="M249.4,108.1c-0.4,0.4-1,0.4-1.4,0c-0.4-0.4-0.4-1,0-1.4c0.4-0.4,1-0.4,1.4,0
						C249.8,107.1,249.8,107.8,249.4,108.1z"/>
				</g>
				<g>
					<path style="fill:#00FF85;" d="M243.2,102.3c-0.3,0.4-1,0.5-1.4,0.1c-0.4-0.3-0.5-1-0.1-1.4c0.4-0.4,1-0.5,1.4-0.1
						C243.5,101.3,243.5,101.9,243.2,102.3z"/>
				</g>
				<g>
					<path style="fill:#00FF85;" d="M236.4,97.1c-0.3,0.4-0.9,0.6-1.4,0.2c-0.4-0.3-0.6-0.9-0.2-1.4c0.3-0.4,0.9-0.6,1.4-0.2
						C236.6,96.1,236.7,96.7,236.4,97.1z"/>
				</g>
				<g>
					<path style="fill:#00FF85;" d="M229.2,92.5c-0.3,0.5-0.9,0.6-1.4,0.4c-0.5-0.3-0.6-0.9-0.4-1.4c0.3-0.5,0.9-0.6,1.4-0.4
						C229.4,91.4,229.5,92.1,229.2,92.5z"/>
				</g>
				<g>
					<path style="fill:#00FF85;" d="M221.7,88.5c-0.2,0.5-0.8,0.7-1.3,0.5s-0.7-0.8-0.5-1.3c0.2-0.5,0.8-0.7,1.3-0.5
						C221.7,87.5,221.9,88,221.7,88.5z"/>
				</g>
				<g>
					<path style="fill:#00FF85;" d="M213.8,85.2c-0.2,0.5-0.7,0.8-1.3,0.6c-0.5-0.2-0.8-0.7-0.6-1.3c0.2-0.5,0.7-0.8,1.3-0.6
						C213.8,84.2,214,84.7,213.8,85.2z"/>
				</g>
				<g>
					<path style="fill:#00FF85;" d="M205.7,82.7c-0.1,0.5-0.7,0.8-1.2,0.7c-0.5-0.1-0.8-0.7-0.7-1.2c0.1-0.5,0.7-0.8,1.2-0.7
						C205.5,81.6,205.8,82.1,205.7,82.7z"/>
				</g>
				<g>
					<path style="fill:#00FF85;" d="M197.4,80.8c-0.1,0.5-0.6,0.9-1.1,0.8c-0.5-0.1-0.9-0.6-0.8-1.1c0.1-0.5,0.6-0.9,1.1-0.8
						S197.5,80.2,197.4,80.8z"/>
				</g>
				<g>
					<path style="fill:#00FF85;" d="M189,79.6c0,0.5-0.5,0.9-1.1,0.9s-0.9-0.5-0.9-1.1c0-0.5,0.5-0.9,1.1-0.9S189,79.1,189,79.6z"/>
				</g>
				<g>
					<ellipse style="fill:#00FF85;" cx="179.4" cy="79.2" rx="1" ry="1"/>
				</g>
				<g>
					<path style="fill:#00FF85;" d="M171.9,79.5c0,0.5-0.4,1-0.9,1.1s-1-0.4-1.1-0.9c0-0.5,0.4-1,0.9-1.1S171.9,79,171.9,79.5z"/>
				</g>
				<g>
					<path style="fill:#00FF85;" d="M163.5,80.6c0.1,0.5-0.3,1-0.8,1.1c-0.5,0.1-1-0.3-1.1-0.8c-0.1-0.5,0.3-1,0.8-1.1
						S163.4,80.1,163.5,80.6z"/>
				</g>
				<g>
					<path style="fill:#00FF85;" d="M155.1,82.4c0.1,0.5-0.2,1.1-0.7,1.2s-1.1-0.2-1.2-0.7c-0.1-0.5,0.2-1.1,0.7-1.2
						C154.4,81.6,155,81.9,155.1,82.4z"/>
				</g>
				<g>
					<path style="fill:#00FF85;" d="M147,84.9c0.2,0.5-0.1,1.1-0.6,1.3c-0.5,0.2-1.1-0.1-1.3-0.6c-0.2-0.5,0.1-1.1,0.6-1.3
						C146.2,84.2,146.8,84.4,147,84.9z"/>
				</g>
				<g>
					<path style="fill:#00FF85;" d="M139.1,88.2c0.2,0.5,0,1.1-0.5,1.3c-0.5,0.2-1.1,0-1.3-0.5c-0.2-0.5,0-1.1,0.5-1.3
						C138.3,87.5,138.9,87.7,139.1,88.2z"/>
				</g>
				<g>
					<path style="fill:#00FF85;" d="M131.5,92.1c0.3,0.5,0.1,1.1-0.4,1.4c-0.5,0.3-1.1,0.1-1.4-0.4c-0.3-0.5-0.1-1.1,0.4-1.4
						C130.6,91.4,131.2,91.6,131.5,92.1z"/>
				</g>
				<g>
					<path style="fill:#00FF85;" d="M124.3,96.6c0.3,0.4,0.2,1.1-0.2,1.4c-0.5,0.3-1.1,0.2-1.4-0.2c-0.3-0.4-0.2-1.1,0.2-1.4
						C123.4,96.1,124,96.2,124.3,96.6z"/>
				</g>
				<g>
					<path style="fill:#00FF85;" d="M117.5,101.8c0.3,0.4,0.3,1-0.1,1.4c-0.4,0.3-1,0.3-1.4-0.1c-0.3-0.4-0.3-1,0.1-1.4
						C116.5,101.3,117.2,101.4,117.5,101.8z"/>
				</g>
			</g>
			<g>
				<path style="fill:#00FF85;" d="M179.9,219c-11.2,0-21.8-4.4-29.7-12.4c-7.9-8-12.3-18.5-12.2-29.7c0-11.2,4.4-21.8,12.4-29.7
					c8-7.9,18.5-12.3,29.8-12.2c11.2,0,21.8,4.4,29.7,12.4c7.9,8,12.3,18.5,12.2,29.8c0,11.2-4.4,21.8-12.4,29.7
					C201.7,214.7,191.1,219,179.9,219z M180.1,135.9c-11,0-21.3,4.2-29.1,11.9c-7.8,7.7-12.1,18-12.1,29s4.2,21.3,11.9,29.1
					c7.7,7.8,18,12.1,29,12.1c11,0,21.3-4.2,29.1-11.9c7.8-7.7,12.1-18,12.1-29c0-11-4.2-21.3-11.9-29.1
					C201.4,140.2,191.1,135.9,180.1,135.9z"/>
			</g>
			<g>
				<path style="fill:#00FF85;" d="M179.9,213.5c-9.8,0-18.9-3.8-25.8-10.8c-6.9-6.9-10.7-16.1-10.6-25.9c0-9.8,3.8-18.9,10.8-25.8
					c6.9-6.9,16.1-10.7,25.9-10.6c9.8,0,18.9,3.8,25.8,10.8c14.2,14.3,14.1,37.5-0.1,51.7C198.8,209.8,189.7,213.5,179.9,213.5z
					 M180.1,140.9c-9.6,0-18.7,3.7-25.5,10.5c-6.8,6.8-10.6,15.8-10.6,25.5c0,9.6,3.7,18.7,10.5,25.5c6.8,6.8,15.8,10.6,25.5,10.6
					c9.6,0,18.7-3.7,25.5-10.5c14.1-14,14.2-36.9,0.1-51C198.8,144.7,189.7,140.9,180.1,140.9z"/>
			</g>
			<g>
				<path style="fill:#00FF85;" d="M179.9,208.3c-8.4,0-16.2-3.3-22.2-9.3c-5.9-5.9-9.2-13.8-9.1-22.2c0-8.4,3.3-16.2,9.3-22.2
					c5.9-5.9,13.8-9.2,22.2-9.1c8.4,0,16.2,3.3,22.2,9.3c12.2,12.3,12.2,32.2-0.1,44.4C196.2,205.1,188.3,208.4,179.9,208.3z
					 M180.1,145.8c-8.3,0-16.1,3.2-22,9.1s-9.2,13.7-9.2,22c0,8.3,3.2,16.1,9.1,22c5.9,5.9,13.7,9.2,22,9.2c8.3,0,16.1-3.2,22-9.1
					c12.2-12.1,12.2-31.9,0.1-44C196.2,149.1,188.4,145.9,180.1,145.8z"/>
			</g>
			<g>
				<path style="fill:#00FF85;" d="M179.9,226c-13.1,0-25.4-5.2-34.7-14.5c-19.1-19.2-19-50.3,0.2-69.4c9.3-9.3,21.6-14.3,34.8-14.3
					c13.1,0,25.4,5.2,34.7,14.5c19.1,19.2,19,50.3-0.2,69.4C205.3,221,193,226.1,179.9,226z M180.1,129.8
					c-12.6,0-24.5,4.8-33.4,13.7c-18.4,18.3-18.5,48.3-0.2,66.7c8.9,8.9,20.7,13.9,33.3,13.9c12.6,0,24.5-4.8,33.4-13.7
					c18.4-18.3,18.5-48.3,0.2-66.7C204.6,134.8,192.7,129.8,180.1,129.8z"/>
			</g>
		</g>
		<g>
			<rect x="-76" y="174.7" style="fill:#00FF85;" width="50.7" height="4"/>
			<rect x="385.3" y="174.7" style="fill:#00FF85;" width="50.7" height="4"/>
		</g>
		<g>
			
				<rect x="-7.7" y="169.2" transform="matrix(-2.885978e-003 1 -1 -2.885978e-003 171.1746 184.0419)" style="fill:#00FF85;" width="3" height="16.4"/>
			
				<rect x="178.5" y="168.8" transform="matrix(-2.565306e-003 1 -1 -2.565306e-003 357.3979 -2.5882)" style="fill:#00FF85;" width="3" height="16.4"/>
			<polygon style="fill:#00FF85;" points="53.4,302 55.5,304.2 43.9,315.7 41.8,313.6 			"/>
			
				<rect x="178.9" y="354.9" transform="matrix(1 3.208196e-003 -3.208196e-003 1 1.1659 -0.5769)" style="fill:#00FF85;" width="3" height="16.4"/>
			
				<rect x="364.6" y="168.4" transform="matrix(2.244665e-003 -1 1 2.244665e-003 188.7728 542.3337)" style="fill:#00FF85;" width="3" height="16.4"/>
			<polygon style="fill:#00FF85;" points="306.6,51.9 304.5,49.7 316.1,38.2 318.2,40.3 			"/>
			
				<rect x="178.1" y="-17.4" transform="matrix(-1 -2.726941e-003 2.726941e-003 -1 359.2334 -17.9091)" style="fill:#00FF85;" width="3" height="16.4"/>
			
				<rect x="178.5" y="168.8" transform="matrix(-1 -2.403885e-003 2.403885e-003 -1 359.6014 354.3722)" style="fill:#00FF85;" width="3" height="16.4"/>
			<polygon style="fill:#00FF85;" points="54.9,50.3 52.8,52.5 41.2,40.9 43.4,38.7 			"/>
			<g>
				<path style="fill:#00FF85;" d="M12.8,176.5C13.1,84.3,88.3,9.5,180.5,9.8c92.2,0.2,167,75.5,166.7,167.6
					c-0.2,92.2-75.5,167-167.6,166.7C87.4,343.9,12.6,268.7,12.8,176.5 M327.7,177.4c0.2-81.4-65.9-147.9-147.3-148.1
					C99,29.1,32.5,95.1,32.3,176.6C32.1,258,98.2,324.4,179.6,324.7C261,324.9,327.5,258.8,327.7,177.4 M9.6,176.5
					c-0.3,94,76,170.6,170,170.9c94,0.3,170.6-76,170.9-170c0.3-94-76-170.6-169.9-170.9C86.5,6.3,9.8,82.5,9.6,176.5L9.6,176.5z
					 M324.4,177.3c-0.2,79.6-65.2,144.3-144.8,144c-79.6-0.2-144.3-65.2-144-144.8c0.2-79.6,65.2-144.3,144.8-144
					C260.1,32.7,324.7,97.7,324.4,177.3L324.4,177.3z"/>
				<path style="opacity:0.5;fill:#00FF85;enable-background:new    ;" d="M11.2,176.5l22.7,0.1C34.2,96,99.9,30.7,180.4,30.9
					l0.1-22.7C87.4,7.9,11.5,83.4,11.2,176.5z"/>
				<g>
					<polygon style="fill:#00FF85;" points="6.9,222.3 7.3,223.8 -0.6,225.9 -1,224.4 					"/>
					<polygon style="fill:#00FF85;" points="24.5,265.6 25.3,266.9 18.2,271 17.4,269.7 					"/>
					<polygon style="fill:#00FF85;" points="89.7,331.5 91,332.2 86.9,339.3 85.6,338.5 					"/>
					<polygon style="fill:#00FF85;" points="132.7,349.6 134.2,350 132.1,357.9 130.6,357.5 					"/>
					<polygon style="fill:#00FF85;" points="352.6,224.2 353,222.8 360.9,224.9 360.5,226.4 					"/>
					<polygon style="fill:#00FF85;" points="353.1,131.6 352.7,130.1 360.6,128 361,129.5 					"/>
					<polygon style="fill:#00FF85;" points="335.5,88.3 334.7,87 341.8,82.9 342.6,84.2 					"/>
					<polygon style="fill:#00FF85;" points="270.3,22.4 269,21.7 273.1,14.6 274.4,15.4 					"/>
					<polygon style="fill:#00FF85;" points="227.3,4.3 225.8,3.9 227.9,-4 229.4,-3.6 					"/>
					<polygon style="fill:#00FF85;" points="134.6,3.8 133.1,4.2 131,-3.7 132.5,-4.1 					"/>
					<polygon style="fill:#00FF85;" points="91.4,21.5 90,22.2 86,15.1 87.3,14.4 					"/>
					<polygon style="fill:#00FF85;" points="25.5,86.6 24.7,87.9 17.6,83.8 18.4,82.5 					"/>
					<polygon style="fill:#00FF85;" points="7.4,129.7 7,131.2 -0.9,129 -0.5,127.6 					"/>
				</g>
			</g>
		</g>
		<g>
			
				<polyline style="opacity:0.4;fill:none;stroke:#00FF4E;stroke-width:8;stroke-miterlimit:10;enable-background:new    ;" points="
				460.7,420.3 491.5,392.5 491.5,-38.1 459.3,-67.2 			"/>
			<path style="opacity:0.4;fill:#00FF85;enable-background:new    ;" d="M472.7,367.5c0-0.5,0.5-0.9,1.1-0.9H491
				c0.6,0,1.1,0.4,1.1,0.9l0,0c0,0.5-0.5,0.9-1.1,0.9h-17.2C473.2,368.3,472.7,367.9,472.7,367.5L472.7,367.5z"/>
			<path style="opacity:0.4;fill:#00FF85;enable-background:new    ;" d="M482.2,345c0-0.5,0.3-0.9,0.6-0.9h8.8
				c0.3,0,0.6,0.4,0.6,0.9l0,0c0,0.5-0.3,0.9-0.6,0.9h-8.8C482.4,345.8,482.2,345.5,482.2,345L482.2,345z"/>
			<path style="opacity:0.4;fill:#00FF85;enable-background:new    ;" d="M-136.5,367.5c0-0.5,0.5-0.9,1.1-0.9h17.2
				c0.6,0,1.1,0.4,1.1,0.9l0,0c0,0.5-0.5,0.9-1.1,0.9h-17.2C-136,368.3-136.5,367.9-136.5,367.5L-136.5,367.5z"/>
			<path style="opacity:0.4;fill:#00FF85;enable-background:new    ;" d="M-136.5,345c0-0.5,0.3-0.9,0.6-0.9h8.8
				c0.3,0,0.6,0.4,0.6,0.9l0,0c0,0.5-0.3,0.9-0.6,0.9h-8.8C-136.2,345.8-136.5,345.5-136.5,345L-136.5,345z"/>
			<path style="opacity:0.4;fill:#00FF85;enable-background:new    ;" d="M482.2,322.5c0-0.5,0.3-0.9,0.6-0.9h8.8
				c0.3,0,0.6,0.4,0.6,0.9l0,0c0,0.5-0.3,0.9-0.6,0.9h-8.8C482.4,323.4,482.2,323,482.2,322.5L482.2,322.5z"/>
			<path style="fill:#00FF85;" d="M472.7,300.1c0-0.5,0.5-0.9,1-0.9h15.8c0.6,0,1,0.4,1,0.9l0,0c0,0.5-0.5,0.9-1,0.9h-15.8
				C473.2,300.9,472.7,300.6,472.7,300.1L472.7,300.1z"/>
			<path style="fill:#00FF85;" d="M472.7,277.6c0-0.5,0.5-0.9,1-0.9h15.8c0.6,0,1,0.4,1,0.9l0,0c0,0.5-0.5,0.9-1,0.9h-15.8
				C473.2,278.5,472.7,278.1,472.7,277.6L472.7,277.6z"/>
			<path style="opacity:0.4;fill:#00FF85;enable-background:new    ;" d="M482.2,255.2c0-0.5,0.3-0.9,0.6-0.9h8.8
				c0.3,0,0.6,0.4,0.6,0.9l0,0c0,0.5-0.3,0.9-0.6,0.9h-8.8C482.4,256,482.2,255.6,482.2,255.2L482.2,255.2z"/>
			<path style="opacity:0.4;fill:#00FF85;enable-background:new    ;" d="M482.2,232.7c0-0.5,0.3-0.9,0.6-0.9h8.8
				c0.3,0,0.6,0.4,0.6,0.9l0,0c0,0.5-0.3,0.9-0.6,0.9h-8.8C482.4,233.6,482.2,233.2,482.2,232.7L482.2,232.7z"/>
			<path style="opacity:0.4;fill:#00FF85;enable-background:new    ;" d="M482.2,210.2c0-0.5,0.3-0.9,0.6-0.9h8.8
				c0.3,0,0.6,0.4,0.6,0.9l0,0c0,0.5-0.3,0.9-0.6,0.9h-8.8C482.4,211.1,482.2,210.7,482.2,210.2L482.2,210.2z"/>
			<path style="fill:#00FF85;" d="M470.3,187.8c0-0.5,0.6-0.9,1.3-0.9h19.3c0.7,0,1.3,0.4,1.3,0.9l0,0c0,0.5-0.6,0.9-1.3,0.9h-19.3
				C470.9,188.7,470.3,188.3,470.3,187.8L470.3,187.8z"/>
			<path style="fill:#00FF85;" d="M470.3,165.3c0-0.5,0.6-0.9,1.3-0.9h19.3c0.7,0,1.3,0.4,1.3,0.9l0,0c0,0.5-0.6,0.9-1.3,0.9h-19.3
				C470.9,166.2,470.3,165.8,470.3,165.3L470.3,165.3z"/>
			<path style="opacity:0.4;fill:#00FF85;enable-background:new    ;" d="M482.2,142.9c0-0.5,0.3-0.9,0.6-0.9h8.8
				c0.3,0,0.6,0.4,0.6,0.9l0,0c0,0.5-0.3,0.9-0.6,0.9h-8.8C482.4,143.7,482.2,143.4,482.2,142.9L482.2,142.9z"/>
			<path style="opacity:0.4;fill:#00FF85;enable-background:new    ;" d="M482.2,120.4c0-0.5,0.3-0.9,0.6-0.9h8.8
				c0.3,0,0.6,0.4,0.6,0.9l0,0c0,0.5-0.3,0.9-0.6,0.9h-8.8C482.4,121.3,482.2,120.9,482.2,120.4L482.2,120.4z"/>
			<path style="opacity:0.4;fill:#00FF85;enable-background:new    ;" d="M482.2,98c0-0.5,0.3-0.9,0.6-0.9h8.8
				c0.3,0,0.6,0.4,0.6,0.9l0,0c0,0.5-0.3,0.9-0.6,0.9h-8.8C482.4,98.8,482.2,98.4,482.2,98L482.2,98z"/>
			<path style="fill:#00FF85;" d="M469.9,75.5c0-0.5,0.5-0.9,1.2-0.9h18.4c0.7,0,1.2,0.4,1.2,0.9l0,0c0,0.5-0.5,0.9-1.2,0.9H471
				C470.4,76.4,469.9,76,469.9,75.5L469.9,75.5z"/>
			<path style="fill:#00FF85;" d="M469.9,53c0-0.5,0.5-0.9,1.2-0.9h18.4c0.7,0,1.2,0.4,1.2,0.9l0,0c0,0.5-0.5,0.9-1.2,0.9H471
				C470.4,53.9,469.9,53.5,469.9,53L469.9,53z"/>
			<path style="opacity:0.4;fill:#00FF85;enable-background:new    ;" d="M482.2,30.6c0-0.5,0.3-0.9,0.6-0.9h8.8
				c0.3,0,0.6,0.4,0.6,0.9l0,0c0,0.5-0.3,0.9-0.6,0.9h-8.8C482.4,31.5,482.2,31.1,482.2,30.6L482.2,30.6z"/>
			<path style="opacity:0.4;fill:#00FF85;enable-background:new    ;" d="M482.2,8.1c0-0.5,0.3-0.9,0.6-0.9h8.8
				c0.3,0,0.6,0.4,0.6,0.9l0,0c0,0.5-0.3,0.9-0.6,0.9h-8.8C482.4,9,482.2,8.6,482.2,8.1L482.2,8.1z"/>
			<path style="opacity:0.4;fill:#00FF85;enable-background:new    ;" d="M470.3-14.4c0-0.5,0.6-0.9,1.3-0.9h19.3
				c0.7,0,1.3,0.4,1.3,0.9l0,0c0,0.5-0.6,0.9-1.3,0.9h-19.3C470.9-13.5,470.3-13.9,470.3-14.4L470.3-14.4z"/>
			<rect x="502.9" y="166.2" style="fill:none;" width="20.5" height="22.4"/>
			<text transform="matrix(1 0 0 1 502.8496 186.3799)" style="fill:#00FF85; font-family:'ArialMT'; font-size:24.1684;">0</text>
			<rect x="505.5" y="278.5" style="fill:none;" width="30.1" height="22.4"/>
			<text transform="matrix(1 0 0 1 505.5088 298.7041)" style="fill:#00FF85; font-family:'ArialMT'; font-size:24.1684;">-5</text>
			<rect x="509.9" y="56.2" style="fill:none;" width="30.1" height="22.4"/>
			<text transform="matrix(1 0 0 1 509.8604 76.416)" style="fill:#00FF85; font-family:'ArialMT'; font-size:24.1684;">5</text>
			
				<polyline style="opacity:0.4;fill:none;stroke:#00FF4E;stroke-width:8;stroke-miterlimit:10;enable-background:new    ;" points="
				-105,421.1 -135.8,393.3 -135.8,-37.3 -103.6,-66.4 			"/>
			<path style="opacity:0.4;fill:#00FF85;enable-background:new    ;" d="M-126.5,323.3c0-0.5-0.3-0.9-0.6-0.9h-8.8
				c-0.3,0-0.6,0.4-0.6,0.9l0,0c0,0.5,0.3,0.9,0.6,0.9h8.8C-126.8,324.2-126.5,323.8-126.5,323.3L-126.5,323.3z"/>
			<path style="fill:#00FF85;" d="M-117.1,300.9c0-0.5-0.5-0.9-1-0.9H-134c-0.6,0-1,0.4-1,0.9l0,0c0,0.5,0.5,0.9,1,0.9h15.9
				C-117.5,301.7-117.1,301.4-117.1,300.9L-117.1,300.9z"/>
			<path style="fill:#00FF85;" d="M-117.1,278.4c0-0.5-0.5-0.9-1-0.9H-134c-0.6,0-1,0.4-1,0.9l0,0c0,0.5,0.5,0.9,1,0.9h15.9
				C-117.5,279.3-117.1,278.9-117.1,278.4L-117.1,278.4z"/>
			<path style="opacity:0.4;fill:#00FF85;enable-background:new    ;" d="M-126.5,256c0-0.5-0.3-0.9-0.6-0.9h-8.8
				c-0.3,0-0.6,0.4-0.6,0.9l0,0c0,0.5,0.3,0.9,0.6,0.9h8.8C-126.8,256.8-126.5,256.4-126.5,256L-126.5,256z"/>
			<path style="opacity:0.4;fill:#00FF85;enable-background:new    ;" d="M-126.5,233.5c0-0.5-0.3-0.9-0.6-0.9h-8.8
				c-0.3,0-0.6,0.4-0.6,0.9l0,0c0,0.5,0.3,0.9,0.6,0.9h8.8C-126.8,234.4-126.5,234-126.5,233.5L-126.5,233.5z"/>
			<path style="opacity:0.4;fill:#00FF85;enable-background:new    ;" d="M-126.5,211c0-0.5-0.3-0.9-0.6-0.9h-8.8
				c-0.3,0-0.6,0.4-0.6,0.9l0,0c0,0.5,0.3,0.9,0.6,0.9h8.8C-126.8,211.9-126.5,211.5-126.5,211L-126.5,211z"/>
			<path style="fill:#00FF85;" d="M-114.6,188.6c0-0.5-0.6-0.9-1.3-0.9h-19.3c-0.7,0-1.3,0.4-1.3,0.9l0,0c0,0.5,0.6,0.9,1.3,0.9
				h19.3C-115.2,189.5-114.6,189.1-114.6,188.6L-114.6,188.6z"/>
			<path style="fill:#00FF85;" d="M-114.6,166.1c0-0.5-0.6-0.9-1.3-0.9h-19.3c-0.7,0-1.3,0.4-1.3,0.9l0,0c0,0.5,0.6,0.9,1.3,0.9
				h19.3C-115.2,167-114.6,166.6-114.6,166.1L-114.6,166.1z"/>
			<path style="opacity:0.4;fill:#00FF85;enable-background:new    ;" d="M-126.5,143.7c0-0.5-0.3-0.9-0.6-0.9h-8.8
				c-0.3,0-0.6,0.4-0.6,0.9l0,0c0,0.5,0.3,0.9,0.6,0.9h8.8C-126.8,144.5-126.5,144.2-126.5,143.7L-126.5,143.7z"/>
			<path style="opacity:0.4;fill:#00FF85;enable-background:new    ;" d="M-126.5,121.2c0-0.5-0.3-0.9-0.6-0.9h-8.8
				c-0.3,0-0.6,0.4-0.6,0.9l0,0c0,0.5,0.3,0.9,0.6,0.9h8.8C-126.8,122.1-126.5,121.7-126.5,121.2L-126.5,121.2z"/>
			<path style="opacity:0.4;fill:#00FF85;enable-background:new    ;" d="M-126.5,98.7c0-0.5-0.3-0.9-0.6-0.9h-8.8
				c-0.3,0-0.6,0.4-0.6,0.9l0,0c0,0.5,0.3,0.9,0.6,0.9h8.8C-126.8,99.6-126.5,99.2-126.5,98.7L-126.5,98.7z"/>
			<path style="fill:#00FF85;" d="M-114.2,76.3c0-0.5-0.5-0.9-1.2-0.9h-18.4c-0.7,0-1.2,0.4-1.2,0.9l0,0c0,0.5,0.5,0.9,1.2,0.9h18.4
				C-114.7,77.2-114.2,76.8-114.2,76.3L-114.2,76.3z"/>
			<path style="fill:#00FF85;" d="M-114.2,53.8c0-0.5-0.5-0.9-1.2-0.9h-18.4c-0.7,0-1.2,0.4-1.2,0.9l0,0c0,0.5,0.5,0.9,1.2,0.9h18.4
				C-114.7,54.7-114.2,54.3-114.2,53.8L-114.2,53.8z"/>
			<path style="opacity:0.4;fill:#00FF85;enable-background:new    ;" d="M-126.5,31.4c0-0.5-0.3-0.9-0.6-0.9h-8.8
				c-0.3,0-0.6,0.4-0.6,0.9l0,0c0,0.5,0.3,0.9,0.6,0.9h8.8C-126.8,32.3-126.5,31.9-126.5,31.4L-126.5,31.4z"/>
			<path style="opacity:0.4;fill:#00FF85;enable-background:new    ;" d="M-126.5,8.9c0-0.5-0.3-0.9-0.6-0.9h-8.8
				c-0.3,0-0.6,0.4-0.6,0.9l0,0c0,0.5,0.3,0.9,0.6,0.9h8.8C-126.8,9.8-126.5,9.4-126.5,8.9L-126.5,8.9z"/>
			<path style="opacity:0.4;fill:#00FF85;enable-background:new    ;" d="M-114.6-13.6c0-0.5-0.6-0.9-1.3-0.9h-19.3
				c-0.7,0-1.3,0.4-1.3,0.9l0,0c0,0.5,0.6,0.9,1.3,0.9h19.3C-115.2-12.7-114.6-13.1-114.6-13.6L-114.6-13.6z"/>
			<rect x="-167.7" y="167" style="fill:none;" width="20.5" height="22.4"/>
			<text transform="matrix(-1 0 0 1 -147.1934 187.1729)" style="fill:#00FF85; font-family:'ArialMT'; font-size:24.1684;">0</text>
			<rect x="-180" y="279.3" style="fill:none;" width="30.1" height="22.4"/>
			<text transform="matrix(1 0 0 1 -179.9893 299.4951)" style="fill:#00FF85; font-family:'ArialMT'; font-size:24.1684;">-5</text>
			<rect x="-171.5" y="56.2" style="fill:none;" width="30.1" height="22.4"/>
			<text transform="matrix(1 0 0 1 -171.5303 76.416)" style="fill:#00FF85; font-family:'ArialMT'; font-size:24.1684;">5</text>
		</g>
		<g>
			<rect x="400.4" y="148.2" style="fill:none;" width="20.5" height="22.4"/>
			<text transform="matrix(1 0 0 1 400.3652 168.4609)" style="fill:#00FF85; font-family:'ArialMT'; font-size:24.1684;">0</text>
			<path style="fill:#00FF85;" d="M421.9,151.9c0,0.9-0.8,1.7-1.7,1.7l0,0c-0.9,0-1.7-0.8-1.7-1.7l0,0c0-0.9,0.8-1.7,1.7-1.7l0,0
				C421.2,150.2,421.9,151,421.9,151.9L421.9,151.9z"/>
		</g>
		<g>
			<rect x="-59.8" y="148.2" style="fill:none;" width="20.5" height="22.4"/>
			<text transform="matrix(1 0 0 1 -59.7656 168.4609)" style="fill:#00FF85; font-family:'ArialMT'; font-size:24.1684;">0</text>
			<path style="fill:#00FF85;" d="M-38.2,151.9c0,0.9-0.8,1.7-1.7,1.7l0,0c-0.9,0-1.7-0.8-1.7-1.7l0,0c0-0.9,0.8-1.7,1.7-1.7l0,0
				C-39,150.2-38.2,151-38.2,151.9L-38.2,151.9z"/>
		</g>
	</g>
</g>
</svg>
