<?xml version="1.0" encoding="utf-8"?>
<!-- Generator: Adobe Illustrator 16.0.0, SVG Export Plug-In . SVG Version: 6.00 Build 0)  -->
<!DOCTYPE svg PUBLIC "-//W3C//DTD SVG 1.1//EN" "http://www.w3.org/Graphics/SVG/1.1/DTD/svg11.dtd">
<svg version="1.1" id="图层_1" xmlns="http://www.w3.org/2000/svg" xmlns:xlink="http://www.w3.org/1999/xlink" x="0px" y="0px"
	 width="1000px" height="1000px" viewBox="0 0 1000 1000" enable-background="new 0 0 1000 1000" xml:space="preserve">
<g>
	<g>
		<path fill="#00FF85" d="M499.542,666.204c-1.435-0.006-2.869-0.024-4.3-0.071l0.021-0.695c2.308,0.072,4.625,0.088,6.935,0.053
			l0.008,0.693C501.321,666.198,500.427,666.204,499.542,666.204z M509.17,665.95l-0.039-0.688c2.292-0.131,4.615-0.301,6.91-0.523
			l0.068,0.688C513.807,665.649,511.47,665.825,509.17,665.95z M488.285,665.791c-2.297-0.156-4.634-0.369-6.935-0.625l0.075-0.689
			c2.297,0.258,4.616,0.465,6.906,0.631L488.285,665.791z M523.029,664.62l-0.096-0.694c2.271-0.312,4.574-0.679,6.85-1.092
			l0.121,0.684C527.623,663.937,525.311,664.298,523.029,664.62z M474.445,664.247c-2.287-0.352-4.598-0.756-6.858-1.2l0.134-0.681
			c2.257,0.441,4.552,0.847,6.831,1.195L474.445,664.247z M536.732,662.138l-0.148-0.678c2.238-0.503,4.5-1.058,6.73-1.656
			l0.18,0.662C541.256,661.071,538.979,661.632,536.732,662.138z M460.787,661.563c-2.243-0.549-4.507-1.139-6.733-1.775
			l0.187-0.663c2.223,0.639,4.477,1.229,6.711,1.756L460.787,661.563z M550.184,658.53l-0.213-0.664
			c2.201-0.692,4.406-1.438,6.574-2.217l0.232,0.648C554.607,657.079,552.387,657.835,550.184,658.53z M447.396,657.743
			c-2.185-0.727-4.397-1.508-6.559-2.319l0.247-0.654c2.152,0.814,4.352,1.596,6.531,2.311L447.396,657.743z M563.279,653.8
			l-0.26-0.642c2.133-0.875,4.275-1.801,6.359-2.76l0.293,0.631C567.578,651.993,565.432,652.927,563.279,653.8z M434.379,652.823
			c-2.123-0.912-4.254-1.869-6.342-2.858l0.302-0.634c2.08,0.996,4.198,1.959,6.314,2.854L434.379,652.823z M575.939,647.997
			l-0.32-0.62c2.051-1.043,4.105-2.156,6.109-3.279l0.346,0.602C580.059,645.831,577.994,646.944,575.939,647.997z M421.82,646.831
			c-2.028-1.081-4.077-2.221-6.075-3.393l0.355-0.596c1.989,1.166,4.027,2.299,6.052,3.371L421.82,646.831z M588.059,641.146
			l-0.365-0.586c1.957-1.217,3.906-2.484,5.813-3.787l0.387,0.572C591.984,638.644,590.021,639.927,588.059,641.146z
			 M409.817,639.804c-1.935-1.238-3.873-2.547-5.769-3.879l0.4-0.566c1.886,1.326,3.815,2.629,5.746,3.865L409.817,639.804z
			 M599.566,633.298l-0.414-0.548c1.832-1.368,3.676-2.809,5.465-4.258l0.438,0.539
			C603.256,630.493,601.408,631.931,599.566,633.298z M398.448,631.796c-1.827-1.396-3.647-2.861-5.423-4.351l0.443-0.526
			c1.769,1.479,3.585,2.94,5.402,4.336L398.448,631.796z M610.371,624.526l-0.457-0.518c1.721-1.521,3.438-3.097,5.094-4.688
			l0.48,0.502C613.824,621.413,612.102,623,610.371,624.526z M387.784,622.875c-1.699-1.538-3.4-3.149-5.042-4.78l0.482-0.492
			c1.646,1.621,3.336,3.227,5.028,4.758L387.784,622.875z M620.406,614.905l-0.502-0.477c1.59-1.664,3.172-3.377,4.693-5.099
			l0.523,0.464C623.59,611.522,622.004,613.241,620.406,614.905z M377.894,613.106c-1.579-1.682-3.134-3.434-4.637-5.184
			l0.523-0.449c1.5,1.746,3.059,3.483,4.619,5.156L377.894,613.106z M629.615,604.489l-0.543-0.438
			c1.451-1.781,2.879-3.615,4.25-5.459l0.563,0.414C632.502,600.851,631.068,602.698,629.615,604.489z M368.834,602.548
			c-1.42-1.802-2.831-3.673-4.192-5.552l0.563-0.409c1.354,1.875,2.754,3.733,4.175,5.53L368.834,602.548z M637.918,593.351
			l-0.576-0.396c1.297-1.895,2.568-3.842,3.779-5.786l0.594,0.36C640.492,589.483,639.219,591.446,637.918,593.351z
			 M360.688,591.269c-1.278-1.926-2.526-3.914-3.71-5.883l0.591-0.354c1.183,1.959,2.426,3.926,3.703,5.859L360.688,591.269z
			 M645.256,581.554l-0.609-0.342c1.133-1.994,2.238-4.05,3.283-6.091l0.615,0.314C647.498,577.489,646.391,579.544,645.256,581.554
			z M353.522,579.358c-1.106-2.031-2.186-4.111-3.198-6.174l0.626-0.312c1.01,2.063,2.082,4.134,3.184,6.152L353.522,579.358z
			 M651.57,569.187l-0.629-0.291c0.951-2.08,1.881-4.219,2.754-6.348l0.641,0.264C653.463,564.952,652.529,567.095,651.57,569.187z
			 M347.389,566.884c-0.927-2.109-1.822-4.271-2.666-6.416l0.647-0.263c0.835,2.146,1.729,4.302,2.654,6.402L347.389,566.884z
			 M656.83,556.329l-0.654-0.231c0.775-2.166,1.521-4.373,2.211-6.56l0.662,0.209C658.363,551.942,657.615,554.153,656.83,556.329z
			 M342.328,553.937c-0.75-2.176-1.457-4.402-2.118-6.613l0.67-0.2c0.651,2.211,1.36,4.426,2.103,6.59L342.328,553.937z
			 M660.984,543.077l-0.672-0.182c0.596-2.213,1.146-4.469,1.656-6.717l0.672,0.149
			C662.143,538.581,661.582,540.849,660.984,543.077z M338.373,540.61c-0.563-2.235-1.089-4.516-1.556-6.762l0.681-0.146
			c0.468,2.248,0.985,4.517,1.549,6.744L338.373,540.61z M664.016,529.519l-0.686-0.125c0.408-2.252,0.77-4.547,1.084-6.824
			l0.691,0.094C664.789,524.95,664.422,527.255,664.016,529.519z M335.551,527.013c-0.377-2.271-0.709-4.59-0.986-6.879l0.689-0.082
			c0.276,2.278,0.607,4.578,0.979,6.846L335.551,527.013z M665.904,515.761l-0.691-0.064c0.225-2.283,0.393-4.604,0.516-6.901
			l0.693,0.041C666.299,511.138,666.123,513.464,665.904,515.761z M333.869,513.228c-0.18-2.307-0.319-4.637-0.408-6.941l0.698-0.02
			c0.083,2.289,0.219,4.613,0.405,6.896L333.869,513.228z M666.648,501.89l-0.703-0.004c0.008-0.486,0.014-0.97,0.016-1.451
			c0.006-1.824-0.018-3.666-0.078-5.469l0.697-0.021c0.057,1.812,0.082,3.66,0.074,5.488
			C666.654,500.921,666.648,501.409,666.648,501.89z M334.039,499.344h-0.694c0.01-2.301,0.063-4.637,0.168-6.945l0.697,0.03
			C334.102,494.729,334.051,497.054,334.039,499.344z M665.529,488.059c-0.166-2.3-0.379-4.615-0.635-6.894l0.689-0.071
			c0.26,2.283,0.475,4.606,0.641,6.913L665.529,488.059z M334.668,485.53l-0.691-0.063c0.197-2.294,0.45-4.619,0.752-6.908
			l0.688,0.094C335.123,480.933,334.87,483.247,334.668,485.53z M663.967,474.309c-0.355-2.263-0.768-4.557-1.215-6.805l0.68-0.141
			c0.455,2.258,0.865,4.563,1.221,6.841L663.967,474.309z M336.442,471.809l-0.685-0.109c0.394-2.272,0.836-4.567,1.328-6.82
			l0.68,0.141C337.278,467.271,336.836,469.561,336.442,471.809z M661.258,460.745c-0.549-2.231-1.146-4.479-1.785-6.69l0.674-0.187
			c0.641,2.211,1.242,4.47,1.779,6.711L661.258,460.745z M339.364,458.29l-0.675-0.176c0.576-2.235,1.215-4.483,1.89-6.68
			l0.665,0.201C340.571,453.815,339.938,456.063,339.364,458.29z M657.422,447.446c-0.73-2.176-1.518-4.366-2.334-6.51l0.648-0.248
			c0.822,2.154,1.611,4.36,2.342,6.546L657.422,447.446z M343.4,445.061l-0.656-0.223c0.767-2.176,1.584-4.371,2.44-6.511
			l0.646,0.26C344.979,440.715,344.158,442.899,343.4,445.061z M652.479,434.525c-0.908-2.112-1.875-4.229-2.875-6.297l0.627-0.305
			c1.002,2.082,1.975,4.205,2.893,6.322L652.479,434.525z M348.536,432.222l-0.636-0.285c0.945-2.113,1.95-4.226,2.979-6.277
			l0.625,0.312C350.477,428.016,349.477,430.118,348.536,432.222z M646.467,422.051c-1.088-2.029-2.229-4.055-3.395-6.033l0.6-0.347
			c1.168,1.978,2.314,4.018,3.408,6.059L646.467,422.051z M354.73,419.85l-0.61-0.332c1.116-2.014,2.298-4.034,3.503-6.002
			l0.589,0.356C357.013,415.841,355.845,417.855,354.73,419.85z M639.424,410.13c-1.244-1.916-2.557-3.843-3.893-5.729l0.566-0.397
			c1.346,1.89,2.652,3.828,3.906,5.753L639.424,410.13z M361.95,408.053l-0.582-0.389c1.287-1.911,2.631-3.827,3.991-5.687
			l0.562,0.409C364.564,404.241,363.23,406.143,361.95,408.053z M631.4,398.84c-1.414-1.817-2.885-3.63-4.365-5.386l0.535-0.445
			c1.488,1.761,2.963,3.583,4.383,5.412L631.4,398.84z M370.131,396.897l-0.543-0.435c1.44-1.809,2.938-3.601,4.449-5.334
			l0.527,0.451C373.059,393.31,371.563,395.101,370.131,396.897z M622.463,388.265c-1.557-1.698-3.166-3.381-4.789-5.013
			c-0.598-0.596-1.203-1.191-1.811-1.78l0.488-0.498c0.605,0.596,1.215,1.191,1.816,1.792c1.627,1.636,3.242,3.324,4.805,5.028
			L622.463,388.265z M379.222,386.453l-0.51-0.478c1.222-1.284,2.486-2.579,3.771-3.853c0.365-0.362,0.739-0.725,1.111-1.093
			l0.484,0.492c-0.374,0.363-0.742,0.727-1.11,1.094C381.699,383.879,380.433,385.168,379.222,386.453z M389.14,376.799
			l-0.465-0.522c1.725-1.538,3.5-3.071,5.272-4.536l0.447,0.533C392.623,373.733,390.858,375.251,389.14,376.799z M610.807,376.743
			c-1.719-1.538-3.494-3.062-5.254-4.512l0.439-0.539c1.771,1.461,3.551,2.989,5.275,4.537L610.807,376.743z M399.836,367.979
			l-0.42-0.554c1.847-1.398,3.75-2.777,5.633-4.087l0.399,0.564C403.569,365.215,401.673,366.582,399.836,367.979z M600.117,367.938
			c-1.84-1.394-3.723-2.75-5.607-4.064l0.396-0.565c1.889,1.312,3.787,2.688,5.633,4.076L600.117,367.938z M411.232,360.083
			l-0.377-0.585c1.962-1.244,3.967-2.45,5.961-3.6l0.348,0.601C415.179,357.645,413.18,358.851,411.232,360.083z M588.732,360.062
			c-1.947-1.231-3.939-2.443-5.928-3.584l0.344-0.6c1.998,1.148,4.002,2.36,5.959,3.594L588.732,360.062z M423.248,353.174
			l-0.32-0.615c2.054-1.073,4.157-2.107,6.241-3.087l0.294,0.626C427.385,351.071,425.293,352.103,423.248,353.174z
			 M576.725,353.153c-2.043-1.062-4.135-2.092-6.215-3.065l0.295-0.627c2.088,0.974,4.188,2.015,6.236,3.082L576.725,353.153z
			 M435.805,347.292l-0.268-0.644c2.132-0.891,4.313-1.745,6.482-2.547l0.239,0.652
			C440.101,345.551,437.931,346.399,435.805,347.292z M564.172,347.281c-2.123-0.887-4.297-1.739-6.445-2.538l0.242-0.646
			c2.152,0.792,4.334,1.652,6.471,2.547L564.172,347.281z M448.813,342.485l-0.213-0.664c2.205-0.703,4.446-1.376,6.675-1.993
			l0.181,0.668C453.242,341.106,451.011,341.775,448.813,342.485z M551.172,342.485c-2.188-0.71-4.424-1.379-6.643-1.988
			l0.188-0.668c2.229,0.616,4.471,1.29,6.668,1.993L551.172,342.485z M462.179,338.789l-0.162-0.673
			c2.255-0.529,4.546-1.005,6.818-1.44l0.132,0.684C466.703,337.784,464.422,338.265,462.179,338.789z M537.814,338.783
			c-2.246-0.519-4.529-1.005-6.785-1.424l0.129-0.684c2.268,0.425,4.561,0.911,6.814,1.434L537.814,338.783z M475.808,336.209
			l-0.101-0.684c2.289-0.337,4.616-0.627,6.907-0.865l0.07,0.688C480.405,335.588,478.091,335.877,475.808,336.209z
			 M524.189,336.209c-2.279-0.332-4.596-0.621-6.887-0.859l0.076-0.688c2.297,0.242,4.619,0.533,6.908,0.865L524.189,336.209z
			 M489.602,334.779l-0.044-0.693c2.307-0.146,4.648-0.238,6.958-0.29l0.013,0.699C494.227,334.542,491.896,334.635,489.602,334.779
			z M510.395,334.779c-2.285-0.145-4.614-0.242-6.933-0.291l0.019-0.692c2.321,0.052,4.663,0.146,6.961,0.29L510.395,334.779z"/>
	</g>
	<g>
		<path fill="#00FF85" d="M499.598,646.435c-39.214-0.108-76.043-15.442-103.696-43.176c-57.089-57.25-56.839-150.149,0.568-207.084
			c27.804-27.581,64.716-42.714,103.933-42.609c39.216,0.107,76.044,15.442,103.697,43.175
			c57.088,57.25,56.834,150.149-0.564,207.09C575.727,631.412,538.818,646.545,499.598,646.435z M500.4,354.261
			c-39.03-0.104-75.765,14.949-103.438,42.401c-57.134,56.676-57.386,149.126-0.565,206.111
			c27.524,27.604,64.173,42.856,103.205,42.963c39.034,0.112,75.764-14.945,103.444-42.402
			c57.129-56.664,57.381-149.126,0.564-206.107C576.086,369.624,539.434,354.369,500.4,354.261z"/>
	</g>
	<g>
		<g>
			<path fill="#00FF85" d="M385.066,384.733c-2.2,2.18-4.326,4.412-6.382,6.686l10.277,8.561c1.786-1.962,3.634-3.889,5.54-5.785
				c1.908-1.891,3.853-3.724,5.83-5.5l-8.533-10.295C389.513,380.44,387.266,382.549,385.066,384.733z"/>
		</g>
		<g opacity="0.95">
			<path fill="#00FF85" d="M366.745,406.391c-1.789,2.533-3.489,5.096-5.123,7.689l11.607,6.65c1.425-2.237,2.905-4.465,4.458-6.66
				c1.548-2.185,3.146-4.33,4.778-6.417l-10.189-8.664C370.379,401.394,368.533,403.857,366.745,406.391z"/>
		</g>
		<g opacity="0.9">
			<path fill="#00FF85" d="M352.471,430.896c-1.317,2.796-2.548,5.617-3.705,8.451l12.587,4.542
				c1.012-2.454,2.089-4.898,3.232-7.322c1.143-2.429,2.344-4.811,3.587-7.156l-11.545-6.763
				C355.18,425.339,353.793,428.089,352.471,430.896z"/>
		</g>
		<g opacity="0.85">
			<path fill="#00FF85" d="M342.685,457.494c-0.813,2.988-1.537,5.976-2.178,8.964l13.188,2.3c0.568-2.594,1.199-5.184,1.906-7.772
				c0.701-2.59,1.467-5.144,2.29-7.67l-12.55-4.66C344.382,451.559,343.494,454.505,342.685,457.494z"/>
		</g>
		<g opacity="0.8">
			<path fill="#00FF85" d="M337.671,485.391c-0.277,3.076-0.474,6.147-0.581,9.209l13.389-0.031c0.108-2.646,0.277-5.31,0.521-7.985
				c0.238-2.668,0.55-5.313,0.919-7.95l-13.171-2.418C338.314,479.244,337.948,482.304,337.671,485.391z"/>
		</g>
		<g opacity="0.75">
			<path fill="#00FF85" d="M337.594,513.718c0.262,3.093,0.608,6.152,1.026,9.179l13.182-2.353
				c-0.354-2.627-0.648-5.271-0.875-7.949c-0.229-2.672-0.384-5.336-0.479-7.985l-13.389-0.099
				C337.155,507.565,337.334,510.636,337.594,513.718z"/>
		</g>
		<g opacity="0.7">
			<path fill="#00FF85" d="M342.451,541.641c0.793,2.992,1.668,5.945,2.608,8.855l12.574-4.598
				c-0.807-2.527-1.558-5.086-2.248-7.677c-0.691-2.59-1.308-5.188-1.86-7.782l-13.203,2.217
				C340.95,535.655,341.658,538.647,342.451,541.641z"/>
		</g>
		<g opacity="0.65">
			<path fill="#00FF85" d="M352.095,568.29c1.307,2.818,2.677,5.568,4.111,8.271l11.579-6.701c-1.228-2.347-2.416-4.734-3.548-7.174
				c-1.125-2.433-2.19-4.877-3.188-7.343l-12.611,4.476C349.573,562.657,350.793,565.483,352.095,568.29z"/>
		</g>
		<g opacity="0.6">
			<path fill="#00FF85" d="M366.233,592.88c1.773,2.539,3.605,5.013,5.491,7.427l10.234-8.607c-1.619-2.098-3.204-4.246-4.741-6.447
				c-1.539-2.207-3.01-4.432-4.421-6.686l-11.646,6.588C362.771,587.763,364.459,590.333,366.233,592.88z"/>
		</g>
		<g opacity="0.55">
			<path fill="#00FF85" d="M384.435,614.63c2.186,2.195,4.421,4.314,6.699,6.371l8.589-10.25c-1.966-1.781-3.899-3.629-5.8-5.531
				c-1.896-1.897-3.735-3.838-5.513-5.815l-10.32,8.514C380.136,610.198,382.25,612.44,384.435,614.63z"/>
		</g>
		<g opacity="0.5">
			<path fill="#00FF85" d="M406.148,632.905c2.541,1.787,5.11,3.486,7.709,5.111l6.667-11.58c-2.246-1.418-4.473-2.896-6.672-4.441
				c-2.198-1.545-4.343-3.141-6.438-4.77l-8.687,10.163C401.142,629.284,403.611,631.124,406.148,632.905z"/>
		</g>
		<g opacity="0.45">
			<path fill="#00FF85" d="M430.719,647.141c2.803,1.314,5.634,2.544,8.476,3.697l4.558-12.553c-2.464-1.01-4.915-2.088-7.35-3.229
				c-2.433-1.142-4.825-2.334-7.172-3.576l-6.78,11.518C425.155,644.438,427.904,645.827,430.719,647.141z"/>
		</g>
		<g opacity="0.4">
			<path fill="#00FF85" d="M457.389,656.903c2.996,0.813,5.993,1.533,8.995,2.176l2.294-13.16c-2.596-0.563-5.199-1.188-7.791-1.895
				c-2.599-0.705-5.161-1.467-7.689-2.289l-4.673,12.521C451.44,655.21,454.393,656.097,457.389,656.903z"/>
		</g>
		<g opacity="0.35">
			<path fill="#00FF85" d="M485.354,661.901c3.092,0.278,6.169,0.465,9.235,0.586l-0.026-13.355c-2.662-0.104-5.325-0.28-8.009-0.52
				c-2.676-0.238-5.332-0.549-7.964-0.922l-2.426,13.139C479.194,661.259,482.26,661.622,485.354,661.901z"/>
		</g>
		<g opacity="0.3">
			<path fill="#00FF85" d="M513.762,661.978c3.092-0.259,6.16-0.604,9.199-1.021l-2.354-13.154
				c-2.637,0.357-5.299,0.652-7.977,0.881c-2.681,0.224-5.35,0.386-8.009,0.472l-0.102,13.356
				C507.593,662.413,510.666,662.243,513.762,661.978z"/>
		</g>
		<g opacity="0.25">
			<path fill="#00FF85" d="M541.754,657.136c3.004-0.795,5.961-1.661,8.877-2.6l-4.604-12.543c-2.535,0.809-5.104,1.555-7.697,2.238
				c-2.604,0.692-5.203,1.305-7.811,1.858l2.232,13.17C535.746,658.632,538.758,657.929,541.754,657.136z"/>
		</g>
		<g opacity="0.25">
			<path fill="#00FF85" d="M568.477,647.519c2.82-1.304,5.584-2.677,8.293-4.105l-6.715-11.549
				c-2.361,1.231-4.758,2.414-7.201,3.543c-2.439,1.123-4.891,2.186-7.357,3.178l4.484,12.58
				C562.826,650.032,565.664,648.819,568.477,647.519z"/>
		</g>
		<g opacity="0.2">
			<path fill="#00FF85" d="M593.123,633.417c2.545-1.77,5.025-3.598,7.451-5.479l-8.633-10.214
				c-2.102,1.623-4.256,3.203-6.461,4.734c-2.211,1.533-4.445,3.004-6.701,4.412l6.611,11.611
				C587.992,636.872,590.574,635.19,593.123,633.417z"/>
		</g>
		<g opacity="0.15">
			<path fill="#00FF85" d="M614.936,615.261c2.205-2.18,4.328-4.411,6.387-6.68l-10.273-8.563c-1.793,1.956-3.641,3.889-5.549,5.776
				c-1.908,1.896-3.852,3.73-5.822,5.5l8.523,10.297C610.488,619.548,612.736,617.442,614.936,615.261z"/>
		</g>
		<g>
			<path fill="#00FF85" d="M633.254,593.604c1.795-2.533,3.5-5.097,5.131-7.691l-11.613-6.654c-1.42,2.248-2.904,4.468-4.453,6.662
				c-1.551,2.193-3.145,4.328-4.785,6.42l10.193,8.662C629.629,598.603,631.467,596.138,633.254,593.604z"/>
		</g>
		<g opacity="0.9">
			<path fill="#00FF85" d="M647.529,569.1c1.318-2.802,2.555-5.619,3.709-8.451l-12.594-4.547c-1.008,2.459-2.08,4.903-3.229,7.334
				c-1.143,2.422-2.336,4.805-3.59,7.145l11.545,6.764C644.824,574.651,646.211,571.905,647.529,569.1z"/>
		</g>
		<g opacity="0.8">
			<path fill="#00FF85" d="M657.318,542.501c0.816-2.987,1.531-5.975,2.178-8.975l-13.189-2.295
				c-0.564,2.596-1.195,5.19-1.898,7.778c-0.707,2.591-1.467,5.146-2.293,7.666l12.547,4.666
				C655.619,548.435,656.51,545.485,657.318,542.501z"/>
		</g>
		<g opacity="0.7">
			<path fill="#00FF85" d="M662.334,514.608c0.279-3.086,0.469-6.152,0.58-9.213l-13.389,0.032c-0.111,2.646-0.279,5.308-0.52,7.984
				c-0.242,2.668-0.555,5.318-0.926,7.938l13.172,2.424C661.688,520.745,662.055,517.694,662.334,514.608z"/>
		</g>
		<g opacity="0.6">
			<path fill="#00FF85" d="M662.406,486.271c-0.258-3.086-0.605-6.143-1.023-9.178l-13.186,2.348
				c0.354,2.635,0.65,5.288,0.877,7.959c0.23,2.673,0.383,5.334,0.48,7.985l13.385,0.104
				C662.846,492.423,662.674,489.358,662.406,486.271z"/>
		</g>
		<g opacity="0.5">
			<path fill="#00FF85" d="M657.551,458.354c-0.795-2.993-1.666-5.945-2.609-8.86l-12.574,4.599c0.811,2.527,1.561,5.09,2.25,7.681
				c0.688,2.596,1.309,5.188,1.859,7.782l13.203-2.222C659.051,464.339,658.352,461.341,657.551,458.354z"/>
		</g>
		<g opacity="0.4">
			<path fill="#00FF85" d="M647.906,431.698c-1.303-2.806-2.678-5.563-4.111-8.265l-11.582,6.695
				c1.238,2.352,2.42,4.738,3.551,7.173c1.133,2.439,2.193,4.889,3.188,7.349l12.621-4.475
				C650.426,437.333,649.213,434.505,647.906,431.698z"/>
		</g>
		<g opacity="0.3">
			<path fill="#00FF85" d="M633.768,407.12c-1.775-2.542-3.602-5.013-5.49-7.432l-10.24,8.606c1.631,2.099,3.209,4.241,4.752,6.447
				c1.537,2.207,3.01,4.433,4.416,6.68l11.648-6.592C637.234,412.237,635.543,409.658,633.768,407.12z"/>
		</g>
		<g opacity="0.2">
			<path fill="#00FF85" d="M615.564,385.364c-2.188-2.2-4.422-4.318-6.699-6.369l-8.582,10.249c1.963,1.787,3.895,3.625,5.795,5.531
				c1.898,1.906,3.732,3.843,5.514,5.811l10.324-8.504C619.869,389.805,617.76,387.557,615.564,385.364z"/>
		</g>
		<g opacity="0.1">
			<path fill="#00FF85" d="M593.852,367.091c-2.535-1.788-5.109-3.486-7.703-5.117l-6.676,11.584
				c2.252,1.414,4.477,2.896,6.676,4.438c2.197,1.548,4.342,3.139,6.439,4.775l8.684-10.167
				C598.861,370.709,596.389,368.871,593.852,367.091z"/>
		</g>
		<g>
			<path fill="#00FF85" d="M569.285,352.849c-2.807-1.311-5.637-2.537-8.479-3.692l-4.553,12.559
				c2.461,1.005,4.91,2.076,7.348,3.221c2.432,1.14,4.822,2.331,7.174,3.579l6.779-11.513
				C574.855,355.553,572.098,354.169,569.285,352.849z"/>
		</g>
		<g opacity="0.75">
			<path fill="#00FF85" d="M542.613,343.092c-2.99-0.818-5.988-1.538-8.988-2.176l-2.303,13.155c2.602,0.568,5.199,1.196,7.797,1.9
				c2.594,0.697,5.156,1.46,7.688,2.282l4.674-12.516C548.568,344.789,545.615,343.9,542.613,343.092z"/>
		</g>
		<g opacity="0.5">
			<path fill="#00FF85" d="M514.652,338.095c-3.088-0.286-6.168-0.473-9.235-0.585l0.024,13.351c2.66,0.115,5.325,0.279,8.008,0.522
				c2.674,0.243,5.334,0.555,7.971,0.922l2.424-13.139C520.807,338.731,517.744,338.369,514.652,338.095z"/>
		</g>
		<g opacity="0.25">
			<path fill="#00FF85" d="M486.241,338.017c-3.095,0.259-6.16,0.601-9.194,1.025l2.352,13.144c2.635-0.354,5.291-0.647,7.97-0.876
				c2.685-0.223,5.352-0.377,8.013-0.47l0.098-13.353C492.414,337.581,489.337,337.746,486.241,338.017z"/>
		</g>
		<g>
			<path fill="#00FF85" d="M458.248,342.863c-3,0.788-5.955,1.657-8.876,2.6L453.978,358c2.533-0.808,5.099-1.549,7.7-2.241
				c2.599-0.685,5.203-1.306,7.804-1.854l-2.224-13.169C464.253,341.361,461.252,342.062,458.248,342.863z"/>
		</g>
		<g opacity="0.25">
			<path fill="#00FF85" d="M431.525,352.476c-2.82,1.305-5.576,2.672-8.289,4.106l6.719,11.548c2.352-1.231,4.747-2.418,7.188-3.536
				c2.44-1.129,4.896-2.19,7.368-3.186l-4.489-12.584C437.175,349.963,434.34,351.176,431.525,352.476z"/>
		</g>
		<g opacity="0.5">
			<path fill="#00FF85" d="M406.881,366.581c-2.551,1.767-5.028,3.595-7.454,5.475l8.635,10.212
				c2.102-1.621,4.253-3.206,6.464-4.738c2.207-1.533,4.44-2.999,6.696-4.402l-6.605-11.622
				C412.008,363.121,409.43,364.811,406.881,366.581z"/>
		</g>
	</g>
	<g>
		<g>
			
				<rect x="403.314" y="401.424" transform="matrix(-0.7092 0.705 -0.705 -0.7092 976.6343 408.3133)" fill="#00FF85" width="1.6" height="8.273"/>
		</g>
		<g>
			<polygon fill="#00FF85" points="386.853,434.901 386.052,436.279 378.887,432.126 379.693,430.748 			"/>
		</g>
		<g>
			<polygon fill="#00FF85" points="373.813,466.321 373.401,467.858 365.403,465.694 365.822,464.162 			"/>
		</g>
		<g>
			
				<rect x="364.449" y="496.697" transform="matrix(-0.0037 1 -1 -0.0037 867.4226 137.4344)" fill="#00FF85" width="1.595" height="8.282"/>
		</g>
		<g>
			<polygon fill="#00FF85" points="373.834,533.758 374.248,535.297 366.242,537.42 365.83,535.875 			"/>
		</g>
		<g>
			<polygon fill="#00FF85" points="386.897,565.176 387.692,566.555 380.504,570.666 379.709,569.287 			"/>
		</g>
		<g>
			<polygon fill="#00FF85" points="407.662,592.146 408.789,593.281 402.914,599.103 401.789,597.979 			"/>
		</g>
		<g>
			
				<rect x="432.524" y="612.696" transform="matrix(0.865 0.5017 -0.5017 0.865 367.9345 -134.1489)" fill="#00FF85" width="1.588" height="8.266"/>
		</g>
		<g>
			
				<rect x="465.146" y="625.898" transform="matrix(0.9658 0.2592 -0.2592 0.9658 179.2161 -99.2361)" fill="#00FF85" width="1.598" height="8.264"/>
		</g>
		<g>
			<polygon fill="#00FF85" points="500.036,630.271 501.634,630.283 501.611,638.543 500.012,638.539 			"/>
		</g>
		<g>
			
				<rect x="534.843" y="625.464" transform="matrix(0.9668 -0.2557 0.2557 0.9668 -143.1765 157.8889)" fill="#00FF85" width="1.604" height="8.261"/>
		</g>
		<g>
			<polygon fill="#00FF85" points="565.34,612.799 566.727,612.008 570.848,619.18 569.463,619.967 			"/>
		</g>
		<g>
			<polygon fill="#00FF85" points="592.383,592.09 593.516,590.965 599.357,596.822 598.223,597.947 			"/>
		</g>
		<g>
			<polygon fill="#00FF85" points="613.133,565.098 613.932,563.728 621.098,567.879 620.297,569.252 			"/>
		</g>
		<g>
			
				<rect x="629.558" y="529.82" transform="matrix(0.2625 -0.9649 0.9649 0.2625 -50.3716 1002.0123)" fill="#00FF85" width="1.592" height="8.282"/>
		</g>
		<g>
			<polygon fill="#00FF85" points="630.609,499.957 630.615,498.361 638.898,498.387 638.893,499.978 			"/>
		</g>
		<g>
			<polygon fill="#00FF85" points="626.15,466.243 625.736,464.7 633.746,462.582 634.158,464.13 			"/>
		</g>
		<g>
			<polygon fill="#00FF85" points="613.086,434.824 612.297,433.441 619.48,429.33 620.275,430.717 			"/>
		</g>
		<g>
			<polygon fill="#00FF85" points="592.324,407.853 591.195,406.72 597.068,400.897 598.201,402.026 			"/>
		</g>
		<g>
			<polygon fill="#00FF85" points="565.26,387.154 563.887,386.356 568.045,379.21 569.43,380.013 			"/>
		</g>
		<g>
			<polygon fill="#00FF85" points="533.758,374.156 532.215,373.73 534.385,365.767 535.928,366.176 			"/>
		</g>
		<g>
			<polygon fill="#00FF85" points="499.948,369.723 498.354,369.723 498.375,361.457 499.972,361.457 			"/>
		</g>
		<g>
			
				<rect x="463.491" y="366.235" transform="matrix(-0.9667 0.256 -0.256 -0.9667 1007.9287 609.5163)" fill="#00FF85" width="1.598" height="8.262"/>
		</g>
		<g>
			
				<rect x="431.055" y="379.878" transform="matrix(-0.8656 0.5007 -0.5007 -0.8656 997.9545 500.163)" fill="#00FF85" width="1.595" height="8.269"/>
		</g>
	</g>
	<g opacity="0.5">
		<g>
			<path fill="#00FF85" d="M399.892,399.271c0.554,0.56,0.552,1.466-0.006,2.021c-0.559,0.555-1.464,0.555-2.021-0.005
				c-0.556-0.555-0.553-1.46,0.004-2.015C398.429,398.718,399.336,398.723,399.892,399.271z"/>
		</g>
		<g>
			<path fill="#00FF85" d="M391.473,408.365c0.6,0.502,0.675,1.404,0.168,2.009c-0.507,0.59-1.41,0.673-2.009,0.166
				c-0.607-0.507-0.683-1.409-0.171-2.008C389.964,407.932,390.867,407.853,391.473,408.365z"/>
		</g>
		<g>
			<path fill="#00FF85" d="M383.878,418.143c0.643,0.455,0.797,1.346,0.342,1.987c-0.451,0.643-1.344,0.792-1.988,0.343
				c-0.646-0.445-0.799-1.341-0.348-1.979C382.339,417.847,383.231,417.697,383.878,418.143z"/>
		</g>
		<g>
			<path fill="#00FF85" d="M377.167,428.552c0.678,0.395,0.91,1.264,0.515,1.948c-0.396,0.684-1.271,0.911-1.953,0.519
				c-0.683-0.395-0.914-1.27-0.515-1.947C375.604,428.386,376.481,428.158,377.167,428.552z"/>
		</g>
		<g>
			<path fill="#00FF85" d="M371.392,439.5c0.711,0.331,1.02,1.187,0.682,1.896c-0.334,0.714-1.186,1.02-1.899,0.683
				c-0.713-0.332-1.018-1.186-0.684-1.896C369.825,439.469,370.678,439.168,371.392,439.5z"/>
		</g>
		<g>
			<path fill="#00FF85" d="M366.591,450.913c0.745,0.27,1.124,1.087,0.852,1.823c-0.275,0.733-1.096,1.118-1.832,0.849
				c-0.744-0.27-1.125-1.088-0.852-1.828C365.027,451.018,365.848,450.645,366.591,450.913z"/>
		</g>
		<g>
			<path fill="#00FF85" d="M362.812,462.701c0.763,0.196,1.209,0.988,1.001,1.74c-0.202,0.76-0.986,1.211-1.75,1.004
				c-0.764-0.203-1.213-0.984-1.002-1.746C361.261,462.939,362.048,462.493,362.812,462.701z"/>
		</g>
		<g>
			<path fill="#00FF85" d="M360.075,474.76c0.773,0.142,1.289,0.881,1.149,1.652c-0.138,0.777-0.879,1.295-1.657,1.155
				c-0.778-0.141-1.289-0.875-1.148-1.652C358.55,475.139,359.296,474.626,360.075,474.76z"/>
		</g>
		<g>
			<path fill="#00FF85" d="M358.399,487.02c0.784,0.071,1.365,0.767,1.296,1.553c-0.073,0.783-0.769,1.356-1.553,1.295
				c-0.787-0.076-1.363-0.766-1.297-1.553C356.923,487.531,357.612,486.956,358.399,487.02z"/>
		</g>
		<g>
			<path fill="#00FF85" d="M357.806,499.386c0.786,0,1.428,0.644,1.423,1.423c0,0.794-0.645,1.425-1.431,1.425
				c-0.789-0.004-1.429-0.644-1.429-1.431C356.372,500.019,357.018,499.38,357.806,499.386z"/>
		</g>
		<g>
			<path fill="#00FF85" d="M358.29,511.743c0.786-0.063,1.481,0.518,1.549,1.299c0.063,0.787-0.522,1.478-1.31,1.543
				c-0.783,0.063-1.474-0.512-1.542-1.301C356.923,512.497,357.507,511.815,358.29,511.743z"/>
		</g>
		<g>
			<path fill="#00FF85" d="M359.856,524.015c0.779-0.135,1.516,0.39,1.65,1.166c0.137,0.771-0.388,1.513-1.16,1.646
				c-0.776,0.129-1.521-0.383-1.656-1.164C358.562,524.886,359.083,524.155,359.856,524.015z"/>
		</g>
		<g>
			<path fill="#00FF85" d="M362.49,536.108c0.759-0.197,1.542,0.254,1.746,1.014c0.202,0.762-0.254,1.539-1.012,1.746
				c-0.767,0.201-1.548-0.26-1.753-1.021C361.273,537.091,361.726,536.309,362.49,536.108z"/>
		</g>
		<g>
			<path fill="#00FF85" d="M366.17,547.921c0.739-0.26,1.56,0.119,1.827,0.865c0.267,0.734-0.116,1.551-0.855,1.822
				c-0.745,0.264-1.565-0.121-1.835-0.854C365.039,549.009,365.422,548.19,366.17,547.921z"/>
		</g>
		<g>
			<path fill="#00FF85" d="M370.866,559.376c0.714-0.332,1.566-0.021,1.897,0.693c0.333,0.715,0.021,1.563-0.7,1.889
				c-0.717,0.34-1.561,0.027-1.896-0.693C369.838,560.55,370.149,559.708,370.866,559.376z"/>
		</g>
		<g>
			<path fill="#00FF85" d="M376.542,570.376c0.688-0.389,1.558-0.156,1.951,0.527c0.395,0.683,0.158,1.553-0.528,1.94
				c-0.682,0.396-1.56,0.162-1.945-0.522C375.624,571.638,375.861,570.768,376.542,570.376z"/>
		</g>
		<g>
			<path fill="#00FF85" d="M383.169,580.841c0.645-0.448,1.534-0.295,1.983,0.354c0.454,0.646,0.291,1.531-0.354,1.981
				c-0.652,0.455-1.537,0.295-1.991-0.354C382.359,582.184,382.521,581.292,383.169,580.841z"/>
		</g>
		<g>
			<path fill="#00FF85" d="M390.672,590.69c0.606-0.507,1.511-0.425,2.012,0.182c0.509,0.602,0.429,1.496-0.181,2.01
				c-0.604,0.496-1.504,0.414-2.014-0.188C389.986,592.089,390.069,591.192,390.672,590.69z"/>
		</g>
		<g>
			<path fill="#00FF85" d="M399.015,599.853c0.561-0.562,1.462-0.562,2.019,0c0.56,0.559,0.556,1.459-0.006,2.02
				c-0.561,0.553-1.463,0.553-2.019-0.006C398.452,601.306,398.455,600.401,399.015,599.853z"/>
		</g>
		<g>
			<path fill="#00FF85" d="M408.124,608.247c0.512-0.602,1.412-0.68,2.014-0.172c0.604,0.508,0.678,1.408,0.172,2.004
				c-0.509,0.604-1.415,0.68-2.015,0.178C407.694,609.749,407.616,608.847,408.124,608.247z"/>
		</g>
		<g>
			<path fill="#00FF85" d="M417.935,615.823c0.454-0.646,1.347-0.797,1.991-0.349c0.645,0.451,0.8,1.343,0.344,1.984
				c-0.453,0.643-1.346,0.797-1.99,0.346C417.633,617.354,417.479,616.464,417.935,615.823z"/>
		</g>
		<g>
			<path fill="#00FF85" d="M428.364,622.515c0.398-0.68,1.274-0.911,1.956-0.514c0.676,0.394,0.908,1.264,0.516,1.943
				c-0.397,0.682-1.27,0.914-1.954,0.518C428.204,624.063,427.971,623.196,428.364,622.515z"/>
		</g>
		<g>
			<path fill="#00FF85" d="M439.342,628.272c0.34-0.709,1.186-1.017,1.899-0.685c0.718,0.336,1.023,1.187,0.688,1.902
				c-0.336,0.707-1.186,1.014-1.898,0.682C439.315,629.837,439.007,628.987,439.342,628.272z"/>
		</g>
		<g>
			<path fill="#00FF85" d="M450.783,633.059c0.271-0.734,1.097-1.119,1.834-0.851c0.744,0.281,1.123,1.092,0.851,1.83
				c-0.271,0.744-1.092,1.123-1.831,0.854C450.892,634.622,450.513,633.792,450.783,633.059z"/>
		</g>
		<g>
			<path fill="#00FF85" d="M462.598,636.833c0.21-0.762,0.994-1.207,1.752-1.006c0.763,0.209,1.218,0.99,1.007,1.746
				c-0.207,0.766-0.988,1.213-1.755,1.004C462.847,638.376,462.393,637.595,462.598,636.833z"/>
		</g>
		<g>
			<path fill="#00FF85" d="M474.698,639.562c0.141-0.771,0.882-1.289,1.656-1.148c0.778,0.135,1.294,0.879,1.155,1.652
				c-0.138,0.774-0.88,1.289-1.657,1.147C475.074,641.079,474.559,640.339,474.698,639.562z"/>
		</g>
		<g>
			<path fill="#00FF85" d="M486.988,641.231c0.074-0.785,0.77-1.363,1.557-1.293c0.782,0.067,1.361,0.768,1.293,1.547
				c-0.069,0.791-0.768,1.36-1.552,1.293C487.499,642.7,486.918,642.018,486.988,641.231z"/>
		</g>
		<g>
			<path fill="#00FF85" d="M499.38,641.819c0.004-0.781,0.645-1.418,1.431-1.418c0.791,0,1.432,0.643,1.427,1.428
				c0,0.789-0.644,1.43-1.431,1.426C500.017,643.255,499.38,642.612,499.38,641.819z"/>
		</g>
		<g>
			<path fill="#00FF85" d="M511.776,641.345c-0.068-0.789,0.519-1.481,1.304-1.549c0.785-0.063,1.479,0.517,1.549,1.301
				c0.064,0.785-0.521,1.476-1.313,1.541C512.535,642.7,511.842,642.12,511.776,641.345z"/>
		</g>
		<g>
			<path fill="#00FF85" d="M524.08,639.78c-0.135-0.777,0.389-1.513,1.166-1.648c0.779-0.133,1.52,0.383,1.652,1.156
				c0.135,0.777-0.387,1.518-1.166,1.646C524.959,641.069,524.217,640.55,524.08,639.78z"/>
		</g>
		<g>
			<path fill="#00FF85" d="M536.205,637.153c-0.199-0.761,0.25-1.547,1.016-1.744c0.76-0.203,1.543,0.248,1.748,1.014
				c0.201,0.756-0.254,1.539-1.016,1.742C537.188,638.364,536.406,637.915,536.205,637.153z"/>
		</g>
		<g>
			<path fill="#00FF85" d="M548.053,633.483c-0.268-0.742,0.117-1.562,0.859-1.824c0.742-0.269,1.561,0.113,1.824,0.854
				c0.268,0.74-0.115,1.56-0.855,1.83C549.139,634.612,548.32,634.218,548.053,633.483z"/>
		</g>
		<g>
			<path fill="#00FF85" d="M559.535,628.802c-0.33-0.715-0.02-1.563,0.697-1.896c0.715-0.33,1.561-0.021,1.896,0.692
				c0.332,0.709,0.014,1.56-0.699,1.896C560.715,629.821,559.865,629.511,559.535,628.802z"/>
		</g>
		<g>
			<path fill="#00FF85" d="M570.564,623.128c-0.395-0.676-0.156-1.557,0.523-1.938c0.688-0.394,1.559-0.156,1.953,0.522
				c0.387,0.688,0.156,1.56-0.527,1.945C571.822,624.052,570.955,623.813,570.564,623.128z"/>
		</g>
		<g>
			<path fill="#00FF85" d="M581.053,616.526c-0.449-0.646-0.287-1.531,0.357-1.978c0.646-0.457,1.537-0.291,1.984,0.353
				c0.455,0.643,0.289,1.532-0.354,1.981C582.393,617.335,581.504,617.175,581.053,616.526z"/>
		</g>
		<g>
			<path fill="#00FF85" d="M590.928,609.044c-0.504-0.604-0.424-1.506,0.182-2.01c0.607-0.508,1.51-0.43,2.01,0.178
				c0.512,0.605,0.428,1.506-0.18,2.008C592.334,609.728,591.434,609.646,590.928,609.044z"/>
		</g>
		<g>
			<path fill="#00FF85" d="M600.109,600.722c-0.559-0.553-0.555-1.461,0.004-2.016c0.563-0.555,1.467-0.555,2.021,0.006
				c0.557,0.562,0.553,1.461-0.006,2.021C601.57,601.282,600.668,601.282,600.109,600.722z"/>
		</g>
		<g>
			<path fill="#00FF85" d="M608.531,591.634c-0.604-0.508-0.68-1.401-0.172-2.004c0.508-0.606,1.412-0.684,2.014-0.172
				c0.602,0.504,0.678,1.404,0.172,2.01C610.035,592.063,609.135,592.14,608.531,591.634z"/>
		</g>
		<g>
			<path fill="#00FF85" d="M616.129,581.856c-0.646-0.461-0.809-1.347-0.348-1.994c0.451-0.642,1.342-0.797,1.986-0.336
				c0.645,0.448,0.801,1.342,0.348,1.981C617.666,582.151,616.773,582.309,616.129,581.856z"/>
		</g>
		<g>
			<path fill="#00FF85" d="M622.838,571.452c-0.688-0.404-0.916-1.273-0.52-1.957c0.398-0.68,1.271-0.902,1.953-0.521
				c0.682,0.404,0.912,1.275,0.514,1.959C624.395,571.606,623.518,571.839,622.838,571.452z"/>
		</g>
		<g>
			<path fill="#00FF85" d="M628.609,560.493c-0.711-0.33-1.018-1.18-0.684-1.889c0.34-0.716,1.186-1.021,1.9-0.689
				c0.713,0.336,1.023,1.18,0.682,1.896C630.176,560.524,629.326,560.825,628.609,560.493z"/>
		</g>
		<g>
			<path fill="#00FF85" d="M633.408,549.091c-0.736-0.274-1.119-1.094-0.848-1.834c0.271-0.737,1.092-1.117,1.834-0.85
				c0.738,0.271,1.117,1.094,0.846,1.834C634.969,548.977,634.15,549.36,633.408,549.091z"/>
		</g>
		<g>
			<path fill="#00FF85" d="M637.191,537.304c-0.76-0.207-1.213-0.993-1.002-1.756c0.205-0.752,0.99-1.201,1.746-0.998
				c0.764,0.207,1.211,0.992,1.01,1.75C638.736,537.056,637.953,537.511,637.191,537.304z"/>
		</g>
		<g>
			<path fill="#00FF85" d="M639.93,525.237c-0.775-0.14-1.297-0.881-1.156-1.65c0.137-0.783,0.881-1.291,1.66-1.156
				c0.779,0.142,1.295,0.88,1.156,1.652C641.449,524.86,640.703,525.372,639.93,525.237z"/>
		</g>
		<g>
			<path fill="#00FF85" d="M641.598,512.974c-0.783-0.071-1.361-0.76-1.291-1.547c0.072-0.782,0.766-1.362,1.549-1.291
				c0.787,0.072,1.369,0.769,1.299,1.55C643.084,512.468,642.385,513.046,641.598,512.974z"/>
		</g>
		<g>
			<path fill="#00FF85" d="M642.197,500.618c-0.791-0.006-1.43-0.646-1.428-1.429c0.004-0.787,0.645-1.431,1.434-1.419
				c0.789,0,1.428,0.643,1.428,1.43C643.627,499.987,642.984,500.618,642.197,500.618z"/>
		</g>
		<g>
			<path fill="#00FF85" d="M641.713,488.256c-0.791,0.063-1.48-0.518-1.545-1.31c-0.068-0.777,0.514-1.472,1.301-1.533
				c0.783-0.067,1.479,0.518,1.545,1.306C643.08,487.496,642.494,488.189,641.713,488.256z"/>
		</g>
		<g>
			<path fill="#00FF85" d="M640.143,475.979c-0.779,0.135-1.518-0.384-1.65-1.159c-0.137-0.778,0.387-1.514,1.164-1.647
				c0.775-0.135,1.518,0.383,1.652,1.154C641.441,475.108,640.922,475.843,640.143,475.979z"/>
		</g>
		<g>
			<path fill="#00FF85" d="M637.516,463.891c-0.768,0.196-1.549-0.254-1.752-1.016c-0.203-0.756,0.256-1.538,1.016-1.739
				c0.764-0.207,1.545,0.248,1.748,1.004C638.73,462.907,638.275,463.689,637.516,463.891z"/>
		</g>
		<g>
			<path fill="#00FF85" d="M633.832,452.074c-0.738,0.264-1.563-0.119-1.828-0.86c-0.268-0.739,0.117-1.554,0.859-1.821
				c0.74-0.266,1.563,0.118,1.828,0.854C634.957,450.991,634.574,451.804,633.832,452.074z"/>
		</g>
		<g>
			<path fill="#00FF85" d="M629.133,440.619c-0.715,0.331-1.561,0.02-1.896-0.695c-0.332-0.714-0.016-1.553,0.697-1.896
				c0.719-0.326,1.563-0.017,1.9,0.705C630.164,439.447,629.85,440.287,629.133,440.619z"/>
		</g>
		<g>
			<path fill="#00FF85" d="M623.457,429.618c-0.688,0.394-1.557,0.156-1.951-0.523c-0.396-0.683-0.156-1.554,0.525-1.94
				c0.684-0.395,1.563-0.161,1.953,0.521C624.373,428.355,624.139,429.23,623.457,429.618z"/>
		</g>
		<g>
			<path fill="#00FF85" d="M616.838,419.158c-0.646,0.445-1.545,0.29-1.992-0.357c-0.449-0.643-0.289-1.532,0.357-1.978
				c0.646-0.456,1.539-0.295,1.988,0.347C617.641,417.816,617.486,418.702,616.838,419.158z"/>
		</g>
		<g>
			<path fill="#00FF85" d="M609.326,409.309c-0.602,0.502-1.504,0.425-2.012-0.177c-0.506-0.609-0.426-1.512,0.186-2.009
				c0.6-0.507,1.502-0.425,2.008,0.182C610.018,407.91,609.932,408.807,609.326,409.309z"/>
		</g>
		<g>
			<path fill="#00FF85" d="M600.988,400.147c-0.561,0.559-1.465,0.559-2.025-0.006c-0.555-0.555-0.553-1.455,0.008-2.01
				c0.559-0.559,1.467-0.559,2.021,0C601.551,398.692,601.547,399.594,600.988,400.147z"/>
		</g>
		<g>
			<path fill="#00FF85" d="M591.875,391.752c-0.508,0.602-1.412,0.679-2.012,0.165c-0.604-0.502-0.682-1.402-0.172-2.009
				c0.512-0.59,1.412-0.668,2.012-0.166C592.311,390.25,592.387,391.152,591.875,391.752z"/>
		</g>
		<g>
			<path fill="#00FF85" d="M582.068,384.177c-0.453,0.643-1.346,0.797-1.988,0.348c-0.646-0.457-0.807-1.346-0.35-1.989
				c0.453-0.638,1.35-0.798,1.988-0.342C582.365,382.643,582.52,383.528,582.068,384.177z"/>
		</g>
		<g>
			<path fill="#00FF85" d="M571.635,377.48c-0.398,0.683-1.271,0.916-1.953,0.518c-0.68-0.394-0.91-1.265-0.52-1.946
				c0.396-0.68,1.27-0.912,1.953-0.515C571.803,375.933,572.029,376.807,571.635,377.48z"/>
		</g>
		<g>
			<path fill="#00FF85" d="M560.658,371.722c-0.338,0.715-1.188,1.025-1.9,0.684c-0.713-0.337-1.021-1.181-0.686-1.896
				c0.336-0.704,1.188-1.021,1.898-0.684C560.686,370.166,560.992,371.013,560.658,371.722z"/>
		</g>
		<g>
			<path fill="#00FF85" d="M549.217,366.941c-0.271,0.736-1.096,1.113-1.834,0.844c-0.74-0.27-1.119-1.087-0.848-1.833
				c0.271-0.735,1.092-1.108,1.834-0.845C549.109,365.382,549.486,366.196,549.217,366.941z"/>
		</g>
		<g>
			<path fill="#00FF85" d="M537.398,363.165c-0.203,0.756-0.992,1.212-1.75,1.005c-0.764-0.208-1.209-0.988-1.002-1.75
				c0.203-0.756,0.988-1.207,1.75-1.004C537.16,361.622,537.605,362.405,537.398,363.165z"/>
		</g>
		<g>
			<path fill="#00FF85" d="M525.303,360.433c-0.141,0.776-0.879,1.294-1.658,1.153c-0.779-0.139-1.297-0.875-1.156-1.65
				c0.139-0.776,0.881-1.294,1.656-1.149C524.926,358.919,525.439,359.665,525.303,360.433z"/>
		</g>
		<g>
			<path fill="#00FF85" d="M513.012,358.765c-0.072,0.787-0.77,1.366-1.552,1.294c-0.786-0.073-1.367-0.767-1.302-1.543
				c0.074-0.787,0.771-1.367,1.561-1.294C512.502,357.293,513.082,357.986,513.012,358.765z"/>
		</g>
		<g>
			<path fill="#00FF85" d="M500.618,358.173c0,0.787-0.644,1.43-1.431,1.425c-0.79-0.005-1.427-0.643-1.427-1.435
				c0.004-0.782,0.645-1.419,1.435-1.419C499.982,356.749,500.62,357.388,500.618,358.173z"/>
		</g>
		<g>
			<path fill="#00FF85" d="M488.224,358.66c0.063,0.787-0.518,1.471-1.3,1.538c-0.789,0.068-1.479-0.513-1.542-1.3
				c-0.067-0.783,0.511-1.471,1.297-1.538S488.159,357.878,488.224,358.66z"/>
		</g>
		<g>
			<path fill="#00FF85" d="M475.918,360.225c0.135,0.771-0.385,1.512-1.163,1.646c-0.778,0.13-1.517-0.383-1.654-1.164
				c-0.132-0.771,0.387-1.507,1.166-1.646C475.04,358.924,475.783,359.447,475.918,360.225z"/>
		</g>
		<g>
			<path fill="#00FF85" d="M463.797,362.846c0.196,0.76-0.254,1.543-1.019,1.738c-0.762,0.208-1.542-0.248-1.747-1.004
				c-0.202-0.761,0.256-1.543,1.021-1.75C462.813,361.632,463.592,362.089,463.797,362.846z"/>
		</g>
		<g>
			<path fill="#00FF85" d="M451.943,366.517c0.275,0.74-0.112,1.559-0.854,1.828c-0.739,0.265-1.562-0.119-1.827-0.864
				c-0.266-0.735,0.115-1.553,0.857-1.823C450.86,365.393,451.679,365.776,451.943,366.517z"/>
		</g>
		<g>
			<path fill="#00FF85" d="M440.469,371.204c0.332,0.714,0.018,1.553-0.701,1.885c-0.715,0.331-1.562,0.021-1.891-0.693
				c-0.339-0.715-0.021-1.564,0.692-1.886C439.287,370.172,440.139,370.489,440.469,371.204z"/>
		</g>
		<g>
			<path fill="#00FF85" d="M429.439,376.868c0.39,0.685,0.157,1.548-0.529,1.942c-0.687,0.394-1.555,0.16-1.949-0.528
				c-0.394-0.678-0.156-1.549,0.526-1.941C428.173,375.947,429.045,376.186,429.439,376.868z"/>
		</g>
		<g>
			<path fill="#00FF85" d="M418.946,383.467c0.454,0.647,0.291,1.532-0.354,1.987c-0.651,0.446-1.542,0.285-1.991-0.356
				c-0.449-0.646-0.29-1.538,0.354-1.983C417.606,382.663,418.501,382.824,418.946,383.467z"/>
		</g>
		<g>
			<path fill="#00FF85" d="M409.073,390.955c0.507,0.606,0.421,1.507-0.182,2.01c-0.605,0.508-1.506,0.425-2.012-0.187
				c-0.502-0.596-0.421-1.497,0.182-2C407.663,390.271,408.564,390.354,409.073,390.955z"/>
		</g>
	</g>
</g>
</svg>
