<?xml version="1.0" encoding="utf-8"?>
<!-- Generator: Adobe Illustrator 16.0.0, SVG Export Plug-In . SVG Version: 6.00 Build 0)  -->
<!DOCTYPE svg PUBLIC "-//W3C//DTD SVG 1.1//EN" "http://www.w3.org/Graphics/SVG/1.1/DTD/svg11.dtd">
<svg version="1.1" id="图层_1" xmlns="http://www.w3.org/2000/svg" xmlns:xlink="http://www.w3.org/1999/xlink" x="0px" y="0px"
	 width="1000px" height="1000px" viewBox="0 0 1000 1000" enable-background="new 0 0 1000 1000" xml:space="preserve">
<g>
	
		<rect x="226.996" y="488.683" transform="matrix(0.0031 -1 1 0.0031 -272.1039 728.2324)" fill="#00FF85" width="4.402" height="23.817"/>
	<polygon fill="#00FF85" points="315.823,681.469 318.93,684.586 302.042,701.34 298.935,698.217 	"/>
	<polygon fill="#00FF85" points="498.417,758.211 502.83,758.227 502.766,781.981 498.352,781.967 	"/>
	
		<rect x="768.606" y="487.508" transform="matrix(-0.0027 1 -1 -0.0027 1272.2703 -270.0629)" fill="#00FF85" width="4.402" height="23.81"/>
	<polygon fill="#00FF85" points="684.193,318.527 681.073,315.398 697.958,298.661 701.068,301.779 	"/>
	<polygon fill="#00FF85" points="501.585,241.779 497.169,241.764 497.234,218.02 501.648,218.035 	"/>
	<polygon fill="#00FF85" points="318.053,316.29 314.929,319.392 298.135,302.556 301.269,299.449 	"/>
	<g>
		<path fill="#00FF85" d="M256.834,499.331c0.369-133.724,109.75-242.228,243.836-241.866
			c134.074,0.368,242.861,109.473,242.496,243.196c-0.363,133.725-109.751,242.238-243.824,241.875
			C365.253,742.163,256.467,633.059,256.834,499.331 M714.835,500.579c0.321-118.142-95.786-214.532-214.243-214.854
			c-118.462-0.321-215.103,95.542-215.425,213.684c-0.324,118.156,95.787,214.541,214.253,214.867
			C617.873,714.598,714.508,618.735,714.835,500.579 M252.117,499.319c-0.373,136.324,110.518,247.547,247.212,247.92
			C636.012,747.612,747.512,637,747.885,500.67c0.371-136.327-110.518-247.535-247.2-247.908
			C363.989,252.386,252.494,362.991,252.117,499.319L252.117,499.319z M710.118,500.567
			c-0.316,115.559-94.829,209.307-210.686,208.99c-115.858-0.32-209.863-94.582-209.547-210.135
			c0.318-115.556,94.839-209.306,210.695-208.99C616.439,290.749,710.434,385.011,710.118,500.567L710.118,500.567z"/>
		<path opacity="0.5" fill="#00FF85" d="M254.477,499.325l33.05,0.088c0.321-116.846,95.895-211.646,213.061-211.336l0.091-32.962
			C365.294,254.746,254.844,364.302,254.477,499.325z"/>
		<g>
			<polygon fill="#00FF85" points="248.166,565.84 248.734,567.973 237.223,571.018 236.665,568.885 			"/>
			<polygon fill="#00FF85" points="273.841,628.616 274.931,630.516 264.611,636.424 263.509,634.52 			"/>
			<polygon fill="#00FF85" points="368.614,724.161 370.513,725.272 364.542,735.545 362.634,734.436 			"/>
			<polygon fill="#00FF85" points="431.253,750.444 433.385,751.018 430.273,762.485 428.141,761.905 			"/>
			<polygon fill="#00FF85" points="751.107,568.559 751.676,566.43 763.171,569.538 762.6,571.661 			"/>
			<polygon fill="#00FF85" points="751.837,434.146 751.265,432.013 762.777,428.988 763.352,431.102 			"/>
			<polygon fill="#00FF85" points="726.162,371.391 725.072,369.475 735.395,363.566 736.496,365.472 			"/>
			<polygon fill="#00FF85" points="631.392,275.829 629.486,274.721 635.464,264.461 637.368,265.565 			"/>
			<polygon fill="#00FF85" points="568.747,249.547 566.616,248.973 569.728,237.517 571.859,238.087 			"/>
			
				<rect x="430.288" y="237.422" transform="matrix(0.9663 -0.2573 0.2573 0.9663 -48.0885 119.1734)" fill="#00FF85" width="2.211" height="11.884"/>
			<polygon fill="#00FF85" points="371.052,274.421 369.145,275.518 363.21,265.207 365.133,264.12 			"/>
			<polygon fill="#00FF85" points="275.24,368.958 274.142,370.853 263.839,364.891 264.95,362.981 			"/>
			<polygon fill="#00FF85" points="248.896,431.432 248.321,433.561 236.829,430.459 237.413,428.33 			"/>
		</g>
		<g>
			<polygon fill="#00FF85" points="565.938,751.753 568.071,751.185 571.116,762.696 568.983,763.254 			"/>
			<polygon fill="#00FF85" points="628.713,726.078 630.614,724.988 636.522,735.308 634.618,736.41 			"/>
			<polygon fill="#00FF85" points="724.258,631.305 725.37,629.406 735.643,635.377 734.534,637.285 			"/>
			<polygon fill="#00FF85" points="750.542,568.666 751.116,566.534 762.583,569.647 762.002,571.778 			"/>
			<polygon fill="#00FF85" points="568.657,248.812 566.528,248.242 569.635,236.747 571.758,237.318 			"/>
			<polygon fill="#00FF85" points="434.244,248.081 432.111,248.653 429.086,237.142 431.2,236.566 			"/>
			<polygon fill="#00FF85" points="371.489,273.757 369.573,274.847 363.664,264.523 365.57,263.423 			"/>
			<polygon fill="#00FF85" points="275.926,368.527 274.819,370.433 264.559,364.455 265.664,362.551 			"/>
			<polygon fill="#00FF85" points="249.645,431.172 249.071,433.303 237.615,430.191 238.185,428.06 			"/>
			
				<rect x="242.356" y="562.583" transform="matrix(-0.2571 -0.9664 0.9664 -0.2571 -243.3756 949.9495)" fill="#00FF85" width="2.211" height="11.884"/>
			<polygon fill="#00FF85" points="274.519,628.867 275.616,630.774 265.305,636.708 264.218,634.786 			"/>
			<polygon fill="#00FF85" points="369.055,724.679 370.951,725.777 364.989,736.08 363.079,734.969 			"/>
			<polygon fill="#00FF85" points="431.53,751.023 433.659,751.598 430.558,763.09 428.428,762.506 			"/>
		</g>
	</g>
	
		<rect x="306.731" y="679.996" transform="matrix(-0.7049 -0.7093 0.7093 -0.7049 35.9109 1398.7504)" fill="#00FF85" width="4.403" height="23.817"/>
	<polygon fill="#00FF85" points="498.086,758.551 502.487,758.558 502.393,782.346 497.988,782.335 	"/>
	<polygon fill="#00FF85" points="681.465,683.702 684.596,680.593 701.347,697.435 698.216,700.546 	"/>
	
		<rect x="688.875" y="296.19" transform="matrix(0.7052 0.709 -0.709 0.7052 422.1524 -399.145)" fill="#00FF85" width="4.402" height="23.809"/>
	<polygon fill="#00FF85" points="501.924,241.436 497.505,241.429 497.611,217.654 502.014,217.661 	"/>
	<polygon fill="#00FF85" points="318.532,316.289 315.398,319.402 298.654,302.566 301.787,299.455 	"/>
	<polygon fill="#00FF85" points="241.442,498.753 241.427,503.156 217.647,503.126 217.666,498.713 	"/>
</g>
</svg>
