<?xml version="1.0" encoding="utf-8"?>
<!-- Generator: Adobe Illustrator 16.0.0, SVG Export Plug-In . SVG Version: 6.00 Build 0)  -->
<!DOCTYPE svg PUBLIC "-//W3C//DTD SVG 1.1//EN" "http://www.w3.org/Graphics/SVG/1.1/DTD/svg11.dtd">
<svg version="1.1" id="图层_1" xmlns="http://www.w3.org/2000/svg" xmlns:xlink="http://www.w3.org/1999/xlink" x="0px" y="0px"
	 width="1000px" height="1000px" viewBox="0 0 1000 1000" enable-background="new 0 0 1000 1000" xml:space="preserve">
<g>
	<g>
		<path fill="#00FF85" d="M502.994,560.967c-16.331-0.041-31.663-6.426-43.179-17.975c-11.514-11.549-17.833-26.871-17.789-43.164
			c0.048-16.281,6.447-31.58,18.025-43.066s26.946-17.783,43.276-17.736c16.329,0.042,31.66,6.426,43.18,17.975
			c11.513,11.549,17.826,26.877,17.786,43.158c-0.048,16.293-6.447,31.586-18.026,43.072
			C534.69,554.713,519.323,561.014,502.994,560.967z M503.323,440.413c-15.959-0.047-30.977,6.104-42.291,17.333
			c-11.314,11.227-17.569,26.173-17.614,42.088c-0.044,15.918,6.132,30.896,17.384,42.18c11.251,11.279,26.235,17.525,42.194,17.566
			c15.956,0.041,30.978-6.111,42.291-17.338c11.321-11.219,17.572-26.162,17.616-42.084c0.041-15.919-6.126-30.895-17.386-42.186
			C534.268,446.689,519.28,440.454,503.323,440.413z"/>
	</g>
	<g>
		<path fill="#00FF85" d="M503.016,553.018c-14.201-0.035-27.534-5.588-37.552-15.629c-10.01-10.045-15.507-23.371-15.468-37.54
			c0.039-14.159,5.608-27.468,15.673-37.447c10.071-9.989,23.436-15.469,37.636-15.433c14.202,0.041,27.533,5.598,37.551,15.635
			c20.67,20.735,20.578,54.371-0.205,74.988C530.576,547.58,517.216,553.055,503.016,553.018z M503.303,447.663
			c-14.014-0.037-27.204,5.37-37.141,15.23c-9.94,9.854-15.434,22.983-15.471,36.955c-0.039,13.983,5.382,27.136,15.269,37.048
			c9.88,9.914,23.043,15.393,37.058,15.426c14.014,0.039,27.205-5.363,37.139-15.225c20.514-20.346,20.604-53.541,0.2-74.002
			C530.479,453.184,517.316,447.699,503.303,447.663z"/>
	</g>
	<g>
		<path fill="#00FF85" d="M503.034,545.52c-12.192-0.035-23.64-4.801-32.232-13.424c-8.599-8.623-13.315-20.066-13.281-32.227
			c0.033-12.16,4.813-23.574,13.455-32.149s20.114-13.277,32.312-13.247c12.19,0.037,23.637,4.801,32.232,13.424
			c17.75,17.793,17.669,46.67-0.175,64.377C526.7,540.85,515.229,545.557,503.034,545.52z M503.285,454.825
			c-12.102-0.036-23.486,4.63-32.063,13.144c-8.577,8.509-13.32,19.834-13.354,31.9c-0.034,12.066,4.649,23.43,13.178,31.984
			c8.53,8.555,19.892,13.281,31.991,13.318c12.101,0.031,23.485-4.639,32.063-13.145c17.707-17.564,17.785-46.223,0.173-63.889
			C526.742,459.584,515.385,454.855,503.285,454.825z"/>
	</g>
	<g>
		<path fill="#00FF85" d="M502.965,571.217c-19.071-0.047-36.984-7.504-50.432-21c-27.765-27.84-27.644-73.03,0.274-100.715
			c13.524-13.424,31.479-20.777,50.55-20.725c19.073,0.051,36.98,7.508,50.432,20.999c27.767,27.841,27.644,73.024-0.275,100.714
			C539.988,563.914,522.038,571.268,502.965,571.217z M503.347,431.552c-18.331-0.052-35.585,7.022-48.583,19.913
			c-26.829,26.617-26.945,70.035-0.266,96.805c12.927,12.957,30.144,20.125,48.475,20.176c18.332,0.047,35.586-7.021,48.584-19.918
			c26.828-26.617,26.947-70.035,0.265-96.8C538.891,438.767,521.681,431.599,503.347,431.552z"/>
	</g>
	<g>
		<rect x="130.833" y="496.746" fill="#00FF85" width="73.731" height="5.754"/>
		<rect x="801.759" y="496.746" fill="#00FF85" width="73.735" height="5.754"/>
	</g>
	
		<rect x="500.962" y="488.091" transform="matrix(0.0031 -1 1 0.0031 1.6043 1001.6074)" fill="#00FF85" width="4.402" height="23.816"/>
	<polygon fill="#00FF85" points="505.338,511.873 500.924,511.863 500.988,488.113 505.403,488.135 	"/>
	<polyline opacity="0.4" fill="none" stroke="#00FF4E" stroke-width="2.8089" stroke-miterlimit="10" points="911.457,853.08 
		956.29,812.734 956.29,187.942 909.419,145.762 	"/>
	<path opacity="0.4" fill="#00FF85" d="M928.977,776.359c0-0.693,0.732-1.254,1.628-1.254h25.002c0.903,0,1.628,0.561,1.628,1.254
		l0,0c0,0.693-0.725,1.252-1.628,1.252h-25.002C929.709,777.611,928.977,777.053,928.977,776.359L928.977,776.359z"/>
	<path opacity="0.4" fill="#00FF85" d="M942.689,743.785c0-0.699,0.373-1.264,0.836-1.264h12.874c0.462,0,0.835,0.564,0.835,1.264
		l0,0c0,0.688-0.373,1.254-0.835,1.254h-12.874C943.063,745.039,942.689,744.473,942.689,743.785L942.689,743.785z"/>
	<path opacity="0.4" fill="#00FF85" d="M42.76,776.359c0-0.693,0.732-1.254,1.628-1.254h25.004c0.899,0,1.627,0.561,1.627,1.254l0,0
		c0,0.693-0.728,1.252-1.627,1.252H44.388C43.492,777.611,42.76,777.053,42.76,776.359L42.76,776.359z"/>
	<path opacity="0.4" fill="#00FF85" d="M42.762,743.785c0-0.699,0.374-1.264,0.836-1.264h12.875c0.462,0,0.835,0.564,0.835,1.264
		l0,0c0,0.688-0.373,1.254-0.835,1.254H43.598C43.136,745.039,42.762,744.473,42.762,743.785L42.762,743.785z"/>
	<path opacity="0.4" fill="#00FF85" d="M942.689,711.201c0-0.701,0.373-1.254,0.836-1.254h12.874c0.462,0,0.835,0.553,0.835,1.254
		l0,0c0,0.693-0.373,1.252-0.835,1.252h-12.874C943.063,712.453,942.689,711.895,942.689,711.201L942.689,711.201z"/>
	<path fill="#00FF85" d="M928.977,678.617c0-0.695,0.67-1.254,1.495-1.254h22.964c0.824,0,1.496,0.559,1.496,1.254l0,0
		c0,0.693-0.672,1.254-1.496,1.254h-22.964C929.646,679.871,928.977,679.311,928.977,678.617L928.977,678.617z"/>
	<path fill="#00FF85" d="M928.977,646.033c0-0.689,0.67-1.252,1.495-1.252h22.964c0.824,0,1.496,0.563,1.496,1.252l0,0
		c0,0.693-0.672,1.258-1.496,1.258h-22.964C929.646,647.291,928.977,646.727,928.977,646.033L928.977,646.033z"/>
	<path opacity="0.4" fill="#00FF85" d="M942.689,613.453c0-0.693,0.373-1.258,0.836-1.258h12.874c0.462,0,0.835,0.564,0.835,1.258
		l0,0c0,0.689-0.373,1.254-0.835,1.254h-12.874C943.063,614.707,942.689,614.143,942.689,613.453L942.689,613.453z"/>
	<path opacity="0.4" fill="#00FF85" d="M942.689,580.869c0-0.693,0.373-1.252,0.836-1.252h12.874c0.462,0,0.835,0.559,0.835,1.252
		l0,0c0,0.693-0.373,1.252-0.835,1.252h-12.874C943.063,582.121,942.689,581.563,942.689,580.869L942.689,580.869z"/>
	<path opacity="0.4" fill="#00FF85" d="M942.689,548.289c0-0.691,0.373-1.252,0.836-1.252h12.874c0.462,0,0.835,0.561,0.835,1.252
		l0,0c0,0.695-0.373,1.26-0.835,1.26h-12.874C943.063,549.549,942.689,548.984,942.689,548.289L942.689,548.289z"/>
	<path fill="#00FF85" d="M925.449,515.711c0-0.699,0.818-1.26,1.829-1.26h28.13c1.007,0,1.826,0.561,1.826,1.26l0,0
		c0,0.688-0.819,1.254-1.826,1.254h-28.13C926.268,516.965,925.449,516.398,925.449,515.711L925.449,515.711z"/>
	<path fill="#00FF85" d="M925.449,483.131c0-0.693,0.818-1.253,1.829-1.253h28.13c1.007,0,1.826,0.56,1.826,1.253l0,0
		c0,0.695-0.819,1.254-1.826,1.254h-28.13C926.268,484.385,925.449,483.826,925.449,483.131L925.449,483.131z"/>
	<path opacity="0.4" fill="#00FF85" d="M942.689,450.547c0-0.688,0.373-1.253,0.836-1.253h12.874c0.462,0,0.835,0.565,0.835,1.253
		l0,0c0,0.694-0.373,1.258-0.835,1.258h-12.874C943.063,451.805,942.689,451.241,942.689,450.547L942.689,450.547z"/>
	<path opacity="0.4" fill="#00FF85" d="M942.689,417.969c0-0.689,0.373-1.253,0.836-1.253h12.874c0.462,0,0.835,0.563,0.835,1.253
		l0,0c0,0.693-0.373,1.258-0.835,1.258h-12.874C943.063,419.227,942.689,418.662,942.689,417.969L942.689,417.969z"/>
	<path opacity="0.4" fill="#00FF85" d="M942.689,385.389c0-0.693,0.373-1.258,0.836-1.258h12.874c0.462,0,0.835,0.564,0.835,1.258
		l0,0c0,0.689-0.373,1.255-0.835,1.255h-12.874C943.063,386.644,942.689,386.078,942.689,385.389L942.689,385.389z"/>
	<path fill="#00FF85" d="M924.803,352.806c0-0.694,0.777-1.26,1.743-1.26h26.753c0.959,0,1.737,0.565,1.737,1.26l0,0
		c0,0.693-0.778,1.253-1.737,1.253h-26.753C925.58,354.059,924.803,353.499,924.803,352.806L924.803,352.806z"/>
	<path fill="#00FF85" d="M924.803,320.221c0-0.693,0.777-1.253,1.743-1.253h26.753c0.959,0,1.737,0.56,1.737,1.253l0,0
		c0,0.694-0.778,1.254-1.737,1.254h-26.753C925.58,321.475,924.803,320.915,924.803,320.221L924.803,320.221z"/>
	<path opacity="0.4" fill="#00FF85" d="M942.689,287.642c0-0.688,0.373-1.253,0.836-1.253h12.874c0.462,0,0.835,0.564,0.835,1.253
		l0,0c0,0.694-0.373,1.258-0.835,1.258h-12.874C943.063,288.899,942.689,288.336,942.689,287.642L942.689,287.642z"/>
	<path opacity="0.4" fill="#00FF85" d="M942.689,255.063c0-0.695,0.373-1.259,0.836-1.259h12.874c0.462,0,0.835,0.563,0.835,1.259
		l0,0c0,0.688-0.373,1.253-0.835,1.253h-12.874C943.063,256.316,942.689,255.752,942.689,255.063L942.689,255.063z"/>
	<path opacity="0.4" fill="#00FF85" d="M925.449,222.427c0-0.699,0.818-1.264,1.829-1.264h28.13c1.007,0,1.826,0.564,1.826,1.264
		l0,0c0,0.689-0.819,1.254-1.826,1.254h-28.13C926.268,223.681,925.449,223.116,925.449,222.427L925.449,222.427z"/>
	<polyline opacity="0.4" fill="none" stroke="#00FF4E" stroke-width="2.8089" stroke-miterlimit="10" points="88.54,854.238 
		43.71,813.889 43.71,189.092 90.58,146.911 	"/>
	<path opacity="0.4" fill="#00FF85" d="M57.308,712.352c0-0.695-0.373-1.254-0.835-1.254H43.598c-0.462,0-0.836,0.559-0.836,1.254
		l0,0c0,0.693,0.374,1.252,0.836,1.252h12.875C56.935,713.604,57.308,713.045,57.308,712.352L57.308,712.352z"/>
	<path fill="#00FF85" d="M71.019,679.766c0-0.693-0.671-1.252-1.498-1.252H46.469c-0.824,0-1.497,0.559-1.497,1.252l0,0
		c0,0.699,0.673,1.254,1.497,1.254h23.052C70.348,681.02,71.019,680.465,71.019,679.766L71.019,679.766z"/>
	<path fill="#00FF85" d="M71.019,647.182c0-0.688-0.671-1.254-1.498-1.254H46.469c-0.824,0-1.497,0.566-1.497,1.254l0,0
		c0,0.699,0.673,1.264,1.497,1.264h23.052C70.348,648.445,71.019,647.881,71.019,647.182L71.019,647.182z"/>
	<path opacity="0.4" fill="#00FF85" d="M57.308,614.609c0-0.701-0.373-1.266-0.835-1.266H43.598c-0.462,0-0.836,0.564-0.836,1.266
		l0,0c0,0.688,0.374,1.254,0.836,1.254h12.875C56.935,615.863,57.308,615.297,57.308,614.609L57.308,614.609z"/>
	<path opacity="0.4" fill="#00FF85" d="M57.308,582.023c0-0.693-0.373-1.254-0.835-1.254H43.598c-0.462,0-0.836,0.561-0.836,1.254
		l0,0c0,0.695,0.374,1.254,0.836,1.254h12.875C56.935,583.277,57.308,582.719,57.308,582.023L57.308,582.023z"/>
	<path opacity="0.4" fill="#00FF85" d="M57.308,549.441c0-0.689-0.373-1.254-0.835-1.254H43.598c-0.462,0-0.836,0.564-0.836,1.254
		l0,0c0,0.693,0.374,1.252,0.836,1.252h12.875C56.935,550.693,57.308,550.135,57.308,549.441L57.308,549.441z"/>
	<path fill="#00FF85" d="M74.547,516.859c0-0.691-0.815-1.256-1.829-1.256H44.59c-1.008,0-1.828,0.564-1.828,1.256l0,0
		c0,0.689,0.82,1.254,1.828,1.254h28.128C73.731,518.113,74.547,517.549,74.547,516.859L74.547,516.859z"/>
	<path fill="#00FF85" d="M74.547,484.281c0-0.693-0.815-1.254-1.829-1.254H44.59c-1.008,0-1.828,0.561-1.828,1.254l0,0
		c0,0.694,0.82,1.254,1.828,1.254h28.128C73.731,485.535,74.547,484.976,74.547,484.281L74.547,484.281z"/>
	<path opacity="0.4" fill="#00FF85" d="M57.308,451.697c0-0.688-0.373-1.254-0.835-1.254H43.598c-0.462,0-0.836,0.565-0.836,1.254
		l0,0c0,0.699,0.374,1.264,0.836,1.264h12.875C56.935,452.961,57.308,452.396,57.308,451.697L57.308,451.697z"/>
	<path opacity="0.4" fill="#00FF85" d="M57.308,419.124c0-0.694-0.373-1.254-0.835-1.254H43.598c-0.462,0-0.836,0.56-0.836,1.254
		l0,0c0,0.693,0.374,1.253,0.836,1.253h12.875C56.935,420.377,57.308,419.817,57.308,419.124L57.308,419.124z"/>
	<path opacity="0.4" fill="#00FF85" d="M57.308,386.54c0-0.695-0.373-1.255-0.835-1.255H43.598c-0.462,0-0.836,0.56-0.836,1.255l0,0
		c0,0.692,0.374,1.252,0.836,1.252h12.875C56.935,387.792,57.308,387.232,57.308,386.54L57.308,386.54z"/>
	<path fill="#00FF85" d="M75.196,353.955c0-0.694-0.782-1.254-1.742-1.254H46.7c-0.963,0-1.739,0.56-1.739,1.254l0,0
		c0,0.693,0.776,1.253,1.739,1.253h26.754C74.414,355.208,75.196,354.648,75.196,353.955L75.196,353.955z"/>
	<path fill="#00FF85" d="M75.196,321.371c0-0.695-0.782-1.253-1.742-1.253H46.7c-0.963,0-1.739,0.558-1.739,1.253l0,0
		c0,0.694,0.776,1.253,1.739,1.253h26.754C74.414,322.624,75.196,322.065,75.196,321.371L75.196,321.371z"/>
	<path opacity="0.4" fill="#00FF85" d="M57.308,288.792c0-0.689-0.373-1.253-0.835-1.253H43.598c-0.462,0-0.836,0.563-0.836,1.253
		l0,0c0,0.693,0.374,1.258,0.836,1.258h12.875C56.935,290.05,57.308,289.485,57.308,288.792L57.308,288.792z"/>
	<path opacity="0.4" fill="#00FF85" d="M57.308,256.207c0-0.688-0.373-1.253-0.835-1.253H43.598c-0.462,0-0.836,0.564-0.836,1.253
		l0,0c0,0.699,0.374,1.26,0.836,1.26h12.875C56.935,257.467,57.308,256.906,57.308,256.207L57.308,256.207z"/>
	<path opacity="0.4" fill="#00FF85" d="M74.547,223.577c0-0.694-0.815-1.259-1.829-1.259H44.59c-1.008,0-1.828,0.564-1.828,1.259
		l0,0c0,0.688,0.82,1.252,1.828,1.252h28.128C73.731,224.829,74.547,224.265,74.547,223.577L74.547,223.577z"/>
</g>
</svg>
