<?xml version="1.0" encoding="utf-8"?>
<!-- Generator: Adobe Illustrator 21.0.0, SVG Export Plug-In . SVG Version: 6.00 Build 0)  -->
<svg version="1.1" id="图层_1" xmlns="http://www.w3.org/2000/svg" xmlns:xlink="http://www.w3.org/1999/xlink" x="0px" y="0px"
	 viewBox="0 0 300 300" style="enable-background:new 0 0 300 300;" xml:space="preserve">
<style type="text/css">
	.st0{display:none;}
	.st1{display:inline;fill:#00FF7F;}
	.st2{display:none;opacity:0.9;}
	.st3{display:none;opacity:0.8;}
	.st4{display:none;opacity:0.7;}
	.st5{display:none;opacity:0.6;}
	.st6{display:none;opacity:0.5;}
	.st7{display:none;opacity:0.4;}
	.st8{display:none;opacity:0.3;}
	.st9{display:none;opacity:0.2;}
	.st10{opacity:0.9;}
	.st11{fill:#00FF7F;}
</style>
<g>
	<g class="st0">
		<rect x="246.1" y="36.6" class="st1" width="0" height="81.7"/>
	</g>
	<g class="st0">
		<polygon class="st1" points="243.2,114.8 239.9,114.9 236.1,41.8 239.4,41.6 		"/>
	</g>
	<g class="st0">
		<polygon class="st1" points="234.3,115.3 230.9,115.7 223.3,42.8 226.6,42.5 		"/>
	</g>
	<g class="st2">
		<polygon class="st1" points="225.3,116.4 222,116.9 210.6,44.6 213.8,44 		"/>
	</g>
	<g class="st2">
		<polygon class="st1" points="216.4,117.9 213.2,118.6 197.9,47 201.2,46.3 		"/>
	</g>
	<g class="st2">
		
			<rect x="194.9" y="48.3" transform="matrix(0.9657 -0.2597 0.2597 0.9657 -15.3252 53.9689)" class="st1" width="3.3" height="73.3"/>
	</g>
	<g class="st3">
		
			<rect x="184.4" y="51.4" transform="matrix(0.9514 -0.308 0.308 0.9514 -18.0737 61.5833)" class="st1" width="3.3" height="73.3"/>
	</g>
	<g class="st3">
		<polygon class="st1" points="190.4,125.3 187.3,126.5 161.1,58.1 164.2,56.9 		"/>
	</g>
	<g class="st3">
		<polygon class="st1" points="182.1,128.6 179,130 149.2,63 152.3,61.7 		"/>
	</g>
	<g class="st4">
		<polygon class="st1" points="173.9,132.4 170.9,133.9 137.7,68.6 140.6,67.1 		"/>
	</g>
	<g class="st4">
		<polygon class="st1" points="165.9,136.6 163,138.3 126.4,74.8 129.3,73.1 		"/>
	</g>
	<g class="st4">
		<polygon class="st1" points="158.2,141.2 155.4,143 115.5,81.6 118.3,79.7 		"/>
	</g>
	<g class="st5">
		<polygon class="st1" points="150.7,146.2 148,148.2 104.9,88.9 107.6,86.9 		"/>
	</g>
	<g class="st5">
		<polygon class="st1" points="143.5,151.6 140.9,153.7 94.8,96.8 97.4,94.7 		"/>
	</g>
	<g class="st5">
		<polygon class="st1" points="136.5,157.4 134.1,159.6 85,105.2 87.5,102.9 		"/>
	</g>
	<g class="st6">
		<polygon class="st1" points="129.9,163.5 127.6,165.8 75.8,114 78.1,111.7 		"/>
	</g>
	<g class="st6">
		<polygon class="st1" points="123.6,170 121.4,172.4 67,123.4 69.2,120.9 		"/>
	</g>
	<g class="st6">
		<polygon class="st1" points="117.7,176.7 115.6,179.3 58.7,133.2 60.8,130.6 		"/>
	</g>
	<g class="st7">
		<polygon class="st1" points="112.1,183.8 110.2,186.5 50.9,143.4 52.8,140.7 		"/>
	</g>
	<g class="st7">
		<polygon class="st1" points="106.9,191.2 105.1,194 43.7,154.1 45.5,151.3 		"/>
	</g>
	<g class="st7">
		<polygon class="st1" points="102.1,198.8 100.5,201.7 37,165 38.7,162.1 		"/>
	</g>
	<g class="st8">
		<polygon class="st1" points="97.7,206.7 96.2,209.6 30.9,176.4 32.4,173.4 		"/>
	</g>
	<g class="st8">
		<polygon class="st1" points="93.7,214.7 92.4,217.8 25.4,188 26.8,184.9 		"/>
	</g>
	<g class="st8">
		<polygon class="st1" points="90.2,223 89,226.1 20.6,199.9 21.8,196.8 		"/>
	</g>
	<g class="st8">
		<polygon class="st1" points="87.1,231.5 86,234.6 16.4,212 17.4,208.8 		"/>
	</g>
	<g class="st8">
		<polygon class="st1" points="84.4,240.1 83.5,243.3 12.8,224.3 13.6,221.1 		"/>
	</g>
	<g class="st8">
		<polygon class="st1" points="82.2,248.8 81.5,252.1 9.8,236.8 10.5,233.6 		"/>
	</g>
	<g class="st9">
		<polygon class="st1" points="80.4,257.7 79.9,260.9 7.5,249.5 8.1,246.2 		"/>
	</g>
	<g class="st9">
		<polygon class="st1" points="79.1,266.6 78.8,269.9 5.9,262.2 6.3,258.9 		"/>
	</g>
	<g class="st9">
		<polygon class="st1" points="78.3,275.5 78.1,278.9 5,275 5.1,271.7 		"/>
	</g>
	<g class="st9">
		<polygon class="st1" points="78.5,281.7 78,281.7 1,281.7 1,281.7 		"/>
	</g>
	<g class="st0">
		<rect x="248.2" y="122.2" class="st1" width="2.4" height="11.9"/>
	</g>
	<g class="st0">
		<polygon class="st1" points="239,135 235.7,135.3 234.5,122 237.8,121.7 		"/>
	</g>
	<g class="st0">
		
			<rect x="221.3" y="123.6" transform="matrix(0.9847 -0.1744 0.1744 0.9847 -19.3047 40.8957)" class="st1" width="3.3" height="13.3"/>
	</g>
	<g class="st0">
		<polygon class="st1" points="212.8,139.2 209.6,140.1 206.2,127.2 209.4,126.4 		"/>
	</g>
	<g class="st0">
		
			<rect x="194.6" y="130.7" transform="matrix(0.9395 -0.3424 0.3424 0.9395 -35.1664 75.5059)" class="st1" width="3.3" height="13.3"/>
	</g>
	<g class="st0">
		
			<rect x="181.8" y="135.9" transform="matrix(0.9057 -0.4239 0.4239 0.9057 -43.1529 91.2129)" class="st1" width="3.3" height="13.3"/>
	</g>
	<g class="st0">
		
			<rect x="169.5" y="142.3" transform="matrix(0.8666 -0.4989 0.4989 0.8666 -51.4957 105.2523)" class="st1" width="3.3" height="13.3"/>
	</g>
	<g class="st0">
		
			<rect x="157.8" y="149.7" transform="matrix(0.8186 -0.5744 0.5744 0.8186 -60.8844 119.9341)" class="st1" width="3.3" height="13.3"/>
	</g>
	<g class="st0">
		<polygon class="st1" points="154,168.8 151.4,170.9 142.9,160.7 145.4,158.6 		"/>
	</g>
	<g class="st0">
		<polygon class="st1" points="144.1,177.6 141.7,180 132.3,170.5 134.6,168.2 		"/>
	</g>
	<g class="st0">
		<polygon class="st1" points="135,187.2 132.8,189.8 122.6,181.2 124.7,178.7 		"/>
	</g>
	<g class="st0">
		<polygon class="st1" points="126.7,197.7 124.8,200.4 113.9,192.7 115.8,190 		"/>
	</g>
	<g class="st0">
		<polygon class="st1" points="119.4,208.7 117.8,211.6 106.2,205 107.9,202.1 		"/>
	</g>
	<g class="st0">
		<polygon class="st1" points="113.1,220.4 111.7,223.5 99.7,217.8 101.1,214.8 		"/>
	</g>
	<g class="st0">
		<polygon class="st1" points="107.9,232.6 106.7,235.7 94.2,231.2 95.4,228.1 		"/>
	</g>
	<g class="st0">
		<polygon class="st1" points="103.7,245.2 102.8,248.4 90,245 90.8,241.8 		"/>
	</g>
	<g class="st0">
		<polygon class="st1" points="100.6,258.1 100.1,261.4 86.9,259.1 87.5,255.8 		"/>
	</g>
	<g class="st0">
		<polygon class="st1" points="98.7,271.2 98.4,274.6 85.2,273.4 85.4,270.1 		"/>
	</g>
	<g class="st0">
		<polygon class="st1" points="98.8,284.5 99.3,287.8 86.4,287.8 86.4,284.5 		"/>
	</g>
	<g class="st9">
		<rect x="246.1" y="141.7" class="st1" width="0" height="23.3"/>
	</g>
	<g class="st9">
		<polygon class="st1" points="246.2,171.3 242.9,171.5 241.3,141.5 244.6,141.4 		"/>
	</g>
	<g class="st9">
		<polygon class="st1" points="240.2,171.7 236.9,172 233.7,142.2 237,141.9 		"/>
	</g>
	<g class="st9">
		<polygon class="st1" points="234.2,172.3 230.9,172.9 226.2,143.3 229.5,142.7 		"/>
	</g>
	<g class="st8">
		<polygon class="st1" points="228.2,173.3 224.9,174 218.7,144.7 222,144 		"/>
	</g>
	<g class="st8">
		<polygon class="st1" points="222.3,174.6 219.1,175.5 211.3,146.5 214.5,145.7 		"/>
	</g>
	<g class="st8">
		<rect x="208.6" y="147.5" transform="matrix(0.9514 -0.308 0.308 0.9514 -39.826 72.6544)" class="st1" width="3.3" height="30"/>
	</g>
	<g class="st8">
		<polygon class="st1" points="210.7,178.2 207.6,179.3 196.9,151.3 200,150.2 		"/>
	</g>
	<g class="st8">
		<polygon class="st1" points="205.1,180.4 202.1,181.7 189.9,154.3 192.9,153 		"/>
	</g>
	<g class="st8">
		<polygon class="st1" points="199.6,182.9 196.6,184.4 183,157.7 186,156.1 		"/>
	</g>
	<g class="st7">
		<polygon class="st1" points="194.2,185.6 191.3,187.3 176.4,161.3 179.2,159.7 		"/>
	</g>
	<g class="st7">
		<polygon class="st1" points="189,188.7 186.2,190.5 169.9,165.4 172.7,163.5 		"/>
	</g>
	<g class="st7">
		<polygon class="st1" points="184,192 181.3,194 163.6,169.7 166.4,167.8 		"/>
	</g>
	<g class="st6">
		<polygon class="st1" points="179.1,195.6 176.5,197.7 157.6,174.4 160.2,172.3 		"/>
	</g>
	<g class="st6">
		<polygon class="st1" points="174.4,199.5 172,201.7 151.9,179.4 154.4,177.2 		"/>
	</g>
	<g class="st6">
		<polygon class="st1" points="170,203.5 167.6,205.9 146.4,184.7 148.8,182.3 		"/>
	</g>
	<g class="st5">
		<polygon class="st1" points="165.7,207.9 163.5,210.3 141.2,190.3 143.4,187.8 		"/>
	</g>
	<g class="st5">
		<polygon class="st1" points="161.7,212.4 159.6,215 136.3,196.1 138.4,193.5 		"/>
	</g>
	<g class="st5">
		<polygon class="st1" points="157.9,217.1 156,219.8 131.7,202.2 133.7,199.5 		"/>
	</g>
	<g class="st4">
		<polygon class="st1" points="154.4,222 152.6,224.8 127.5,208.5 129.3,205.7 		"/>
	</g>
	<g class="st4">
		<polygon class="st1" points="151.2,227.1 149.5,230 123.5,215 125.2,212.1 		"/>
	</g>
	<g class="st4">
		<polygon class="st1" points="148.2,232.4 146.7,235.3 120,221.7 121.5,218.7 		"/>
	</g>
	<g class="st3">
		<polygon class="st1" points="145.5,237.8 144.1,240.8 116.7,228.6 118.1,225.6 		"/>
	</g>
	<g class="st3">
		<polygon class="st1" points="143.1,243.3 141.9,246.4 113.9,235.7 115.1,232.5 		"/>
	</g>
	<g class="st3">
		<polygon class="st1" points="140.9,249 139.9,252.1 111.4,242.9 112.4,239.7 		"/>
	</g>
	<g class="st2">
		<polygon class="st1" points="139.1,254.7 138.2,257.9 109.3,250.2 110.1,247 		"/>
	</g>
	<g class="st2">
		<polygon class="st1" points="137.6,260.6 136.9,263.8 107.6,257.6 108.2,254.3 		"/>
	</g>
	<g class="st2">
		<polygon class="st1" points="136.4,266.5 135.8,269.8 106.2,265.1 106.7,261.8 		"/>
	</g>
	<g class="st0">
		<polygon class="st1" points="135.5,272.5 135.1,275.8 105.3,272.7 105.6,269.3 		"/>
	</g>
	<g class="st0">
		<polygon class="st1" points="134.9,278.5 134.7,281.8 104.8,280.3 104.9,276.9 		"/>
	</g>
	<g class="st0">
		<polygon class="st1" points="134.7,284.5 134.7,293.4 107,293.4 104.2,287.3 		"/>
	</g>
	<g class="st10">
		<path class="st11" d="M180.2,227.4v15.4l-4.9,4.9l-1.6-1.6v-21.1L180.2,227.4z M202.1,277.6h-24.3c-2.2-0.5-3.5-1.9-4.1-4l6.5-2.4
			h19.4L202.1,277.6z M202.1,225.8h-21.8l-6.5-2.4c0.5-2.2,1.9-3.5,4.1-4.1h26.7L202.1,225.8z M201.3,245.2l3.2,3.3l-3.2,3.2h-21.1
			l-3.2-3.2l3.2-3.3H201.3z M206.1,249.3l1.6,1.6v22.7c-0.5,2.2-1.9,3.5-4.1,4l-2.4-6.5v-17L206.1,249.3z"/>
		<path class="st11" d="M222.3,227.4v15.4l-4.9,4.9l-1.6-1.6v-21.1L222.3,227.4z M215.8,271.9v-21.1l1.6-1.6l4.9,4.8v15.4
			L215.8,271.9z M244.2,277.6h-24.3c-2.2-0.5-3.5-1.9-4.1-4l6.5-2.4h19.4L244.2,277.6z M241.8,225.8h-19.4l-6.5-2.4
			c0.5-2.2,1.9-3.5,4.1-4.1h24.2L241.8,225.8z M243.4,242.8v-17l2.4-6.5c2.2,0.6,3.5,1.9,4,4.1V246l-1.6,1.6L243.4,242.8z
			 M248.2,249.3l1.6,1.6v22.7c-0.5,2.2-1.9,3.5-4,4l-2.4-6.5v-17L248.2,249.3z"/>
		<path class="st11" d="M269.3,225.8h-4.8l-6.5-2.4c0.5-2.2,1.9-3.5,4.1-4.1h9.7L269.3,225.8z M264.4,227.4v4.9l-2.4,6.5
			c-2.2-0.5-3.5-1.9-4.1-4v-9.7L264.4,227.4z M277.3,258l-9.6,19.6c-3.2,0-5.4-1.1-6.5-3.2l12.5-25.1h3.6V258z M266.1,232.2h4.9
			l6.5,2.4c-0.5,2.2-1.9,3.5-4,4h-9.7L266.1,232.2z M270.9,230.6v-4.9l2.4-6.5c2.2,0.6,3.5,1.9,4,4.1v9.7L270.9,230.6z M290.4,264.6
			h-4.9l-6.5-2.4c0.5-2.2,1.9-3.5,4.1-4h9.7L290.4,264.6z M285.5,266.3v4.9l-2.4,6.5c-2.2-0.5-3.5-1.9-4.1-4v-9.7L285.5,266.3z
			 M279.1,238.9l9.6-19.6c3.2,0,5.4,1.1,6.5,3.3l-12.5,25.1h-3.6V238.9z M287.1,271.1h4.9l6.5,2.4c-0.5,2.2-1.9,3.5-4.1,4h-9.7
			L287.1,271.1z M292,269.5v-4.8l2.4-6.5c2.2,0.5,3.5,1.9,4.1,4v9.7L292,269.5z"/>
	</g>
</g>
</svg>
